# 
# Wavefront OBJ file
# Converted by the DEEP Exploration 3.5.10.1242
# Right Hemisphere, LTD
# http://www.righthemisphere.com/
# 
mtllib arrow28.mtl
# object Mesh 
g Mesh_
v -5.15887 1.37828 -0.72897
v -5.15887 3.94801 -0.72897
v -0.911212 5.62637 -0.72897
v 1e-005 9.11216 -0.72897
v 0.911212 5.62637 -0.72897
v 5.15887 3.94801 -0.72897
v 5.15887 1.37828 -0.72897
v 5.15887 -1.38311 -0.72897
v 5.15887 -3.94896 -0.72897
v 0.911212 -5.63121 -0.72897
v 1e-005 -9.11216 -0.72897
v -0.911212 -5.63121 -0.72897
v -5.15887 -3.94896 -0.72897
v -5.15887 -1.38311 -0.72897
v -0.911212 5.62637 0.72897
v -5.15887 3.94801 0.72897
v -5.15887 1.37828 0.72897
v 1e-005 9.11216 0.72897
v 0.911212 5.62637 0.72897
v 5.15887 3.94801 0.72897
v 5.15887 1.37828 0.72897
v 0.911212 -5.63121 0.72897
v 5.15887 -3.94896 0.72897
v 5.15887 -1.38311 0.72897
v 1e-005 -9.11216 0.72897
v -0.911212 -5.63121 0.72897
v -5.15887 -3.94896 0.72897
v -5.15887 -1.38311 0.72897
# 28 verticies
vt 0 0
# 1 texture verticies
vn 0 0 -1
vn 0 0 1
vn 0.707142 -0.707071 0
vn 0.707143 -0.707071 0
vn -1 0 0
vn -0.707468 0.706746 0
vn 0.707469 0.706744 0
vn 1 0 0
vn -0.707142 -0.707071 0
vn -0.707143 -0.707071 0
vn -0.707143 0.70707 0
vn 0.707404 -0.70681 0
vn -0.707403 -0.706811 0
vn 0.707143 0.70707 0
# 14 normals
usemtl mat__ACI__7
f  1/1/1 2/1/1 3/1/1
f  4/1/1 3/1/1 2/1/1
f  5/1/1 3/1/1 4/1/1
f  6/1/1 5/1/1 4/1/1
f  5/1/1 6/1/1 7/1/1
f  8/1/1 9/1/1 10/1/1
f  11/1/1 10/1/1 9/1/1
f  12/1/1 10/1/1 11/1/1
f  13/1/1 12/1/1 11/1/1
f  12/1/1 13/1/1 14/1/1
f  3/1/1 5/1/1 10/1/1 12/1/1
f  15/1/2 16/1/2 17/1/2
f  16/1/2 15/1/2 18/1/2
f  18/1/2 15/1/2 19/1/2
f  18/1/2 19/1/2 20/1/2
f  21/1/2 20/1/2 19/1/2
f  22/1/2 23/1/2 24/1/2
f  23/1/2 22/1/2 25/1/2
f  25/1/2 22/1/2 26/1/2
f  25/1/2 26/1/2 27/1/2
f  28/1/2 27/1/2 26/1/2
f  22/1/2 19/1/2 15/1/2 26/1/2
f  15/1/3 17/1/3 1/1/4 3/1/3
f  17/1/5 16/1/5 2/1/5 1/1/5
f  16/1/6 18/1/6 4/1/6 2/1/6
f  18/1/7 20/1/7 6/1/7 4/1/7
f  20/1/8 21/1/8 7/1/8 6/1/8
f  21/1/9 19/1/9 5/1/10 7/1/9
f  19/1/8 22/1/8 10/1/8 5/1/8
f  22/1/11 24/1/11 8/1/11 10/1/11
f  24/1/8 23/1/8 9/1/8 8/1/8
f  23/1/12 25/1/12 11/1/12 9/1/12
f  25/1/13 27/1/13 13/1/13 11/1/13
f  27/1/5 28/1/5 14/1/5 13/1/5
f  28/1/14 26/1/14 12/1/14 14/1/14
f  26/1/5 15/1/5 3/1/5 12/1/5
