# 
# Wavefront OBJ file
# Converted by the DEEP Exploration 3.5.10.1242
# Right Hemisphere, LTD
# http://www.righthemisphere.com/
# 
mtllib arrow55.mtl
# object Mesh 
g Mesh_
v -8.26754 0.400423 -1.02987
v -8.79937 0.400423 0.672977
v -8.06287 0.400423 1.11098
v -6.44705 0.400423 -0.232915
v -7.7687 0.400423 -1.35492
v -9.29615 0.400423 -0.462859
v -9.82163 0.400423 -0.223755
v -9.56326 0.400423 0.297898
v -8.77812 0.400423 -0.731573
v -10.3546 0.400423 -0.0142453
v -6.44705 -0.400423 -0.232915
v 6.42952 -0.400423 0.229117
v -6.44705 -0.400423 0.229117
v -4.84542 -0.400423 3.51718
v -5.39096 -0.400423 3.49233
v -4.91283 -0.400423 3.14408
v -4.80497 -0.400423 3.88416
v -4.79148 -0.400423 4.245
v -5.14913 -0.400423 -3.77645
v -4.81944 -0.400423 -3.69976
v -4.90329 -0.400423 -3.17225
v -5.53113 -0.400423 -3.32499
v -5.04303 -0.400423 -2.66248
v -5.0072 -0.400423 2.76484
v -4.79148 -0.400423 -4.245
v -6.00029 -0.400423 0.736801
v -5.79434 -0.400423 1.02786
v -6.6721 -0.400423 2.17579
v -5.48191 -0.400423 -1.68697
v -6.819 -0.400423 -2.07669
v -6.36815 -0.400423 -2.47343
v -5.76438 -0.400423 -1.20289
v -6.0861 -0.400423 -0.718197
v -5.59999 -0.400423 1.34372
v -5.42154 -0.400423 1.67874
v -5.2387 -0.400423 -2.17043
v -5.93746 -0.400423 -2.89066
v -6.01782 -0.400423 2.8026
v -5.26325 -0.400423 2.02727
v -5.12515 -0.400423 2.38931
v -8.06287 -0.400423 1.11098
v -7.35379 -0.400423 1.61192
v -7.7687 -0.400423 -1.35492
v -7.28585 -0.400423 -1.70386
v -6.21786 -0.400423 0.470553
v 9.26066 -0.400423 -0.481274
v 9.80225 -0.400423 -0.233629
v 9.51621 -0.400423 0.320152
v 10.3546 -0.400423 -0.0142453
v 8.20969 -0.400423 -1.0614
v 8.7298 -0.400423 -0.757208
v 8.71631 -0.400423 0.711126
v 6.42952 -0.400423 -0.232915
v 7.70568 -0.400423 -1.38962
v 7.95488 -0.400423 1.15866
v 7.23193 -0.400423 1.66278
v 5.68373 -0.400423 1.23791
v 6.02999 -0.400423 0.733918
v 5.45745 -0.400423 -1.56222
v 6.32256 -0.400423 -2.49269
v 6.76211 -0.400423 -2.10526
v 6.54744 -0.400423 2.22348
v 6.07129 -0.400423 -0.628455
v 7.22316 -0.400423 -1.73757
v 5.74727 -0.400423 -1.07155
v 4.99315 -0.400423 -2.65597
v 4.84409 -0.400423 -3.19859
v 5.49432 -0.400423 -3.32808
v 5.10222 -0.400423 -3.77636
v 4.75147 -0.400423 3.74583
v 4.83138 -0.400423 3.24585
v 5.2939 -0.400423 3.51458
v 4.96455 -0.400423 2.74507
v 5.90109 -0.400423 -2.9002
v 5.20184 -0.400423 -2.10044
v 5.90143 -0.400423 2.84075
v 5.151 -0.400423 2.24349
v 5.39073 -0.400423 1.74111
v 4.75465 -0.400423 -3.72827
v 4.72483 -0.400423 -4.245
v 4.72483 -0.400423 4.245
v 6.42952 0.400423 0.229117
v -6.44705 0.400423 0.229117
v -5.12515 0.400423 2.38931
v -5.0072 0.400423 2.76484
v -4.91283 0.400423 3.14408
v -4.90329 0.400423 -3.17225
v -5.04303 0.400423 -2.66248
v -5.26325 0.400423 2.02727
v -4.79148 0.400423 4.245
v -5.39096 0.400423 3.49233
v -5.2387 0.400423 -2.17043
v -4.84542 0.400423 3.51718
v -5.14913 0.400423 -3.77645
v -4.79148 0.400423 -4.245
v -4.81944 0.400423 -3.69976
v -4.80497 0.400423 3.88416
v -6.21786 0.400423 0.470553
v -6.00029 0.400423 0.736801
v -6.36815 0.400423 -2.47343
v -5.93746 0.400423 -2.89066
v -6.0861 0.400423 -0.718197
v -5.79434 0.400423 1.02786
v -6.01782 0.400423 2.8026
v -5.76438 0.400423 -1.20289
v -5.59999 0.400423 1.34372
v -5.53113 0.400423 -3.32499
v -5.48191 0.400423 -1.68697
v -5.42154 0.400423 1.67874
v -7.28585 0.400423 -1.70386
v -6.819 0.400423 -2.07669
v -6.6721 0.400423 2.17579
v -7.35379 0.400423 1.61192
v 9.26066 0.400423 -0.481274
v 9.80225 0.400423 -0.233629
v 10.3546 0.400423 -0.0142453
v 9.51621 0.400423 0.320152
v 8.20969 0.400423 -1.0614
v 8.7298 0.400423 -0.757208
v 8.71631 0.400423 0.711126
v -8.79937 -0.400423 0.672977
v -8.26754 -0.400423 -1.02987
v 7.95488 0.400423 1.15866
v 7.23193 0.400423 1.66278
v 7.22316 0.400423 -1.73757
v 7.70568 0.400423 -1.38962
v 6.02999 0.400423 0.733918
v 6.54744 0.400423 2.22348
v 5.90143 0.400423 2.84075
v 6.42952 0.400423 -0.232915
v 6.07129 0.400423 -0.628455
v 5.90109 0.400423 -2.9002
v 6.32256 0.400423 -2.49269
v -9.56326 -0.400423 0.297898
v -9.82163 -0.400423 -0.223755
v -9.29615 -0.400423 -0.462859
v 6.76211 0.400423 -2.10526
v -8.77812 -0.400423 -0.731573
v 4.96455 0.400423 2.74507
v 5.151 0.400423 2.24349
v 4.72483 0.400423 -4.245
v 5.10222 0.400423 -3.77636
v 5.20184 0.400423 -2.10044
v 4.99315 0.400423 -2.65597
v 5.49432 0.400423 -3.32808
v 5.45745 0.400423 -1.56222
v 5.39073 0.400423 1.74111
v 5.74727 0.400423 -1.07155
v 5.2939 0.400423 3.51458
v 5.68373 0.400423 1.23791
v -10.3546 -0.400423 -0.0142453
v 4.75147 0.400423 3.74583
v 4.83138 0.400423 3.24585
v 4.84409 0.400423 -3.19859
v 4.72483 0.400423 4.245
v 4.75465 0.400423 -3.72827
# 156 verticies
vt 0 0
# 1 texture verticies
vn 0 1 0
vn 0 -1 0
vn 0 0 1
vn 0.946035 0 -0.324064
vn 0.963837 0 -0.266494
vn 0.961472 0 -0.274904
vn 0.94319 0 -0.332254
vn 0.978717 0 -0.205216
vn 0.976757 0 -0.214348
vn 0.975571 0 0.219684
vn 0.945394 0 0.32593
vn 0.95109 0 0.308913
vn 0.979328 0 0.20228
vn 0.924564 0 -0.381028
vn 0.921147 0 -0.389214
vn -0.782219 0 0.623004
vn -0.757923 0 0.652344
vn -0.765094 0 0.643919
vn 0.909208 0 0.416342
vn 0.915035 0 0.403374
vn 0.990297 0 -0.138969
vn 0.988895 0 -0.148618
vn -0.781997 0 -0.623283
vn -0.794895 0 -0.606746
vn -0.776762 0 -0.629794
vn 0.993615 0 0.112822
vn 0.99542 0 0.095603
vn 0.997652 0 -0.068482
vn 0.996908 0 -0.078577
vn 0.999303 0 -0.037343
vn 0.998688 0 0.0512
vn 0.753638 0 -0.657289
vn 0.798695 0 -0.601736
vn 0.792953 0 -0.609282
vn 0.747041 0 -0.664778
vn -0.681328 0 -0.731979
vn -0.716104 0 -0.697994
vn -0.710365 0 -0.703833
vn -0.675464 0 -0.737393
vn 0.725259 0 -0.688476
vn 0.81549 0 0.578772
vn 0.802386 0 0.596806
vn 0.820607 0 0.571492
vn 0.836917 0 -0.547329
vn 0.831982 0 -0.554802
vn -0.712201 0 0.701976
vn -0.720428 0 0.69353
vn 0.846253 0 0.532782
vn 0.85129 0 0.524695
vn 0.869754 0 -0.493486
vn 0.865379 0 -0.501117
vn -0.7498 0 -0.661664
vn -0.744292 0 -0.667855
vn 0.876502 0 0.481398
vn 0.881343 0 0.472476
vn 0.898981 0 -0.437988
vn 0.894998 0 -0.446071
vn -0.569308 0 -0.822125
vn -0.608241 0 -0.793752
vn -0.601867 0 -0.798596
vn -0.562682 0 -0.826673
vn -0.64555 0 -0.763718
vn -0.639454 0 -0.76883
vn -0.660354 0 0.750955
vn -0.602446 0 0.798159
vn -0.612782 0 0.790252
vn -0.669653 0 0.742675
vn 0.434887 0 -0.900485
vn 0.388734 0 -0.92135
vn 0.396505 0 -0.918033
vn 0.442441 0 -0.896798
vn 0.370485 0 0.928838
vn 0.410953 0 0.911656
vn 0.399221 0 0.916855
vn 0.369146 0 -0.929371
vn 0.522017 0 -0.852935
vn 0.479541 0 -0.877519
vn 0.486817 0 -0.873504
vn 0.52883 0 -0.848728
vn 0.479042 0 0.877792
vn 0.46748 0 0.884004
vn 0.545325 0 0.838225
vn 0.608553 0 0.793513
vn 0.597992 0 0.801502
vn 0.534156 0 0.845386
vn 0.601164 0 -0.799126
vn 0.562185 0 -0.827012
vn 0.568714 0 -0.822535
vn 0.607584 0 -0.794256
vn -0.801234 0 -0.598351
vn -0.784127 0 -0.620601
vn -0.807972 0 -0.58922
vn 0.667618 0 0.744504
vn 0.72168 0 0.692227
vn 0.712818 0 0.701349
vn 0.657844 0 0.753154
vn -0.741203 0 0.67128
vn -0.780623 0 0.625002
vn -0.769877 0 0.638193
vn 0.707618 0 -0.706595
vn 0.675529 0 -0.737333
vn 0.681145 0 -0.732148
vn 0.712542 0 -0.701629
vn 0.639429 0 -0.76885
vn 0.645689 0 -0.7636
vn -0.950583 0 -0.310471
vn -0.917963 0 -0.396666
vn -0.923645 0 -0.38325
vn -0.955282 0 -0.295696
vn 0.778856 0 -0.627203
vn 0.763757 0 -0.645504
vn 0.768114 0 -0.640313
vn -0.923239 0 0.384227
vn -0.953478 0 0.301462
vn -0.948821 0 0.315814
vn -0.917775 0 0.3971
vn 0.736564 0 -0.676368
vn 0.74121 0 -0.671273
vn -0.886558 0 0.462618
vn -0.879549 0 0.475809
vn -0.880892 0 -0.473318
vn -0.887212 0 -0.461363
vn -0.839519 0 0.543331
vn -0.830681 0 0.556749
vn 0.770186 0 0.637819
vn 0.762315 0 0.647206
vn 0 0 -1
vn -0.841426 0 -0.540373
vn -0.84808 0 -0.529868
vn -0.993475 0 -0.114052
vn -0.976472 0 -0.215643
vn -0.979848 0 -0.199746
vn -0.995246 0 -0.097389
vn -0.978136 0 0.207965
vn -0.974576 0 0.224056
vn 0.788848 0 0.614589
vn -0.994633 0 0.103462
vn -0.992645 0 0.121065
vn -0.998339 0 0.05762
vn -0.998578 0 -0.053303
vn -0.486256 0 -0.873816
vn -0.528792 0 -0.848752
vn -0.521893 0 -0.853011
vn -0.478957 0 -0.877838
vn -0.538838 0 0.842409
vn -0.47028 0 0.882517
vn -0.48235 0 0.875978
vn -0.550124 0 0.835083
vn -0.394137 0 -0.919052
vn -0.441289 0 -0.897365
vn -0.433626 0 -0.901093
vn -0.386159 0 -0.922432
vn -0.397837 0 0.917456
vn -0.410493 0 0.911864
vn -0.366947 0 0.930242
vn -0.365864 0 -0.930668
# 156 normals
usemtl Texture_0
f  1/1/1 2/1/1 3/1/1 4/1/1
f  5/1/1 1/1/1 4/1/1
f  6/1/1 7/1/1 8/1/1
f  6/1/1 8/1/1 2/1/1
f  9/1/1 6/1/1 2/1/1
f  1/1/1 9/1/1 2/1/1
f  7/1/1 10/1/1 8/1/1
f  12/1/2 13/1/2 11/1/2 53/1/2
f  14/1/2 15/1/2 16/1/2
f  17/1/2 15/1/2 14/1/2
f  15/1/2 17/1/2 18/1/2
f  19/1/2 20/1/2 21/1/2 22/1/2
f  22/1/2 21/1/2 23/1/2
f  24/1/2 16/1/2 15/1/2
f  20/1/2 19/1/2 25/1/2
f  26/1/2 27/1/2 28/1/2
f  30/1/2 31/1/2 29/1/2 32/1/2
f  30/1/2 32/1/2 33/1/2
f  28/1/2 34/1/2 35/1/2
f  36/1/2 31/1/2 37/1/2
f  27/1/2 34/1/2 28/1/2
f  28/1/2 35/1/2 38/1/2
f  35/1/2 39/1/2 38/1/2
f  23/1/2 37/1/2 22/1/2
f  31/1/2 36/1/2 29/1/2
f  38/1/2 39/1/2 40/1/2
f  24/1/2 15/1/2 38/1/2 40/1/2
f  37/1/2 23/1/2 36/1/2
f  41/1/2 13/1/2 42/1/2
f  11/1/2 13/1/2 41/1/2
f  11/1/2 43/1/2 44/1/2
f  33/1/2 44/1/2 30/1/2
f  13/1/2 45/1/2 42/1/2
f  26/1/2 28/1/2 42/1/2 45/1/2
f  44/1/2 33/1/2 11/1/2
f  46/1/2 47/1/2 48/1/2
f  48/1/2 47/1/2 49/1/2
f  50/1/2 51/1/2 52/1/2
f  51/1/2 46/1/2 52/1/2
f  46/1/2 48/1/2 52/1/2
f  53/1/2 54/1/2 50/1/2
f  12/1/2 55/1/2 56/1/2
f  55/1/2 53/1/2 50/1/2 52/1/2
f  57/1/2 58/1/2 56/1/2 62/1/2
f  59/1/2 60/1/2 61/1/2
f  53/1/2 63/1/2 64/1/2
f  65/1/2 61/1/2 64/1/2 63/1/2
f  56/1/2 58/1/2 12/1/2
f  64/1/2 54/1/2 53/1/2
f  55/1/2 12/1/2 53/1/2
f  66/1/2 67/1/2 68/1/2
f  67/1/2 69/1/2 68/1/2
f  70/1/2 71/1/2 72/1/2
f  72/1/2 71/1/2 73/1/2
f  66/1/2 74/1/2 75/1/2
f  73/1/2 76/1/2 72/1/2
f  66/1/2 68/1/2 74/1/2
f  76/1/2 77/1/2 78/1/2
f  76/1/2 73/1/2 77/1/2
f  75/1/2 60/1/2 59/1/2
f  78/1/2 62/1/2 76/1/2
f  59/1/2 61/1/2 65/1/2
f  75/1/2 74/1/2 60/1/2
f  62/1/2 78/1/2 57/1/2
f  67/1/2 79/1/2 69/1/2
f  80/1/2 69/1/2 79/1/2
f  81/1/2 70/1/2 72/1/2
f  82/1/3 83/1/3 13/1/3 12/1/3
f  84/1/4 85/1/5 24/1/6 40/1/7
f  85/1/5 86/1/8 16/1/9 24/1/6
f  87/1/10 88/1/11 23/1/12 21/1/13
f  89/1/14 84/1/4 40/1/7 39/1/15
f  90/1/16 91/1/17 15/1/18 18/1/16
f  88/1/11 92/1/19 36/1/20 23/1/12
f  86/1/8 93/1/21 14/1/22 16/1/9
f  94/1/23 95/1/24 25/1/24 19/1/25
f  96/1/26 87/1/10 21/1/13 20/1/27
f  93/1/21 97/1/28 17/1/29 14/1/22
f  97/1/28 90/1/30 18/1/30 17/1/29
f  95/1/31 96/1/26 20/1/27 25/1/31
f  98/1/32 99/1/33 26/1/34 45/1/35
f  100/1/36 101/1/37 37/1/38 31/1/39
f  83/1/40 98/1/32 45/1/35 13/1/40
f  102/1/41 4/1/42 11/1/42 33/1/43
f  99/1/33 103/1/44 27/1/45 26/1/34
f  91/1/17 104/1/46 38/1/47 15/1/18
f  105/1/48 102/1/41 33/1/43 32/1/49
f  103/1/44 106/1/50 34/1/51 27/1/45
f  101/1/37 107/1/52 22/1/53 37/1/38
f  108/1/54 105/1/48 32/1/49 29/1/55
f  109/1/56 89/1/14 39/1/15 35/1/57
f  107/1/52 94/1/23 19/1/25 22/1/53
f  106/1/50 109/1/56 35/1/57 34/1/51
f  92/1/19 108/1/54 29/1/55 36/1/20
f  5/1/58 110/1/59 44/1/60 43/1/61
f  110/1/59 111/1/62 30/1/63 44/1/60
f  112/1/64 113/1/65 42/1/66 28/1/67
f  104/1/46 112/1/64 28/1/67 38/1/47
f  111/1/62 100/1/36 31/1/39 30/1/63
f  114/1/68 115/1/69 47/1/70 46/1/71
f  116/1/72 117/1/73 48/1/74 49/1/72
f  115/1/69 116/1/75 49/1/75 47/1/70
f  118/1/76 119/1/77 51/1/78 50/1/79
f  119/1/77 114/1/68 46/1/71 51/1/78
f  117/1/73 120/1/80 52/1/81 48/1/74
f  41/1/2 121/1/2 122/1/2 11/1/2
f  123/1/82 124/1/83 56/1/84 55/1/85
f  125/1/86 126/1/87 54/1/88 64/1/89
f  120/1/80 123/1/82 55/1/85 52/1/81
f  126/1/87 118/1/76 50/1/79 54/1/88
f  11/1/2 122/1/2 43/1/2
f  127/1/90 82/1/91 12/1/91 58/1/92
f  128/1/93 129/1/94 76/1/95 62/1/96
f  130/1/97 131/1/98 63/1/99 53/1/97
f  132/1/100 133/1/101 60/1/102 74/1/103
f  134/1/2 135/1/2 136/1/2
f  133/1/101 137/1/104 61/1/105 60/1/102
f  124/1/83 128/1/93 62/1/96 56/1/84
f  121/1/2 134/1/2 136/1/2
f  121/1/2 136/1/2 138/1/2
f  137/1/104 125/1/86 64/1/89 61/1/105
f  139/1/106 140/1/107 77/1/108 73/1/109
f  121/1/2 138/1/2 122/1/2
f  141/1/110 142/1/111 69/1/112 80/1/110
f  143/1/113 144/1/114 66/1/115 75/1/116
f  142/1/111 145/1/117 68/1/118 69/1/112
f  146/1/119 143/1/113 75/1/116 59/1/120
f  140/1/107 147/1/121 78/1/122 77/1/108
f  145/1/117 132/1/100 74/1/103 68/1/118
f  148/1/123 146/1/119 59/1/120 65/1/124
f  129/1/94 149/1/125 72/1/126 76/1/95
f  53/1/127 11/1/127 4/1/127 130/1/127
f  147/1/121 150/1/128 57/1/129 78/1/122
f  150/1/128 127/1/90 58/1/92 57/1/129
f  131/1/98 148/1/123 65/1/124 63/1/99
f  134/1/2 151/1/2 135/1/2
f  152/1/130 153/1/131 71/1/132 70/1/133
f  144/1/114 154/1/134 67/1/135 66/1/115
f  149/1/125 155/1/136 81/1/136 72/1/126
f  153/1/131 139/1/106 73/1/109 71/1/132
f  154/1/134 156/1/137 79/1/138 67/1/135
f  156/1/137 141/1/139 80/1/139 79/1/138
f  155/1/140 152/1/130 70/1/133 81/1/140
f  9/1/141 1/1/142 122/1/143 138/1/144
f  3/1/145 2/1/146 121/1/147 41/1/148
f  113/1/65 3/1/145 41/1/148 42/1/66
f  1/1/142 5/1/58 43/1/61 122/1/143
f  7/1/149 6/1/150 136/1/151 135/1/152
f  2/1/146 8/1/153 134/1/154 121/1/147
f  6/1/150 9/1/141 138/1/144 136/1/151
f  4/1/1 83/1/1 82/1/1 130/1/1
f  8/1/153 10/1/155 151/1/155 134/1/154
f  10/1/156 7/1/149 135/1/152 151/1/156
f  86/1/1 91/1/1 93/1/1
f  93/1/1 91/1/1 97/1/1
f  90/1/1 97/1/1 91/1/1
f  87/1/1 96/1/1 94/1/1 107/1/1
f  88/1/1 87/1/1 107/1/1
f  91/1/1 86/1/1 85/1/1
f  95/1/1 94/1/1 96/1/1
f  112/1/1 103/1/1 99/1/1
f  108/1/1 100/1/1 111/1/1 105/1/1
f  102/1/1 105/1/1 111/1/1
f  109/1/1 106/1/1 112/1/1
f  101/1/1 100/1/1 92/1/1
f  112/1/1 106/1/1 103/1/1
f  104/1/1 109/1/1 112/1/1
f  104/1/1 89/1/1 109/1/1
f  107/1/1 101/1/1 88/1/1
f  108/1/1 92/1/1 100/1/1
f  84/1/1 89/1/1 104/1/1
f  104/1/1 91/1/1 85/1/1 84/1/1
f  92/1/1 88/1/1 101/1/1
f  113/1/1 83/1/1 3/1/1
f  83/1/1 4/1/1 3/1/1
f  110/1/1 5/1/1 4/1/1
f  111/1/1 110/1/1 102/1/1
f  113/1/1 98/1/1 83/1/1
f  113/1/1 112/1/1 99/1/1 98/1/1
f  4/1/1 102/1/1 110/1/1
f  117/1/1 115/1/1 114/1/1
f  116/1/1 115/1/1 117/1/1
f  120/1/1 119/1/1 118/1/1
f  120/1/1 114/1/1 119/1/1
f  120/1/1 117/1/1 114/1/1
f  118/1/1 126/1/1 130/1/1
f  124/1/1 123/1/1 82/1/1
f  118/1/1 130/1/1 123/1/1 120/1/1
f  124/1/1 127/1/1 150/1/1 128/1/1
f  137/1/1 133/1/1 146/1/1
f  125/1/1 131/1/1 130/1/1
f  125/1/1 137/1/1 148/1/1 131/1/1
f  82/1/1 127/1/1 124/1/1
f  130/1/1 126/1/1 125/1/1
f  130/1/1 82/1/1 123/1/1
f  145/1/1 154/1/1 144/1/1
f  145/1/1 142/1/1 154/1/1
f  149/1/1 153/1/1 152/1/1
f  139/1/1 153/1/1 149/1/1
f  143/1/1 132/1/1 144/1/1
f  149/1/1 129/1/1 139/1/1
f  132/1/1 145/1/1 144/1/1
f  147/1/1 140/1/1 129/1/1
f  140/1/1 139/1/1 129/1/1
f  146/1/1 133/1/1 143/1/1
f  129/1/1 128/1/1 147/1/1
f  148/1/1 137/1/1 146/1/1
f  133/1/1 132/1/1 143/1/1
f  150/1/1 147/1/1 128/1/1
f  142/1/1 156/1/1 154/1/1
f  156/1/1 142/1/1 141/1/1
f  149/1/1 152/1/1 155/1/1
