# 
# Wavefront OBJ file
# Converted by the DEEP Exploration 3.5.10.1242
# Right Hemisphere, LTD
# http://www.righthemisphere.com/
# 
mtllib arrow33.mtl
# object Mesh 
g Mesh_
v -7.21152 3.60578 -0.576922
v -3.60578 2.88462 -0.576922
v -3.60578 0 -0.576922
v -3.60578 4.32691 -0.576922
v -3.60578 7.21155 -0.576922
v 1.44231 4.32691 -0.576922
v -3.60578 -5.76925 -0.576922
v 1.44231 -7.21155 -0.576922
v -3.60578 -7.21155 -0.576922
v 1.44231 -5.76925 -0.576922
v 1.88186 -5.74945 -0.576922
v 2.02814 -7.18514 -0.576922
v 2.30507 -5.6901 -0.576922
v 2.59225 -7.10596 -0.576922
v 2.71195 -5.59118 -0.576922
v 3.13461 -6.97398 -0.576922
v 3.1025 -5.4527 -0.576922
v 4.15413 -6.55166 -0.576922
v 3.65524 -6.78923 -0.576922
v 3.4767 -5.27462 -0.576922
v 4.63125 -6.26132 -0.576922
v 3.83453 -5.05699 -0.576922
v 5.08669 -5.91818 -0.576922
v 4.17604 -4.7998 -0.576922
v 5.52033 -5.52224 -0.576922
v 4.50121 -4.50301 -0.576922
v 4.7984 -4.17822 -0.576922
v 5.91673 -5.08895 -0.576922
v 5.05598 -3.83691 -0.576922
v 6.26024 -4.63371 -0.576922
v 5.2739 -3.47905 -0.576922
v 6.5509 -4.15651 -0.576922
v 5.45223 -3.10474 -0.576922
v 6.97372 -3.13623 -0.576922
v 6.78874 -3.65733 -0.576922
v 7.10584 -2.59316 -0.576922
v 5.59092 -2.71389 -0.576922
v 7.18511 -2.02815 -0.576922
v 5.68998 -2.30653 -0.576922
v 7.21152 -1.44117 -0.576922
v 5.74942 -1.88269 -0.576922
v 5.76922 -1.44232 -0.576922
v 5.74942 -1.00278 -0.576922
v 7.18523 -0.855598 -0.576922
v 5.68998 -0.579584 -0.576922
v 7.10631 -0.291735 -0.576922
v 5.59092 -0.172724 -0.576922
v 6.97479 0.25044 -0.576922
v 6.79066 0.770897 -0.576922
v 5.45223 0.21779 -0.576922
v 6.55389 1.26965 -0.576922
v 5.2739 0.591986 -0.576922
v 6.26454 1.74672 -0.576922
v 5.92256 2.20206 -0.576922
v 5.05598 0.949835 -0.576922
v 5.52799 2.63572 -0.576922
v 4.7984 1.29135 -0.576922
v 4.50121 1.61654 -0.576922
v 4.17604 1.91375 -0.576922
v 5.09589 3.03212 -0.576922
v 3.83453 2.17132 -0.576922
v 4.64129 3.3756 -0.576922
v 3.66478 3.90413 -0.576922
v 4.16429 3.66629 -0.576922
v 3.4767 2.38927 -0.576922
v 3.14285 4.08911 -0.576922
v 3.1025 2.5676 -0.576922
v 2.59846 4.2212 -0.576922
v 2.71195 2.70629 -0.576922
v 2.03162 4.3005 -0.576922
v 2.30507 2.80536 -0.576922
v 1.88186 2.86479 -0.576922
v 1.44231 2.88462 -0.576922
v -3.60578 0 0.576922
v -3.60578 2.88462 0.576922
v -7.21152 3.60578 0.576922
v -3.60578 4.32691 0.576922
v -3.60578 7.21155 0.576922
v 1.44231 4.32691 0.576922
v -3.60578 -7.21155 0.576922
v 1.44231 -7.21155 0.576922
v -3.60578 -5.76925 0.576922
v 1.44231 -5.76925 0.576922
v 2.02814 -7.18514 0.576922
v 1.88186 -5.74945 0.576922
v 2.59225 -7.10596 0.576922
v 2.30507 -5.6901 0.576922
v 3.13461 -6.97398 0.576922
v 2.71195 -5.59118 0.576922
v 3.65524 -6.78923 0.576922
v 4.15413 -6.55166 0.576922
v 3.1025 -5.4527 0.576922
v 4.63125 -6.26132 0.576922
v 3.4767 -5.27462 0.576922
v 5.08669 -5.91818 0.576922
v 3.83453 -5.05699 0.576922
v 5.52033 -5.52224 0.576922
v 4.17604 -4.7998 0.576922
v 4.50121 -4.50301 0.576922
v 5.91673 -5.08895 0.576922
v 4.7984 -4.17822 0.576922
v 6.26024 -4.63371 0.576922
v 5.05598 -3.83691 0.576922
v 6.5509 -4.15651 0.576922
v 5.2739 -3.47905 0.576922
v 6.78874 -3.65733 0.576922
v 6.97372 -3.13623 0.576922
v 5.45223 -3.10474 0.576922
v 5.59092 -2.71389 0.576922
v 7.10584 -2.59316 0.576922
v 5.68998 -2.30653 0.576922
v 7.18511 -2.02815 0.576922
v 5.74942 -1.88269 0.576922
v 7.21152 -1.44117 0.576922
v 5.76922 -1.44232 0.576922
v 7.18523 -0.855598 0.576922
v 5.74942 -1.00278 0.576922
v 7.10631 -0.291735 0.576922
v 5.68998 -0.579584 0.576922
v 6.97479 0.25044 0.576922
v 5.59092 -0.172724 0.576922
v 6.55389 1.26965 0.576922
v 5.45223 0.21779 0.576922
v 6.79066 0.770897 0.576922
v 6.26454 1.74672 0.576922
v 5.2739 0.591986 0.576922
v 5.05598 0.949835 0.576922
v 5.92256 2.20206 0.576922
v 4.7984 1.29135 0.576922
v 5.52799 2.63572 0.576922
v 4.50121 1.61654 0.576922
v 5.09589 3.03212 0.576922
v 4.17604 1.91375 0.576922
v 4.64129 3.3756 0.576922
v 3.83453 2.17132 0.576922
v 3.4767 2.38927 0.576922
v 4.16429 3.66629 0.576922
v 3.66478 3.90413 0.576922
v 3.1025 2.5676 0.576922
v 3.14285 4.08911 0.576922
v 2.71195 2.70629 0.576922
v 2.59846 4.2212 0.576922
v 2.30507 2.80536 0.576922
v 2.03162 4.3005 0.576922
v 1.88186 2.86479 0.576922
v 1.44231 2.88462 0.576922
# 146 verticies
vt 0 0
# 1 texture verticies
vn 0 0 -1
vn 0 0 1
vn 1 0 0
vn -0.70711 -0.707104 0
vn -0.70711 0.707104 0
vn 0 1 0
vn 0.044776 0.998997 0
vn 0.138543 0.990356 0
vn 0.235807 0.9718 0
vn 0.334051 0.942555 0
vn 0.429901 0.902876 0
vn 0.52039 0.853929 0
vn 0.602849 0.797855 0
vn 0.676004 0.736898 0
vn 0.739653 0.672988 0
vn 0.799607 0.600524 0
vn 0.855019 0.518596 0
vn 0.85502 0.518596 0
vn 0.903381 0.42884 0
vn 0.942736 0.33354 0
vn 0.971818 0.235732 0
vn 0.990347 0.138612 0
vn 0.998993 0.044864 0
vn 0.998989 -0.044954 0
vn 0.990302 -0.138935 0
vn 0.971657 -0.236394 0
vn 0.942385 -0.33453 0
vn 0.902769 -0.430125 0
vn 0.85405 -0.520191 0
vn 0.798237 -0.602343 0
vn 0.737818 -0.674999 0
vn 0.737819 -0.674999 0
vn 0.674273 -0.738482 0
vn 0.601749 -0.798685 0
vn 0.519843 -0.854262 0
vn 0.429944 -0.902856 0
vn 0.334422 -0.942424 0
vn 0.236444 -0.971645 0
vn 0.139003 -0.990292 0
vn 0.045041 -0.998985 0
vn 0 -1 0
vn -1 0 0
vn -0.044989 0.998987 0
vn -0.138896 0.990307 0
vn -0.236236 0.971696 0
vn -0.334186 0.942507 0
vn -0.429703 0.90297 0
vn -0.519643 0.854383 0
vn -0.601584 0.798809 0
vn -0.674132 0.738611 0
vn -0.737761 0.675062 0
vn -0.798213 0.602376 0
vn -0.854094 0.520119 0
vn -0.902778 0.430107 0
vn -0.942431 0.334401 0
vn -0.97168 0.236299 0
vn -0.990308 0.138891 0
vn -0.998991 0.044906 0
vn -0.998987 -0.044991 0
vn -0.990278 -0.139101 0
vn -0.971614 -0.236572 0
vn -0.942341 -0.334655 0
vn -0.902726 -0.430216 0
vn -0.85409 -0.520125 0
vn -0.79839 -0.602141 0
vn -0.738167 -0.674619 0
vn -0.738167 -0.674618 0
vn -0.674653 -0.738135 0
vn -0.602148 -0.798385 0
vn -0.520199 -0.854045 0
vn -0.430205 -0.902731 0
vn -0.33464 -0.942346 0
vn -0.23657 -0.971614 0
vn -0.139076 -0.990282 0
vn -0.045055 -0.998985 0
# 75 normals
usemtl mat__ACI__7
f  1/1/1 2/1/1 3/1/1
f  4/1/1 2/1/1 1/1/1
f  5/1/1 4/1/1 1/1/1
f  2/1/1 4/1/1 6/1/1 73/1/1
f  8/1/1 9/1/1 7/1/1 10/1/1
f  11/1/1 12/1/1 8/1/1 10/1/1
f  13/1/1 14/1/1 12/1/1 11/1/1
f  15/1/1 16/1/1 14/1/1 13/1/1
f  18/1/1 19/1/1 17/1/1 20/1/1
f  17/1/1 19/1/1 16/1/1 15/1/1
f  21/1/1 18/1/1 20/1/1 22/1/1
f  23/1/1 21/1/1 22/1/1 24/1/1
f  25/1/1 23/1/1 24/1/1 26/1/1
f  27/1/1 28/1/1 25/1/1 26/1/1
f  29/1/1 30/1/1 28/1/1 27/1/1
f  31/1/1 32/1/1 30/1/1 29/1/1
f  34/1/1 35/1/1 33/1/1 37/1/1
f  33/1/1 35/1/1 32/1/1 31/1/1
f  36/1/1 34/1/1 37/1/1 39/1/1
f  38/1/1 36/1/1 39/1/1 41/1/1
f  40/1/1 38/1/1 41/1/1 42/1/1
f  43/1/1 44/1/1 40/1/1 42/1/1
f  45/1/1 46/1/1 44/1/1 43/1/1
f  47/1/1 48/1/1 46/1/1 45/1/1
f  51/1/1 49/1/1 50/1/1 52/1/1
f  50/1/1 49/1/1 48/1/1 47/1/1
f  53/1/1 51/1/1 52/1/1 55/1/1
f  54/1/1 53/1/1 55/1/1 57/1/1
f  56/1/1 54/1/1 57/1/1 58/1/1
f  59/1/1 60/1/1 56/1/1 58/1/1
f  61/1/1 62/1/1 60/1/1 59/1/1
f  63/1/1 64/1/1 65/1/1 67/1/1
f  65/1/1 64/1/1 62/1/1 61/1/1
f  66/1/1 63/1/1 67/1/1 69/1/1
f  68/1/1 66/1/1 69/1/1 71/1/1
f  70/1/1 68/1/1 71/1/1 72/1/1
f  6/1/1 70/1/1 72/1/1 73/1/1
f  74/1/2 75/1/2 76/1/2
f  76/1/2 75/1/2 77/1/2
f  76/1/2 77/1/2 78/1/2
f  79/1/2 77/1/2 75/1/2 146/1/2
f  82/1/2 80/1/2 81/1/2 83/1/2
f  81/1/2 84/1/2 85/1/2 83/1/2
f  84/1/2 86/1/2 87/1/2 85/1/2
f  86/1/2 88/1/2 89/1/2 87/1/2
f  92/1/2 90/1/2 91/1/2 94/1/2
f  88/1/2 90/1/2 92/1/2 89/1/2
f  94/1/2 91/1/2 93/1/2 96/1/2
f  96/1/2 93/1/2 95/1/2 98/1/2
f  98/1/2 95/1/2 97/1/2 99/1/2
f  97/1/2 100/1/2 101/1/2 99/1/2
f  100/1/2 102/1/2 103/1/2 101/1/2
f  102/1/2 104/1/2 105/1/2 103/1/2
f  108/1/2 106/1/2 107/1/2 109/1/2
f  104/1/2 106/1/2 108/1/2 105/1/2
f  109/1/2 107/1/2 110/1/2 111/1/2
f  111/1/2 110/1/2 112/1/2 113/1/2
f  113/1/2 112/1/2 114/1/2 115/1/2
f  114/1/2 116/1/2 117/1/2 115/1/2
f  116/1/2 118/1/2 119/1/2 117/1/2
f  118/1/2 120/1/2 121/1/2 119/1/2
f  123/1/2 124/1/2 122/1/2 126/1/2
f  120/1/2 124/1/2 123/1/2 121/1/2
f  126/1/2 122/1/2 125/1/2 127/1/2
f  127/1/2 125/1/2 128/1/2 129/1/2
f  129/1/2 128/1/2 130/1/2 131/1/2
f  130/1/2 132/1/2 133/1/2 131/1/2
f  132/1/2 134/1/2 135/1/2 133/1/2
f  136/1/2 137/1/2 138/1/2 139/1/2
f  134/1/2 137/1/2 136/1/2 135/1/2
f  139/1/2 138/1/2 140/1/2 141/1/2
f  141/1/2 140/1/2 142/1/2 143/1/2
f  143/1/2 142/1/2 144/1/2 145/1/2
f  145/1/2 144/1/2 79/1/2 146/1/2
f  75/1/3 74/1/3 3/1/3 2/1/3
f  74/1/4 76/1/4 1/1/4 3/1/4
f  76/1/5 78/1/5 5/1/5 1/1/5
f  78/1/3 77/1/3 4/1/3 5/1/3
f  77/1/6 79/1/6 6/1/6 4/1/6
f  79/1/7 144/1/7 70/1/7 6/1/7
f  144/1/8 142/1/8 68/1/8 70/1/8
f  142/1/9 140/1/9 66/1/9 68/1/9
f  140/1/10 138/1/10 63/1/10 66/1/10
f  138/1/11 137/1/11 64/1/11 63/1/11
f  137/1/12 134/1/12 62/1/12 64/1/12
f  134/1/13 132/1/13 60/1/13 62/1/13
f  132/1/14 130/1/14 56/1/14 60/1/14
f  130/1/15 128/1/15 54/1/15 56/1/15
f  128/1/16 125/1/16 53/1/16 54/1/16
f  125/1/17 122/1/18 51/1/18 53/1/18
f  122/1/19 124/1/19 49/1/19 51/1/19
f  124/1/20 120/1/20 48/1/20 49/1/20
f  120/1/21 118/1/21 46/1/21 48/1/21
f  118/1/22 116/1/22 44/1/22 46/1/22
f  116/1/23 114/1/23 40/1/23 44/1/23
f  114/1/24 112/1/24 38/1/24 40/1/24
f  112/1/25 110/1/25 36/1/25 38/1/25
f  110/1/26 107/1/26 34/1/26 36/1/26
f  107/1/27 106/1/27 35/1/27 34/1/27
f  106/1/28 104/1/28 32/1/28 35/1/28
f  104/1/29 102/1/29 30/1/29 32/1/29
f  102/1/30 100/1/30 28/1/30 30/1/30
f  100/1/31 97/1/31 25/1/32 28/1/31
f  97/1/33 95/1/33 23/1/33 25/1/33
f  95/1/34 93/1/34 21/1/34 23/1/34
f  93/1/35 91/1/35 18/1/35 21/1/35
f  91/1/36 90/1/36 19/1/36 18/1/36
f  90/1/37 88/1/37 16/1/37 19/1/37
f  88/1/38 86/1/38 14/1/38 16/1/38
f  86/1/39 84/1/39 12/1/39 14/1/39
f  84/1/40 81/1/40 8/1/40 12/1/40
f  81/1/41 80/1/41 9/1/41 8/1/41
f  80/1/42 82/1/42 7/1/42 9/1/42
f  82/1/6 83/1/6 10/1/6 7/1/6
f  83/1/43 85/1/43 11/1/43 10/1/43
f  85/1/44 87/1/44 13/1/44 11/1/44
f  87/1/45 89/1/45 15/1/45 13/1/45
f  89/1/46 92/1/46 17/1/46 15/1/46
f  92/1/47 94/1/47 20/1/47 17/1/47
f  94/1/48 96/1/48 22/1/48 20/1/48
f  96/1/49 98/1/49 24/1/49 22/1/49
f  98/1/50 99/1/50 26/1/50 24/1/50
f  99/1/51 101/1/51 27/1/51 26/1/51
f  101/1/52 103/1/52 29/1/52 27/1/52
f  103/1/53 105/1/53 31/1/53 29/1/53
f  105/1/54 108/1/54 33/1/54 31/1/54
f  108/1/55 109/1/55 37/1/55 33/1/55
f  109/1/56 111/1/56 39/1/56 37/1/56
f  111/1/57 113/1/57 41/1/57 39/1/57
f  113/1/58 115/1/58 42/1/58 41/1/58
f  115/1/59 117/1/59 43/1/59 42/1/59
f  117/1/60 119/1/60 45/1/60 43/1/60
f  119/1/61 121/1/61 47/1/61 45/1/61
f  121/1/62 123/1/62 50/1/62 47/1/62
f  123/1/63 126/1/63 52/1/63 50/1/63
f  126/1/64 127/1/64 55/1/64 52/1/64
f  127/1/65 129/1/65 57/1/65 55/1/65
f  129/1/66 131/1/67 58/1/67 57/1/67
f  131/1/68 133/1/68 59/1/68 58/1/68
f  133/1/69 135/1/69 61/1/69 59/1/69
f  135/1/70 136/1/70 65/1/70 61/1/70
f  136/1/71 139/1/71 67/1/71 65/1/71
f  139/1/72 141/1/72 69/1/72 67/1/72
f  141/1/73 143/1/73 71/1/73 69/1/73
f  143/1/74 145/1/74 72/1/74 71/1/74
f  145/1/75 146/1/75 73/1/75 72/1/75
f  146/1/41 75/1/41 2/1/41 73/1/41
