# 
# Wavefront OBJ file
# Converted by the DEEP Exploration 3.5.10.1242
# Right Hemisphere, LTD
# http://www.righthemisphere.com/
# 
mtllib arrow53.mtl
# object Mesh 
g Mesh_
v 1.40322 -1.40409 -0.0103455
v 4.1302 -1.40409 9.46571
v -1.31097 -1.40409 9.46571
v -1.31097 -1.40409 -9.46571
v 4.1302 -1.40409 -9.46571
v 1.40322 1.40409 -0.0103455
v 4.1302 1.40409 9.46571
v -1.31097 1.40409 9.46571
v -4.1302 1.40409 -0.0103455
v -1.31097 1.40409 -9.46571
v 4.1302 1.40409 -9.46571
v -4.1302 -1.40409 -0.0103455
# 12 verticies
vt 0 0
# 1 texture verticies
vn 0 -1 0
vn 0.960999 0 -0.276553
vn 0 1 0
vn 0 0 1
vn 0.960838 0 0.277112
vn 0 0 -1
vn -0.95831 0 -0.285732
vn -0.95848 0 0.285159
# 8 normals
usemtl Texture_0
f  1/1/1 2/1/1 3/1/1
f  4/1/1 5/1/1 1/1/1
f  6/1/2 7/1/2 2/1/2 1/1/2
f  8/1/3 6/1/3 9/1/3
f  9/1/3 6/1/3 10/1/3
f  3/1/4 2/1/4 7/1/4 8/1/4
f  11/1/5 6/1/5 1/1/5 5/1/5
f  10/1/6 11/1/6 5/1/6 4/1/6
f  12/1/1 1/1/1 3/1/1
f  1/1/1 12/1/1 4/1/1
f  8/1/3 7/1/3 6/1/3
f  6/1/3 11/1/3 10/1/3
f  4/1/7 12/1/7 9/1/7 10/1/7
f  12/1/8 3/1/8 8/1/8 9/1/8
