#Wavefront OBJ file created by Hexagon 2 
mtllib arrow13.mtl
g Mesh_
usemtl mat__ACI__7
# 222 
v -7.83142 -2.89621 -0.415772 
v -7.83142 -2.89621 0.415772 
v -7.81388 -3.29044 -0.415772 
v -7.81388 -3.29044 0.415772 
v -7.81388 -2.50173 -0.415772 
v -7.81388 -2.50173 0.415772 
v -7.76135 -3.66948 -0.415772 
v -7.76135 -3.66948 0.415772 
v -7.76135 -2.12195 -0.415772 
v -7.76135 -2.12195 0.415772 
v -7.67383 -4.0333 -0.415772 
v -7.67383 -4.0333 0.415772 
v -7.67378 -1.7569 -0.415772 
v -7.67378 -1.7569 0.415772 
v -7.55125 -4.3819 -0.415772 
v -7.55125 -4.3819 0.415772 
v -7.55117 -1.40657 -0.415772 
v -7.55117 -1.40657 0.415772 
v -7.39367 -4.71533 -0.415772 
v -7.39367 -4.71533 0.415772 
v -7.39353 -1.07096 -0.415772 
v -7.39353 -1.07096 0.415772 
v -7.20105 -5.03352 -0.415772 
v -7.20105 -5.03352 0.415772 
v -7.20089 -0.750048 -0.415772 
v -7.20089 -0.750048 0.415772 
v -6.97342 -5.33651 -0.415772 
v -6.97342 -5.33651 0.415772 
v -6.97318 -0.443871 -0.415772 
v -6.97318 -0.443871 0.415772 
v -6.71079 -5.62428 -0.415772 
v -6.71079 -5.62428 0.415772 
v -6.71047 -0.152397 -0.415772 
v -6.71047 -0.152397 0.415772 
v -6.42114 -5.88876 -0.415772 
v -6.42114 -5.88876 0.415772 
v -6.42079 0.110898 -0.415772 
v -6.42079 0.110898 0.415772 
v -6.11655 -6.11799 -0.415772 
v -6.11655 -6.11799 0.415772 
v -6.11614 0.339084 -0.415772 
v -6.11614 0.339084 0.415772 
v -5.90447 -2.89808 -0.415772 
v -5.90447 -2.89808 0.415772 
v -5.89577 -3.09499 -0.415772 
v -5.89577 -3.09499 0.415772 
v -5.89577 -2.70251 -0.415772 
v -5.89577 -2.70251 0.415772 
v -5.86974 -3.2844 -0.415772 
v -5.86974 -3.2844 0.415772 
v -5.86974 -2.51364 -0.415772 
v -5.86974 -2.51364 0.415772 
v -5.82636 -3.46631 -0.415772 
v -5.82636 -3.46631 0.415772 
v -5.82636 -2.33148 -0.415772 
v -5.82636 -2.33148 0.415772 
v -5.797 -6.31197 -0.415772 
v -5.797 -6.31197 0.415772 
v -5.79654 0.532156 -0.415772 
v -5.79654 0.532156 0.415772 
v -5.76561 -3.64072 -0.415772 
v -5.76561 -3.64072 0.415772 
v -5.76561 -2.15602 -0.415772 
v -5.76561 -2.15602 0.415772 
v -5.6875 -3.8076 -0.415772 
v -5.6875 -3.8076 0.415772 
v -5.6875 -1.98727 -0.415772 
v -5.6875 -1.98727 0.415772 
v -5.59205 -3.96701 -0.415772 
v -5.59205 -3.96701 0.415772 
v -5.59205 -1.82524 -0.415772 
v -5.59205 -1.82524 0.415772 
v -5.47925 -4.11891 -0.415772 
v -5.47925 -4.11891 0.415772 
v -5.47925 -1.66991 -0.415772 
v -5.47925 -1.66991 0.415772 
v -5.46248 -6.47067 -0.415772 
v -5.46248 -6.47067 0.415772 
v -5.46197 0.69013 -0.415772 
v -5.46197 0.69013 0.415772 
v -5.34907 -4.26331 -0.415772 
v -5.34907 -4.26331 0.415772 
v -5.34907 -1.52128 -0.415772 
v -5.34907 -1.52128 0.415772 
v -5.20379 -4.39513 -0.415772 
v -5.20379 -4.39513 0.415772 
v -5.20031 -1.38879 -0.415772 
v -5.20031 -1.38879 0.415772 
v -5.11302 -6.59411 -0.415772 
v -5.11302 -6.59411 0.415772 
v -5.11242 0.813001 -0.415772 
v -5.11242 0.813001 0.415772 
v -5.05091 -4.50942 -0.415772 
v -5.05091 -4.50942 0.415772 
v -5.04499 -1.27396 -0.415772 
v -5.04499 -1.27396 0.415772 
v -4.89047 -4.6061 -0.415772 
v -4.89047 -4.6061 0.415772 
v -4.88305 -1.1768 -0.415772 
v -4.88305 -1.1768 0.415772 
v -4.74857 -6.68228 -0.415772 
v -4.74857 -6.68228 0.415772 
v -4.74792 0.900762 -0.415772 
v -4.74792 0.900762 0.415772 
v -4.72248 -4.68522 -0.415772 
v -4.72248 -4.68522 0.415772 
v -4.71457 -1.0973 -0.415772 
v -4.71457 -1.0973 0.415772 
v -4.5469 -4.74675 -0.415772 
v -4.5469 -4.74675 0.415772 
v -4.53948 -1.03547 -0.415772 
v -4.53948 -1.03547 0.415772 
v -4.36918 -6.73517 -0.415772 
v -4.36918 -6.73517 0.415772 
v -4.36844 0.953424 -0.415772 
v -4.36844 0.953424 0.415772 
v -4.3638 -4.7907 -0.415772 
v -4.3638 -4.7907 0.415772 
v -4.35784 -0.991303 -0.415772 
v -4.35784 -0.991303 0.415772 
v -4.17308 -4.81706 -0.415772 
v -4.17308 -4.81706 0.415772 
v -4.16963 -0.964803 -0.415772 
v -4.16963 -0.964803 0.415772 
v -3.97481 -6.75281 -0.415772 
v -3.97481 -6.75281 0.415772 
v -3.97481 -4.82584 -0.415772 
v -3.97481 -4.82584 0.415772 
v -3.97481 -0.955973 -0.415772 
v -3.97481 -0.955973 0.415772 
v -3.97399 0.970973 -0.415772 
v -3.97399 0.970973 0.415772 
v -3.77817 -4.81706 -0.415772 
v -3.77817 -4.81706 0.415772 
v -3.58835 -4.7907 -0.415772 
v -3.58835 -4.7907 0.415772 
v -3.58207 -6.73512 -0.415772 
v -3.58207 -6.73512 0.415772 
v -3.40535 -4.74675 -0.415772 
v -3.40535 -4.74675 0.415772 
v -3.22918 -4.68522 -0.415772 
v -3.22918 -4.68522 0.415772 
v -3.20352 -6.68209 -0.415772 
v -3.20352 -6.68209 0.415772 
v -3.05982 -4.6061 -0.415772 
v -3.05982 -4.6061 0.415772 
v -2.89729 -4.50942 -0.415772 
v -2.89729 -4.50942 0.415772 
v -2.83921 -6.59371 -0.415772 
v -2.83921 -6.59371 0.415772 
v -2.74158 -4.39513 -0.415772 
v -2.74158 -4.39513 0.415772 
v -2.59271 -4.26331 -0.415772 
v -2.59271 -4.26331 0.415772 
v -2.48913 -6.46993 -0.415772 
v -2.48913 -6.46993 0.415772 
v -2.4619 -4.11891 -0.415772 
v -2.4619 -4.11891 0.415772 
v -2.34853 -3.96701 -0.415772 
v -2.34853 -3.96701 0.415772 
v -2.2526 -3.8076 -0.415772 
v -2.2526 -3.8076 0.415772 
v -2.17411 -3.64072 -0.415772 
v -2.17411 -3.64072 0.415772 
v -2.15326 -6.31083 -0.415772 
v -2.15326 -6.31083 0.415772 
v -2.11306 -3.46631 -0.415772 
v -2.11306 -3.46631 0.415772 
v -2.06946 -3.2844 -0.415772 
v -2.06946 -3.2844 0.415772 
v -2.04329 -3.09499 -0.415772 
v -2.04329 -3.09499 0.415772 
v -2.03458 -2.89808 -0.415772 
v -2.03458 -2.89808 0.415772 
v -2.03458 -0.955973 -0.415772 
v -2.03458 -0.955973 0.415772 
v -2.03458 0.970973 -0.415772 
v -2.03458 0.970973 0.415772 
v -2.03458 6.75281 -0.415772 
v -2.03458 6.75281 0.415772 
v -1.83162 -6.11633 -0.415772 
v -1.83162 -6.11633 0.415772 
v -1.52419 -5.88651 -0.415772 
v -1.52419 -5.88651 0.415772 
v -1.231 -5.62132 -0.415772 
v -1.231 -5.62132 0.415772 
v -0.962923 -5.33107 -0.415772 
v -0.962923 -5.33107 0.415772 
v -0.732156 -5.02705 -0.415772 
v -0.732156 -5.02705 0.415772 
v -0.538706 -4.70927 -0.415772 
v -0.538706 -4.70927 0.415772 
v -0.38257 -4.37768 -0.415772 
v -0.38257 -4.37768 0.415772 
v -0.262288 -4.03129 -0.415772 
v -0.262288 -4.03129 0.415772 
v -0.176362 -3.6691 -0.415772 
v -0.176362 -3.6691 0.415772 
v -0.124813 -3.29109 -0.415772 
v -0.124813 -3.29109 0.415772 
v -0.10763 -2.89727 -0.415772 
v -0.10763 -2.89727 0.415772 
v -0.10763 -0.955973 -0.415772 
v -0.10763 -0.955973 0.415772 
v -0.10763 0.970973 -0.415772 
v -0.10763 0.970973 0.415772 
v -0.10763 6.75281 -0.415772 
v -0.10763 6.75281 0.415772 
v 1.70902 3.85952 -0.415772 
v 1.70902 3.85952 0.415772 
v 1.89571 -3.84745 -0.415772 
v 1.89571 -3.84745 0.415772 
v 3.82951 3.85952 -0.415772 
v 3.82951 3.85952 0.415772 
v 4.27098 -3.84745 -0.415772 
v 4.27098 -3.84745 0.415772 
v 4.59463 -0.955973 -0.415772 
v 4.59463 -0.955973 0.415772 
v 4.59463 0.970973 -0.415772 
v 4.59463 0.970973 0.415772 
v 7.83142 0.00432777 -0.415772 
v 7.83142 0.00432777 0.415772 
# 110 
vn -1 -1.42857e-005 2.43727e-009 
vn -1 -9.54053e-009 0 
vn -0.999756 0.0221001 2.15427e-009 
vn -0.995885 0.0906256 4.59827e-009 
vn -0.995868 0.0908139 -1.04841e-009 
vn -0.995855 -0.0909602 -5.42141e-010 
vn -0.982702 0.185194 1.5469e-008 
vn -0.98267 0.185362 -1.08427e-008 
vn -0.982587 -0.185805 -9.9459e-009 
vn -0.959387 0.282093 -4.08461e-009 
vn -0.959366 0.282164 3.99922e-009 
vn -0.959068 -0.283175 -1.45283e-008 
vn -0.925708 0.378239 -5.01716e-010 
vn -0.925602 0.378498 -5.46841e-008 
vn -0.924981 -0.380013 -1.04652e-008 
vn -0.88239 0.470519 -1.69543e-008 
vn -0.882011 0.471229 -7.48861e-008 
vn -0.880954 -0.473201 3.05854e-008 
vn -0.830912 0.556403 -1.36081e-008 
vn -0.830136 0.55756 -6.73675e-008 
vn -0.828521 -0.559958 -4.57386e-009 
vn -0.773466 0.633838 -4.97625e-009 
vn -0.772131 0.635463 -5.3658e-008 
vn -0.769948 -0.638106 3.30009e-008 
vn -0.731029 0.682346 -4.35243e-008 
vn -0.708583 0.705628 3.84865e-009 
vn -0.707466 -0.706747 -6.50464e-008 
vn -0.707196 -0.707017 9.43189e-008 
vn -0.703091 0.7111 -8.17875e-009 
vn -0.638525 -0.769601 -6.20601e-008 
vn -0.636763 0.771059 2.95742e-009 
vn -0.627979 0.77823 -3.34503e-008 
vn -0.560813 -0.827942 -1.60581e-009 
vn -0.558975 0.829184 -5.47592e-009 
vn -0.552115 0.833768 -4.29332e-008 
vn -0.474393 -0.880313 5.41075e-009 
vn -0.472641 0.881255 -7.05491e-009 
vn -0.467826 0.88382 1.71826e-008 
vn -0.381352 -0.92443 -2.48161e-007 
vn -0.379799 0.925069 2.54985e-008 
vn -0.376977 0.926223 -6.13249e-008 
vn -0.284474 -0.958684 -2.21968e-007 
vn -0.283218 0.959056 2.46949e-008 
vn -0.281983 0.959419 -4.27251e-008 
vn -0.186836 -0.982391 -3.3345e-008 
vn -0.185994 0.982551 1.19434e-008 
vn -0.185758 0.982596 3.46574e-008 
vn -0.0914794 -0.995807 1.84916e-007 
vn -0.0911765 0.995835 -6.66657e-008 
vn -0.0910507 0.995846 2.17391e-008 
vn -0.0222285 0.999753 2.61584e-008 
vn -0.00018321 1 -1.59052e-008 
vn 0 -1 1.13276e-007 
vn -3.97384e-009 0 -1 
vn -8.84348e-011 0 1 
vn 0 1 3.17588e-008 
vn 0.000156288 -1 1.96841e-007 
vn 0.0226444 -0.999744 5.09186e-009 
vn 0.0906738 0.995881 1.37241e-007 
vn 0.0919669 -0.995762 7.57026e-008 
vn 0.0924545 -0.995717 2.69003e-008 
vn 0.185381 0.982667 5.27673e-008 
vn 0.187474 -0.98227 1.36503e-007 
vn 0.188077 -0.982154 1.4195e-008 
vn 0.282425 0.959289 -2.72559e-008 
vn 0.284924 -0.95855 -1.55122e-008 
vn 0.28499 -0.958531 2.7767e-008 
vn 0.374042 0.927412 -2.7533e-008 
vn 0.378906 0.925435 -1.64918e-008 
vn 0.380351 -0.924842 3.32406e-009 
vn 0.381224 -0.924483 -2.9232e-007 
vn 0.400756 -0.916185 5.32266e-008 
vn 0.471195 -0.882029 -1.31569e-009 
vn 0.471722 0.881747 4.47109e-008 
vn 0.473386 -0.880855 -1.65357e-007 
vn 0.555125 -0.831767 1.34204e-008 
vn 0.558135 0.82975 5.27879e-008 
vn 0.558773 -0.829321 4.20312e-008 
vn 0.63044 -0.776238 -6.84936e-010 
vn 0.635468 -0.772127 8.51975e-008 
vn 0.636079 0.771624 -7.07802e-008 
vn 0.693782 0.720185 3.13158e-008 
vn 0.703416 -0.710778 5.19243e-008 
vn 0.70824 0.705972 -8.01885e-009 
vn 0.710033 -0.704168 1.76524e-008 
vn 0.734333 -0.67879 -1.57455e-008 
vn 0.766458 -0.642294 -4.7094e-008 
vn 0.773659 0.633602 5.99505e-008 
vn 0.781515 -0.623886 1.17054e-008 
vn 0.826435 -0.563032 1.01287e-008 
vn 0.831424 0.555639 -5.16142e-009 
vn 0.83634 -0.548211 -8.91856e-010 
vn 0.880703 -0.473669 9.08025e-008 
vn 0.88297 0.469429 1.76253e-008 
vn 0.885637 -0.464378 -3.08389e-009 
vn 0.92599 -0.377547 4.64e-008 
vn 0.926244 0.376925 2.01463e-008 
vn 0.927394 -0.374087 -3.05019e-008 
vn 0.959764 0.280808 -3.29055e-008 
vn 0.960061 -0.279791 -2.0119e-008 
vn 0.960068 -0.279767 -2.00987e-008 
vn 0.982868 -0.184313 1.03808e-008 
vn 0.982875 0.184274 -1.51637e-008 
vn 0.983077 -0.183193 -2.89389e-008 
vn 0.995889 -0.0905816 8.7323e-009 
vn 0.99592 0.090239 6.44503e-009 
vn 0.995991 -0.0894489 -1.13796e-008 
vn 0.999762 -0.0218002 -2.02966e-009 
vn 1 -0.000150653 8.61829e-010 
vn 1 -6.35845e-011 0 
usemtl mat__ACI__7
f 199//54 207//54 201//54 
f 205//54 201//54 207//54 
f 201//54 205//54 203//54 
f 219//54 203//54 205//54 
f 203//54 219//54 217//54 
f 221//54 217//54 219//54 
f 217//54 221//54 215//54 
f 219//54 209//54 213//54 
f 219//54 213//54 221//54 
f 169//54 171//54 181//54 
f 173//54 181//54 171//54 
f 181//54 173//54 207//54 
f 175//54 207//54 173//54 
f 207//54 175//54 177//54 
f 131//54 177//54 175//54 
f 131//54 175//54 129//54 
f 131//54 129//54 123//54 
f 131//54 123//54 119//54 
f 131//54 119//54 115//54 
f 119//54 111//54 115//54 
f 107//54 115//54 111//54 
f 115//54 107//54 103//54 
f 99//54 103//54 107//54 
f 103//54 99//54 95//54 
f 91//54 103//54 95//54 
f 91//54 95//54 87//54 
f 91//54 87//54 83//54 
f 91//54 83//54 79//54 
f 79//54 83//54 75//54 
f 79//54 75//54 71//54 
f 79//54 71//54 67//54 
f 79//54 67//54 63//54 
f 79//54 63//54 59//54 
f 59//54 63//54 55//54 
f 59//54 55//54 51//54 
f 59//54 51//54 47//54 
f 59//54 47//54 43//54 
f 59//54 43//54 41//54 
f 161//54 163//54 165//54 
f 167//54 165//54 163//54 
f 165//54 167//54 181//54 
f 169//54 181//54 167//54 
f 151//54 153//54 155//54 
f 157//54 155//54 153//54 
f 155//54 157//54 165//54 
f 159//54 165//54 157//54 
f 165//54 159//54 161//54 
f 149//54 143//54 145//54 
f 149//54 145//54 147//54 
f 149//54 147//54 151//54 
f 149//54 151//54 155//54 
f 133//54 135//54 137//54 
f 139//54 137//54 135//54 
f 137//54 139//54 143//54 
f 141//54 143//54 139//54 
f 143//54 141//54 145//54 
f 125//54 113//54 117//54 
f 125//54 117//54 121//54 
f 125//54 121//54 127//54 
f 125//54 127//54 133//54 
f 125//54 133//54 137//54 
f 93//54 97//54 101//54 
f 105//54 101//54 97//54 
f 101//54 105//54 113//54 
f 109//54 113//54 105//54 
f 113//54 109//54 117//54 
f 89//54 77//54 81//54 
f 89//54 81//54 85//54 
f 89//54 85//54 93//54 
f 89//54 93//54 101//54 
f 77//54 57//54 61//54 
f 77//54 61//54 65//54 
f 77//54 65//54 69//54 
f 77//54 69//54 73//54 
f 77//54 73//54 81//54 
f 57//54 39//54 41//54 
f 57//54 41//54 43//54 
f 57//54 43//54 45//54 
f 57//54 45//54 49//54 
f 57//54 49//54 53//54 
f 57//54 53//54 61//54 
f 41//54 39//54 37//54 
f 35//54 37//54 39//54 
f 37//54 35//54 33//54 
f 31//54 33//54 35//54 
f 33//54 31//54 29//54 
f 27//54 29//54 31//54 
f 29//54 27//54 25//54 
f 23//54 25//54 27//54 
f 25//54 23//54 21//54 
f 19//54 21//54 23//54 
f 21//54 19//54 17//54 
f 15//54 17//54 19//54 
f 17//54 15//54 13//54 
f 11//54 13//54 15//54 
f 13//54 11//54 7//54 
f 1//54 5//54 3//54 
f 9//54 3//54 5//54 
f 3//54 9//54 7//54 
f 13//54 7//54 9//54 
f 207//54 199//54 197//54 
f 207//54 197//54 195//54 
f 207//54 195//54 193//54 
f 207//54 193//54 191//54 
f 207//54 191//54 189//54 
f 207//54 189//54 187//54 
f 207//54 187//54 185//54 
f 207//54 185//54 183//54 
f 207//54 183//54 181//54 
f 207//54 177//54 179//54 
f 217//54 215//54 211//54 
f 206//56 220//56 219//56 205//56 
f 218//53 204//53 203//53 217//53 
f 220//27 210//27 209//27 219//27 
f 210//56 214//68 213//68 209//56 
f 214//68 222//82 221//82 213//68 
f 222//86 216//72 215//72 221//86 
f 216//72 212//53 211//53 215//72 
f 212//25 218//25 217//25 211//25 
f 204//110 202//108 201//108 203//110 
f 174//3 176//2 175//2 173//3 
f 132//51 178//56 177//56 131//51 
f 176//53 130//58 129//58 175//53 
f 116//50 132//51 131//51 115//50 
f 130//58 124//61 123//61 129//58 
f 104//46 116//50 115//50 103//46 
f 124//61 120//64 119//64 123//61 
f 92//43 104//46 103//46 91//43 
f 120//64 112//67 111//67 119//64 
f 80//40 92//43 91//43 79//40 
f 112//67 108//70 107//70 111//67 
f 42//34 60//37 59//37 41//34 
f 100//73 96//76 95//76 99//73 
f 60//37 80//40 79//40 59//37 
f 108//70 100//73 99//73 107//70 
f 38//31 42//34 41//34 37//31 
f 96//76 88//79 87//79 95//76 
f 30//22 34//26 33//26 29//22 
f 84//85 76//89 75//89 83//85 
f 34//26 38//31 37//31 33//26 
f 88//79 84//85 83//85 87//79 
f 26//19 30//22 29//22 25//19 
f 76//89 72//92 71//92 75//89 
f 22//16 26//19 25//19 21//16 
f 72//92 68//95 67//95 71//92 
f 18//13 22//16 21//16 17//13 
f 68//95 64//98 63//98 67//95 
f 14//11 18//13 17//13 13//11 
f 64//98 56//101 55//101 63//98 
f 10//8 14//11 13//11 9//8 
f 56//101 52//102 51//102 55//101 
f 6//5 10//8 9//8 5//5 
f 52//102 48//105 47//105 51//102 
f 2//1 6//5 5//5 1//1 
f 48//105 44//109 43//109 47//105 
f 4//6 2//1 1//1 3//6 
f 44//109 46//106 45//106 43//109 
f 8//9 4//6 3//6 7//9 
f 46//106 50//103 49//103 45//106 
f 12//12 8//9 7//9 11//12 
f 50//103 54//99 53//99 49//103 
f 16//15 12//12 11//12 15//15 
f 54//99 62//97 61//97 53//99 
f 24//21 20//18 19//18 23//21 
f 66//94 70//91 69//91 65//94 
f 20//18 16//15 15//15 19//18 
f 62//97 66//94 65//94 61//97 
f 28//24 24//21 23//21 27//24 
f 70//91 74//88 73//88 69//91 
f 32//28 28//24 27//24 31//28 
f 74//88 82//84 81//84 73//88 
f 36//30 32//28 31//28 35//30 
f 82//84 86//81 85//81 81//84 
f 40//33 36//30 35//30 39//33 
f 86//81 94//77 93//77 85//81 
f 58//36 40//33 39//33 57//36 
f 94//77 98//74 97//74 93//77 
f 90//42 78//39 77//39 89//42 
f 106//69 110//65 109//65 105//69 
f 78//39 58//36 57//36 77//39 
f 98//74 106//69 105//69 97//74 
f 102//45 90//42 89//42 101//45 
f 110//65 118//62 117//62 109//65 
f 114//48 102//45 101//45 113//48 
f 118//62 122//59 121//59 117//62 
f 126//57 114//48 113//48 125//57 
f 122//59 128//52 127//52 121//59 
f 138//60 126//57 125//57 137//60 
f 128//52 134//49 133//49 127//52 
f 144//63 138//60 137//60 143//63 
f 134//49 136//47 135//47 133//49 
f 150//66 144//63 143//63 149//66 
f 136//47 140//44 139//44 135//47 
f 156//71 150//66 149//66 155//71 
f 140//44 142//41 141//41 139//44 
f 182//78 166//75 165//75 181//78 
f 146//38 148//35 147//35 145//38 
f 166//75 156//71 155//71 165//75 
f 142//41 146//38 145//38 141//41 
f 184//80 182//78 181//78 183//80 
f 148//35 152//32 151//32 147//35 
f 186//83 184//80 183//80 185//83 
f 152//32 154//29 153//29 151//32 
f 188//87 186//83 185//83 187//87 
f 154//29 158//23 157//23 153//29 
f 190//90 188//87 187//87 189//90 
f 158//23 160//20 159//20 157//23 
f 192//93 190//90 189//90 191//93 
f 160//20 162//17 161//17 159//20 
f 196//100 194//96 193//96 195//100 
f 164//14 168//10 167//10 163//14 
f 194//96 192//93 191//93 193//96 
f 162//17 164//14 163//14 161//17 
f 198//104 196//100 195//100 197//104 
f 168//10 170//7 169//7 167//10 
f 200//107 198//104 197//104 199//107 
f 170//7 172//4 171//4 169//7 
f 202//108 200//107 199//107 201//108 
f 172//4 174//3 173//3 171//4 
f 178//2 180//2 179//2 177//2 
f 180//56 208//56 207//56 179//56 
f 208//110 206//110 205//110 207//110 
f 208//55 180//55 182//55 
f 178//55 182//55 180//55 
f 182//55 178//55 176//55 
f 132//55 176//55 178//55 
f 176//55 132//55 130//55 
f 124//55 130//55 132//55 
f 108//55 112//55 116//55 
f 120//55 116//55 112//55 
f 116//55 120//55 132//55 
f 124//55 132//55 120//55 
f 104//55 92//55 96//55 
f 104//55 96//55 100//55 
f 104//55 100//55 108//55 
f 104//55 108//55 116//55 
f 72//55 76//55 80//55 
f 84//55 80//55 76//55 
f 80//55 84//55 92//55 
f 88//55 92//55 84//55 
f 92//55 88//55 96//55 
f 52//55 56//55 60//55 
f 64//55 60//55 56//55 
f 60//55 64//55 80//55 
f 68//55 80//55 64//55 
f 80//55 68//55 72//55 
f 40//55 58//55 42//55 
f 44//55 42//55 58//55 
f 42//55 44//55 60//55 
f 48//55 60//55 44//55 
f 60//55 48//55 52//55 
f 208//55 182//55 184//55 
f 208//55 184//55 186//55 
f 208//55 186//55 188//55 
f 208//55 188//55 190//55 
f 208//55 190//55 192//55 
f 208//55 192//55 194//55 
f 208//55 194//55 196//55 
f 208//55 196//55 198//55 
f 208//55 198//55 200//55 
f 208//55 200//55 202//55 
f 208//55 202//55 204//55 
f 208//55 204//55 206//55 
f 182//55 176//55 174//55 
f 182//55 174//55 172//55 
f 182//55 172//55 170//55 
f 182//55 170//55 168//55 
f 182//55 168//55 166//55 
f 166//55 168//55 164//55 
f 166//55 164//55 162//55 
f 166//55 162//55 160//55 
f 166//55 160//55 158//55 
f 166//55 158//55 156//55 
f 158//55 154//55 156//55 
f 152//55 156//55 154//55 
f 156//55 152//55 150//55 
f 148//55 150//55 152//55 
f 150//55 148//55 146//55 
f 144//55 150//55 146//55 
f 144//55 146//55 142//55 
f 144//55 142//55 140//55 
f 144//55 140//55 138//55 
f 138//55 140//55 136//55 
f 138//55 136//55 134//55 
f 138//55 134//55 128//55 
f 138//55 128//55 126//55 
f 128//55 122//55 126//55 
f 118//55 126//55 122//55 
f 126//55 118//55 114//55 
f 110//55 114//55 118//55 
f 114//55 110//55 106//55 
f 102//55 114//55 106//55 
f 102//55 106//55 98//55 
f 102//55 98//55 94//55 
f 102//55 94//55 90//55 
f 94//55 86//55 90//55 
f 82//55 90//55 86//55 
f 90//55 82//55 78//55 
f 74//55 78//55 82//55 
f 78//55 74//55 70//55 
f 70//55 66//55 78//55 
f 62//55 78//55 66//55 
f 78//55 62//55 58//55 
f 54//55 58//55 62//55 
f 58//55 54//55 50//55 
f 46//55 44//55 58//55 
f 46//55 58//55 50//55 
f 2//55 4//55 6//55 
f 8//55 6//55 4//55 
f 6//55 8//55 10//55 
f 12//55 10//55 8//55 
f 10//55 12//55 14//55 
f 16//55 14//55 12//55 
f 14//55 16//55 18//55 
f 20//55 18//55 16//55 
f 18//55 20//55 22//55 
f 24//55 22//55 20//55 
f 22//55 24//55 26//55 
f 28//55 26//55 24//55 
f 26//55 28//55 30//55 
f 32//55 30//55 28//55 
f 30//55 32//55 34//55 
f 36//55 34//55 32//55 
f 34//55 36//55 38//55 
f 40//55 38//55 36//55 
f 38//55 40//55 42//55 
f 218//55 212//55 216//55 
f 218//55 216//55 222//55 
f 218//55 222//55 220//55 
f 218//55 220//55 206//55 
f 218//55 206//55 204//55 
f 214//55 210//55 220//55 
f 214//55 220//55 222//55 
f 167//54 163//54 161//54 
f 162//55 164//55 168//55 
