# 
# Wavefront OBJ file
# Converted by the DEEP Exploration 3.5.10.1242
# Right Hemisphere, LTD
# http://www.righthemisphere.com/
# 
mtllib arrow22.mtl
# object Mesh 
g Mesh_
v -9.49367 1.00136e-005 -0.759492
v -4.74684 -0.949365 -0.759492
v -4.74684 -4.74684 -0.759492
v -4.74684 0.949385 -0.759492
v -4.74684 4.74684 -0.759492
v 4.74684 0.949385 -0.759492
v 9.49367 1.00136e-005 -0.759492
v 4.74684 4.74684 -0.759492
v 4.74684 -0.949365 -0.759492
v 4.74684 -4.74684 -0.759492
v -4.74684 -4.74684 0.759492
v -4.74684 -0.949365 0.759492
v -9.49367 1.00136e-005 0.759492
v -4.74684 0.949385 0.759492
v -4.74684 4.74684 0.759492
v 4.74684 0.949385 0.759492
v 9.49367 1.00136e-005 0.759492
v 4.74684 4.74684 0.759492
v 4.74684 -0.949365 0.759492
v 4.74684 -4.74684 0.759492
# 20 verticies
vt 0 0
# 1 texture verticies
vn 0 0 -1
vn 0 0 1
vn 1 0 0
vn -0.707107 -0.707106 0
vn -0.707106 0.707107 0
vn 0 1 0
vn -1 0 0
vn 0.707106 0.707107 0
vn 0.707107 -0.707106 0
vn 0 -1 0
# 10 normals
usemtl mat__ACI__7
f  1/1/1 2/1/1 3/1/1
f  4/1/1 2/1/1 1/1/1
f  5/1/1 4/1/1 1/1/1
f  2/1/1 4/1/1 6/1/1 9/1/1
f  7/1/1 6/1/1 8/1/1
f  7/1/1 9/1/1 6/1/1
f  10/1/1 9/1/1 7/1/1
f  11/1/2 12/1/2 13/1/2
f  13/1/2 12/1/2 14/1/2
f  13/1/2 14/1/2 15/1/2
f  16/1/2 14/1/2 12/1/2 19/1/2
f  16/1/2 17/1/2 18/1/2
f  16/1/2 19/1/2 17/1/2
f  17/1/2 19/1/2 20/1/2
f  12/1/3 11/1/3 3/1/3 2/1/3
f  11/1/4 13/1/4 1/1/4 3/1/4
f  13/1/5 15/1/5 5/1/5 1/1/5
f  15/1/3 14/1/3 4/1/3 5/1/3
f  14/1/6 16/1/6 6/1/6 4/1/6
f  16/1/7 18/1/7 8/1/7 6/1/7
f  18/1/8 17/1/8 7/1/8 8/1/8
f  17/1/9 20/1/9 10/1/9 7/1/9
f  20/1/7 19/1/7 9/1/7 10/1/7
f  19/1/10 12/1/10 2/1/10 9/1/10
