# 
# Wavefront OBJ file
# Converted by the DEEP Exploration 3.5.10.1242
# Right Hemisphere, LTD
# http://www.righthemisphere.com/
# 
mtllib arrow30.mtl
# object Mesh 
g Mesh_
v -0.00167 -8.20911 -0.503385
v -6.28751 -1.92039 -0.503385
v -2.09584 -0.172867 -0.503385
v -6.28751 4.0208 -0.503385
v -2.09584 8.20911 -0.503385
v 2.09584 8.20911 -0.503385
v 2.09584 -0.172867 -0.503385
v 6.28751 -1.92039 -0.503385
v 6.28751 4.0208 -0.503385
v -2.09584 -0.172867 0.503385
v -6.28751 -1.92039 0.503385
v -0.00167 -8.20911 0.503385
v -6.28751 4.0208 0.503385
v 2.09584 8.20911 0.503385
v -2.09584 8.20911 0.503385
v 2.09584 -0.172867 0.503385
v 6.28751 -1.92039 0.503385
v 6.28751 4.0208 0.503385
# 18 verticies
vt 0 0
# 1 texture verticies
vn 0 0 -1
vn 0 0 1
vn -0.707269 -0.706945 0
vn -1 0 0
vn 0.707275 0.706939 0
vn 0 1 0
vn 1 0 0
vn -0.707275 0.706939 0
vn 0.707081 -0.707132 0
# 9 normals
usemtl mat__ACI__7
f  1/1/1 2/1/1 3/1/1
f  4/1/1 3/1/1 2/1/1
f  3/1/1 5/1/1 6/1/1 7/1/1
f  1/1/1 3/1/1 7/1/1
f  7/1/1 8/1/1 1/1/1
f  8/1/1 7/1/1 9/1/1
f  10/1/2 11/1/2 12/1/2
f  11/1/2 10/1/2 13/1/2
f  14/1/2 15/1/2 10/1/2 16/1/2
f  16/1/2 10/1/2 12/1/2
f  12/1/2 17/1/2 16/1/2
f  18/1/2 16/1/2 17/1/2
f  12/1/3 11/1/3 2/1/3 1/1/3
f  11/1/4 13/1/4 4/1/4 2/1/4
f  13/1/5 10/1/5 3/1/5 4/1/5
f  10/1/4 15/1/4 5/1/4 3/1/4
f  15/1/6 14/1/6 6/1/6 5/1/6
f  14/1/7 16/1/7 7/1/7 6/1/7
f  16/1/8 18/1/8 9/1/8 7/1/8
f  18/1/7 17/1/7 8/1/7 9/1/7
f  17/1/9 12/1/9 1/1/9 8/1/9
