# 
# Wavefront OBJ file
# Converted by the DEEP Exploration 3.5.10.1242
# Right Hemisphere, LTD
# http://www.righthemisphere.com/
# 
mtllib arrow61.mtl
# object Mesh 
g Mesh_
v 2.30392 -0.763625 1.33419
v -5.53979 -0.763625 1.33419
v -5.53979 0.763625 1.33419
v -5.53979 -0.763625 -4.35459
v -5.53979 -0.763625 -1.3081
v -5.53979 0.763625 -1.3081
v -5.53979 -0.763625 4.35459
v -5.53979 0.763625 4.35459
v -9.88178 -0.763625 -0.0126
v -5.53979 0.763625 -4.35459
v 8.99636 -0.763625 -2.45666
v 9.22577 -0.763625 -2.14994
v 9.22577 0.763625 -2.14994
v 9.23335 -0.763625 2.15861
v 9.00063 -0.763625 2.47377
v 9.00063 0.763625 2.47377
v 9.5927 -0.763625 1.49222
v 9.4307 -0.763625 1.83142
v 9.4307 0.763625 1.83142
v 9.42081 -0.763625 -1.82906
v 9.58144 -0.763625 -1.49404
v 9.58144 0.763625 -1.49404
v 9.23335 0.763625 2.15861
v 9.42081 0.763625 -1.82906
v 9.80928 -0.763625 0.770784
v 9.719 -0.763625 1.13925
v 9.719 0.763625 1.13925
v 9.7078 -0.763625 -1.1449
v 9.79997 -0.763625 -0.78161
v 9.79997 0.763625 -0.78161
v 9.5927 0.763625 1.49222
v 9.7078 0.763625 -1.1449
v 9.86355 -0.763625 0.386843
v 9.80928 0.763625 0.770784
v 9.88178 -0.763625 -0.0126
v 9.86355 0.763625 0.386843
v 9.85797 -0.763625 -0.404167
v 9.88178 0.763625 -0.0126
v 9.85797 0.763625 -0.404167
v 7.80936 -0.763625 -3.43862
v 8.13205 -0.763625 -3.24463
v 8.13205 0.763625 -3.24463
v 8.43977 -0.763625 -3.01485
v 8.43977 0.763625 -3.01485
v 8.44391 -0.763625 3.04083
v 8.13909 -0.763625 3.27083
v 8.13909 0.763625 3.27083
v 8.73256 -0.763625 -2.74927
v 8.73256 0.763625 -2.74927
v 8.73256 -0.763625 2.7769
v 8.44391 0.763625 3.04083
v 8.99636 0.763625 -2.45666
v 8.73256 0.763625 2.7769
v 6.75225 -0.763625 -3.80712
v 7.11929 -0.763625 -3.71953
v 7.11929 0.763625 -3.71953
v 7.12787 -0.763625 3.75622
v 6.75908 -0.763625 3.84707
v 6.75908 0.763625 3.84707
v 7.47171 -0.763625 -3.5968
v 7.47171 0.763625 -3.5968
v 7.48096 -0.763625 3.62911
v 7.12787 0.763625 3.75622
v 7.81811 -0.763625 3.46693
v 7.48096 0.763625 3.62911
v 7.81811 0.763625 3.46693
v 7.80936 0.763625 -3.43862
v 5.66665 -0.763625 -3.86578
v 5.97435 -0.763625 -3.87694
v 5.97435 0.763625 -3.87694
v 6.37061 -0.763625 -3.8596
v 6.37061 0.763625 -3.8596
v 6.37457 -0.763625 3.90168
v 5.97435 -0.763625 3.92003
v 5.97435 0.763625 3.92003
v 6.37457 0.763625 3.90168
v 6.75225 0.763625 -3.80712
v 5.07048 -0.763625 3.81901
v 4.78201 -0.763625 3.74044
v 4.78201 0.763625 3.74044
v 5.36536 -0.763625 3.87513
v 5.07048 0.763625 3.81901
v 4.78201 -0.763625 -3.70097
v 5.07048 -0.763625 -3.77779
v 5.07048 0.763625 -3.77779
v 5.66665 -0.763625 3.9088
v 5.36536 0.763625 3.87513
v 5.36536 -0.763625 -3.83273
v 5.36536 0.763625 -3.83273
v 5.66665 0.763625 3.9088
v 5.66665 0.763625 -3.86578
v 3.96806 -0.763625 3.37415
v 3.71534 -0.763625 3.20898
v 3.71534 0.763625 3.20898
v 3.71534 -0.763625 -3.18383
v 3.96806 -0.763625 -3.34426
v 3.96806 0.763625 -3.34426
v 4.23007 -0.763625 3.51779
v 3.96806 0.763625 3.37415
v 4.23007 -0.763625 -3.48392
v 4.23007 0.763625 -3.48392
v 4.50138 -0.763625 3.63989
v 4.23007 0.763625 3.51779
v 4.50138 -0.763625 -3.60282
v 4.50138 0.763625 -3.60282
v 4.50138 0.763625 3.63989
v 4.78201 0.763625 -3.70097
v 2.85338 -0.763625 2.37572
v 2.68587 -0.763625 2.13437
v 2.68587 0.763625 2.13437
v 2.68587 -0.763625 -2.10443
v 2.85338 -0.763625 -2.34067
v 2.85338 0.763625 -2.34067
v 2.53847 -0.763625 1.88032
v 2.53847 0.763625 1.88032
v 2.53847 -0.763625 -1.85359
v 2.68587 0.763625 -2.10443
v 3.04042 -0.763625 2.60407
v 2.85338 0.763625 2.37572
v 3.4714 -0.763625 3.02069
v 3.24642 -0.763625 2.81907
v 3.24642 0.763625 2.81907
v 3.04042 0.763625 2.60407
v 3.24642 -0.763625 -2.7804
v 3.24642 0.763625 -2.7804
v 3.4714 0.763625 3.02069
v 3.71534 0.763625 -3.18383
v 2.41115 -0.763625 1.61358
v 2.41115 0.763625 1.61358
v 2.41115 -0.763625 -1.58815
v 2.53847 0.763625 -1.85359
v 2.30392 0.763625 1.33419
v 2.30392 -0.763625 -1.3081
v 2.41115 0.763625 -1.58815
v -9.88178 0.763625 -0.0126
v 2.30392 0.763625 -1.3081
# 136 verticies
vt 0 0
# 1 texture verticies
vn 0 0 1
vn 1 0 0
vn -0.707107 0 -0.707107
vn 0.775354 0 -0.631527
vn 0.831164 0 -0.556028
vn 0.826017 0 -0.563646
vn 0.769696 0 -0.638411
vn 0.828725 0 0.559657
vn 0.77475 0 0.632267
vn 0.78024 0 0.62548
vn 0.83376 0 0.552127
vn 0.921277 0 0.388906
vn 0.878139 0 0.478406
vn 0.88255 0 0.470218
vn 0.925 0 0.379967
vn 0.881414 0 -0.472345
vn 0.923966 0 -0.382474
vn 0.920325 0 -0.391154
vn 0.876946 0 -0.480588
vn 0.981023 0 0.193893
vn 0.956257 0 0.292527
vn 0.959094 0 0.283089
vn 0.982846 0 0.184429
vn 0.957331 0 -0.288995
vn 0.980882 0 -0.194602
vn 0.979056 0 -0.203591
vn 0.954589 0 -0.297927
vn 0.995239 0 0.097466
vn 0.996105 0 0.08818
vn 0.999997 0 -0.002274
vn 0.999918 0 -0.012778
vn 0.994793 0 -0.101921
vn 0.993845 0 -0.110782
vn 0.47469 0 -0.880153
vn 0.561471 0 -0.827496
vn 0.553501 0 -0.832849
vn 0.466053 0 -0.884757
vn 0.639424 0 -0.768855
vn 0.632241 0 -0.774772
vn 0.635771 0 0.771878
vn 0.558652 0 0.829402
vn 0.566401 0 0.82413
vn 0.642806 0 0.766029
vn 0.71166 0 -0.702524
vn 0.704676 0 -0.709529
vn 0.7093 0 0.704907
vn 0.716668 0 0.697415
vn 0.188967 0 -0.981983
vn 0.285437 0 -0.958398
vn 0.276243 0 -0.961088
vn 0.179745 0 -0.983713
vn 0.284577 0 0.958653
vn 0.18533 0 0.982676
vn 0.19486 0 0.980831
vn 0.294077 0 0.955782
vn 0.381564 0 -0.924342
vn 0.37254 0 -0.928016
vn 0.382108 0 0.924118
vn 0.391104 0 0.920346
vn 0.473849 0 0.880606
vn 0.482196 0 0.876063
vn -0.069713 0 -0.997567
vn 0.00769 0 -0.99997
vn 0.000469 0 -1
vn -0.075627 0 -0.997136
vn 0.094537 0 -0.995521
vn 0.085484 0 -0.99634
vn 0.088584 0 0.996069
vn 0.001311 0 0.999999
vn 0.008771 0 0.999962
vn 0.097923 0 0.995194
vn -0.228061 0 0.973647
vn -0.30324 0 0.952914
vn -0.297293 0 0.954786
vn -0.221994 0 0.975048
vn -0.152163 0 0.988355
vn -0.146059 0 0.989276
vn -0.291044 0 -0.95671
vn -0.217433 0 -0.976075
vn -0.223364 0 -0.974735
vn -0.296841 0 -0.954927
vn -0.076837 0 0.997044
vn -0.070775 0 0.997492
vn -0.143201 0 -0.989694
vn -0.14916 0 -0.988813
vn -0.516964 0 0.856007
vn -0.5821 0 0.813117
vn -0.576913 0 0.816806
vn -0.511645 0 0.859197
vn -0.590955 0 -0.806704
vn -0.500922 0 -0.865493
vn -0.506144 0 -0.862449
vn -0.603247 0 -0.797554
vn -0.44872 0 0.893673
vn -0.443113 0 0.896466
vn -0.43348 0 -0.901163
vn -0.438957 0 -0.898508
vn -0.377051 0 0.926193
vn -0.37123 0 0.928541
vn -0.363192 0 -0.931714
vn -0.368851 0 -0.929488
vn -0.800079 0 0.599895
vn -0.845636 0 0.533759
vn -0.842216 0 0.53914
vn -0.796295 0 0.604908
vn -0.837907 0 -0.545813
vn -0.777385 0 -0.629025
vn -0.784623 0 -0.619973
vn -0.84153 0 -0.54021
vn -0.8859 0 0.463877
vn -0.882938 0 0.46949
vn -0.881135 0 -0.472865
vn -0.884236 0 -0.46704
vn -0.750428 0 0.660952
vn -0.746339 0 0.665566
vn -0.641905 0 0.766785
vn -0.69741 0 0.716672
vn -0.693034 0 0.720905
vn -0.637327 0 0.770594
vn -0.694216 0 -0.719767
vn -0.706341 0 -0.707872
vn -0.919988 0 0.391947
vn -0.91751 0 0.397712
vn -0.917251 0 -0.39831
vn -0.919814 0 -0.392355
vn -0.933605 0 0.358303
vn -0.933885 0 -0.357573
vn 0 -1 0
vn -0.70915 0 0.705058
vn 0 0 -1
vn 0 1 0
# 131 normals
usemtl Texture_0
f  132/1/1 3/1/1 2/1/1 1/1/1
f  10/1/2 6/1/2 5/1/2 4/1/2
f  3/1/2 8/1/2 7/1/2 2/1/2
f  135/1/3 10/1/3 4/1/3 9/1/3
f  52/1/4 13/1/5 12/1/6 11/1/7
f  23/1/8 16/1/9 15/1/10 14/1/11
f  31/1/12 19/1/13 18/1/14 17/1/15
f  24/1/16 22/1/17 21/1/18 20/1/19
f  19/1/13 23/1/8 14/1/11 18/1/14
f  13/1/5 24/1/16 20/1/19 12/1/6
f  34/1/20 27/1/21 26/1/22 25/1/23
f  32/1/24 30/1/25 29/1/26 28/1/27
f  27/1/21 31/1/12 17/1/15 26/1/22
f  22/1/17 32/1/24 28/1/27 21/1/18
f  36/1/28 34/1/20 25/1/23 33/1/29
f  38/1/30 36/1/28 33/1/29 35/1/31
f  39/1/32 38/1/30 35/1/31 37/1/33
f  30/1/25 39/1/32 37/1/33 29/1/26
f  67/1/34 42/1/35 41/1/36 40/1/37
f  42/1/35 44/1/38 43/1/39 41/1/36
f  51/1/40 47/1/41 46/1/42 45/1/43
f  44/1/38 49/1/44 48/1/45 43/1/39
f  53/1/46 51/1/40 45/1/43 50/1/47
f  49/1/44 52/1/4 11/1/7 48/1/45
f  16/1/9 53/1/46 50/1/47 15/1/10
f  77/1/48 56/1/49 55/1/50 54/1/51
f  63/1/52 59/1/53 58/1/54 57/1/55
f  56/1/49 61/1/56 60/1/57 55/1/50
f  65/1/58 63/1/52 57/1/55 62/1/59
f  66/1/60 65/1/58 62/1/59 64/1/61
f  47/1/41 66/1/60 64/1/61 46/1/42
f  61/1/56 67/1/34 40/1/37 60/1/57
f  91/1/62 70/1/63 69/1/64 68/1/65
f  70/1/63 72/1/66 71/1/67 69/1/64
f  76/1/68 75/1/69 74/1/70 73/1/71
f  59/1/53 76/1/68 73/1/71 58/1/54
f  72/1/66 77/1/48 54/1/51 71/1/67
f  82/1/72 80/1/73 79/1/74 78/1/75
f  87/1/76 82/1/72 78/1/75 81/1/77
f  107/1/78 85/1/79 84/1/80 83/1/81
f  90/1/82 87/1/76 81/1/77 86/1/83
f  85/1/79 89/1/84 88/1/85 84/1/80
f  75/1/69 90/1/82 86/1/83 74/1/70
f  89/1/84 91/1/62 68/1/65 88/1/85
f  99/1/86 94/1/87 93/1/88 92/1/89
f  127/1/90 97/1/91 96/1/92 95/1/93
f  103/1/94 99/1/86 92/1/89 98/1/95
f  97/1/91 101/1/96 100/1/97 96/1/92
f  106/1/98 103/1/94 98/1/95 102/1/99
f  101/1/96 105/1/100 104/1/101 100/1/97
f  80/1/73 106/1/98 102/1/99 79/1/74
f  105/1/100 107/1/78 83/1/81 104/1/101
f  119/1/102 110/1/103 109/1/104 108/1/105
f  117/1/106 113/1/107 112/1/108 111/1/109
f  110/1/103 115/1/110 114/1/111 109/1/104
f  131/1/112 117/1/106 111/1/109 116/1/113
f  123/1/114 119/1/102 108/1/105 118/1/115
f  126/1/116 122/1/117 121/1/118 120/1/119
f  122/1/117 123/1/114 118/1/115 121/1/118
f  113/1/107 125/1/120 124/1/121 112/1/108
f  94/1/87 126/1/116 120/1/119 93/1/88
f  125/1/120 127/1/90 95/1/93 124/1/121
f  115/1/110 129/1/122 128/1/123 114/1/111
f  134/1/124 131/1/112 116/1/113 130/1/125
f  129/1/122 132/1/126 1/1/126 128/1/123
f  136/1/127 134/1/124 130/1/125 133/1/127
f  2/1/128 5/1/128 133/1/128 1/1/128
f  5/1/128 9/1/128 4/1/128
f  2/1/128 9/1/128 5/1/128
f  7/1/128 9/1/128 2/1/128
f  28/1/128 12/1/128 20/1/128
f  33/1/128 18/1/128 14/1/128
f  11/1/128 37/1/128 15/1/128
f  37/1/128 14/1/128 15/1/128
f  37/1/128 11/1/128 12/1/128
f  17/1/128 25/1/128 26/1/128
f  18/1/128 33/1/128 25/1/128
f  21/1/128 28/1/128 20/1/128
f  29/1/128 12/1/128 28/1/128
f  25/1/128 17/1/128 18/1/128
f  14/1/128 37/1/128 33/1/128
f  12/1/128 29/1/128 37/1/128
f  33/1/128 37/1/128 35/1/128
f  73/1/128 15/1/128 45/1/128
f  1/1/128 69/1/128 11/1/128 15/1/128
f  11/1/128 71/1/128 48/1/128
f  45/1/128 15/1/128 50/1/128
f  62/1/128 57/1/128 58/1/128
f  46/1/128 58/1/128 73/1/128
f  74/1/128 15/1/128 73/1/128
f  69/1/128 71/1/128 11/1/128
f  8/1/129 135/1/129 9/1/129 7/1/129
f  64/1/128 62/1/128 58/1/128
f  55/1/128 41/1/128 54/1/128
f  54/1/128 43/1/128 71/1/128
f  46/1/128 64/1/128 58/1/128
f  73/1/128 45/1/128 46/1/128
f  55/1/128 60/1/128 40/1/128
f  43/1/128 48/1/128 71/1/128
f  40/1/128 41/1/128 55/1/128
f  43/1/128 54/1/128 41/1/128
f  124/1/128 88/1/128 68/1/128
f  78/1/128 92/1/128 81/1/128
f  81/1/128 120/1/128 86/1/128
f  15/1/128 74/1/128 1/1/128
f  120/1/128 1/1/128 86/1/128
f  100/1/128 124/1/128 96/1/128
f  96/1/128 124/1/128 95/1/128
f  68/1/128 133/1/128 124/1/128
f  104/1/128 124/1/128 100/1/128
f  92/1/128 79/1/128 98/1/128
f  92/1/128 93/1/128 81/1/128
f  84/1/128 124/1/128 83/1/128
f  93/1/128 120/1/128 81/1/128
f  83/1/128 124/1/128 104/1/128
f  79/1/128 92/1/128 78/1/128
f  1/1/128 74/1/128 86/1/128
f  69/1/128 133/1/128 68/1/128
f  98/1/128 79/1/128 102/1/128
f  88/1/128 124/1/128 84/1/128
f  116/1/128 111/1/128 112/1/128
f  128/1/128 118/1/128 108/1/128
f  124/1/128 133/1/128 112/1/128
f  108/1/128 114/1/128 128/1/128
f  118/1/128 128/1/128 1/1/128
f  112/1/128 130/1/128 116/1/128
f  120/1/128 121/1/128 1/1/128
f  121/1/128 118/1/128 1/1/128
f  69/1/128 1/1/128 133/1/128
f  112/1/128 133/1/128 130/1/128
f  133/1/130 5/1/130 6/1/130 136/1/130
f  3/1/131 132/1/131 136/1/131 6/1/131
f  135/1/131 6/1/131 10/1/131
f  3/1/131 6/1/131 135/1/131
f  3/1/131 135/1/131 8/1/131
f  32/1/131 24/1/131 13/1/131
f  36/1/131 23/1/131 19/1/131
f  52/1/131 16/1/131 39/1/131
f  39/1/131 16/1/131 23/1/131
f  39/1/131 13/1/131 52/1/131
f  34/1/131 31/1/131 27/1/131
f  36/1/131 19/1/131 34/1/131
f  24/1/131 32/1/131 22/1/131
f  30/1/131 32/1/131 13/1/131
f  34/1/131 19/1/131 31/1/131
f  39/1/131 23/1/131 36/1/131
f  13/1/131 39/1/131 30/1/131
f  36/1/131 38/1/131 39/1/131
f  16/1/131 76/1/131 51/1/131
f  132/1/131 16/1/131 52/1/131 70/1/131
f  72/1/131 52/1/131 49/1/131
f  16/1/131 51/1/131 53/1/131
f  65/1/131 59/1/131 63/1/131
f  47/1/131 76/1/131 59/1/131
f  76/1/131 16/1/131 75/1/131
f  70/1/131 52/1/131 72/1/131
f  66/1/131 59/1/131 65/1/131
f  56/1/131 77/1/131 42/1/131
f  72/1/131 44/1/131 77/1/131
f  47/1/131 59/1/131 66/1/131
f  51/1/131 76/1/131 47/1/131
f  61/1/131 56/1/131 67/1/131
f  44/1/131 72/1/131 49/1/131
f  67/1/131 56/1/131 42/1/131
f  77/1/131 44/1/131 42/1/131
f  125/1/131 91/1/131 89/1/131
f  82/1/131 87/1/131 99/1/131
f  87/1/131 90/1/131 126/1/131
f  132/1/131 75/1/131 16/1/131
f  126/1/131 90/1/131 132/1/131
f  101/1/131 97/1/131 125/1/131
f  97/1/131 127/1/131 125/1/131
f  91/1/131 125/1/131 136/1/131
f  105/1/131 101/1/131 125/1/131
f  80/1/131 99/1/131 103/1/131
f  99/1/131 87/1/131 94/1/131
f  85/1/131 107/1/131 125/1/131
f  94/1/131 87/1/131 126/1/131
f  107/1/131 105/1/131 125/1/131
f  99/1/131 80/1/131 82/1/131
f  75/1/131 132/1/131 90/1/131
f  136/1/131 70/1/131 91/1/131
f  80/1/131 103/1/131 106/1/131
f  89/1/131 85/1/131 125/1/131
f  131/1/131 113/1/131 117/1/131
f  123/1/131 129/1/131 119/1/131
f  125/1/131 113/1/131 136/1/131
f  119/1/131 129/1/131 115/1/131
f  123/1/131 132/1/131 129/1/131
f  113/1/131 131/1/131 134/1/131
f  126/1/131 132/1/131 122/1/131
f  122/1/131 132/1/131 123/1/131
f  136/1/131 132/1/131 70/1/131
f  113/1/131 134/1/131 136/1/131
