# 
# Wavefront OBJ file
# Converted by the DEEP Exploration 3.5.10.1242
# Right Hemisphere, LTD
# http://www.righthemisphere.com/
# 
mtllib arrow47.mtl
# object Mesh 
g Mesh_
v -5.00349 0.718023 -2.7519
v -4.87883 0.718023 -2.96433
v -6.23595 0.718023 -4.23415
v -5.60865 0.718023 -4.5289
v -5.9412 0.718023 -4.39224
v -4.71749 0.718023 -3.18824
v -6.53343 0.718023 4.99382
v -3.67161 0.718023 1.28461
v -5.43731 0.718023 1.28461
v -5.23833 0.718023 -4.64414
v -4.50998 0.718023 -3.41461
v -5.43731 0.718023 0.783743
v -7.60623 0.718023 0.603367
v -7.61319 0.718023 1.28461
v -5.43731 0.718023 0.339567
v -7.58621 0.718023 -0.11531
v -5.43731 0.718023 -0.389629
v -7.55437 0.718023 -0.869405
v -7.34007 0.718023 -2.73383
v -7.42531 0.718023 -2.39887
v -5.22713 0.718023 -2.05173
v -7.22689 0.718023 -3.04476
v -5.1758 0.718023 -2.29408
v -5.38822 0.718023 -1.13476
v -7.51197 0.718023 -1.65688
v -7.48261 0.718023 -2.03989
v -5.3213 0.718023 -1.57088
v -6.91627 0.718023 -3.59615
v -7.08567 0.718023 -3.33207
v -5.10186 0.718023 -2.52798
v -5.43731 0.718023 -0.0506617
v -5.42713 0.718023 -0.741601
v -6.49295 0.718023 -4.05464
v -6.7187 0.718023 -3.83701
v -7.48261 -0.718023 -2.03989
v -7.51197 -0.718023 -1.65688
v -9.28816 0.718023 1.28461
v -6.53343 -0.718023 4.99382
v -7.42531 -0.718023 -2.39887
v -7.58621 -0.718023 -0.11531
v -7.60623 -0.718023 0.603367
v -7.61319 -0.718023 1.28461
v -7.55437 -0.718023 -0.869405
v -7.22689 -0.718023 -3.04476
v -7.34007 -0.718023 -2.73383
v -9.28816 -0.718023 1.28461
v 7.60518 0.718023 0.590034
v 5.438 0.718023 0.7937
v 7.61693 0.718023 1.28461
v 7.5886 0.718023 -0.130513
v 5.44008 0.718023 0.34802
v 7.56688 0.718023 -0.878878
v 5.46114 0.718023 -0.389629
v 7.53967 0.718023 -1.65688
v 5.40878 0.718023 -1.12318
v 6.54089 0.718023 4.99382
v 9.28816 0.718023 1.28461
v 5.23486 0.718023 -2.05173
v 7.35083 0.718023 -2.74437
v 5.19244 0.718023 -2.29177
v 5.33871 0.718023 -1.56015
v 7.44056 0.718023 -2.40698
v 7.23431 0.718023 -3.05664
v 5.12511 0.718023 -2.52125
v 6.50041 0.718023 -4.05464
v 6.24287 0.718023 -4.23376
v 4.90726 0.718023 -2.96433
v 5.4409 0.718023 1.28461
v 5.44764 0.718023 -0.0479147
v 6.92093 0.718023 -3.60586
v 6.72406 0.718023 -3.84281
v 5.03075 0.718023 -2.74411
v 5.44848 0.718023 -0.734968
v 7.091 0.718023 -3.34381
v 7.5035 0.718023 -2.04448
v 4.53579 0.718023 -3.40614
v 5.25468 0.718023 -4.65087
v 4.8524 0.718023 -4.74899
v 5.62001 0.718023 -4.53188
v 3.67629 0.718023 1.28461
v 5.94941 0.718023 -4.39283
v 4.7473 0.718023 -3.18551
v 3.93404 0.718023 -4.87992
v 3.68374 0.718023 -4.01922
v 3.94815 0.718023 -3.87227
v 3.39639 0.718023 -4.13321
v 4.41219 0.718023 -4.82534
v 4.27025 0.718023 -3.63286
v 2.74249 0.718023 -4.2607
v 2.88954 0.718023 -4.93418
v 2.39178 0.718023 -4.95157
v 3.0835 0.718023 -4.21384
v 3.41795 0.718023 -4.91275
v 1.59301 0.718023 -4.28769
v 1.92466 0.718023 -4.96492
v 1.48818 0.718023 -4.97423
v 2.00504 0.718023 -4.27924
v 2.38633 0.718023 -4.27166
v 1.14466 -0.718023 1.2417
v -1.07118 -0.718023 1.2417
v 1.14466 -0.718023 -4.30122
v 0.048757 -0.718023 -4.99382
v 0.362629 -0.718023 -4.99072
v 0.707157 -0.718023 -4.98641
v 1.08234 -0.718023 -4.98092
v 2.817 -0.718023 1.2417
v 0.068985 -0.718023 4.99382
v 1.59301 -0.718023 -4.28769
v 1.48818 -0.718023 -4.97423
v -1.07118 -0.718023 -4.30122
v -0.284414 -0.718023 -4.98692
v -0.64421 -0.718023 -4.97927
v -1.89291 -0.718023 -4.2877
v -1.88482 -0.718023 -4.95156
v -1.44375 -0.718023 -4.96175
v -2.77214 -0.718023 1.2417
v -1.03066 -0.718023 -4.97088
v -2.67924 -0.718023 -4.2607
v -2.85504 -0.718023 -4.92705
v -2.35525 -0.718023 -4.93999
v -3.90346 -0.718023 -4.87363
v -3.3656 -0.718023 -4.14921
v -3.66571 -0.718023 -4.03247
v -3.93877 -0.718023 -3.87227
v -3.38417 -0.718023 -4.91275
v -3.03719 -0.718023 -4.22457
v -5.60865 -0.718023 -4.5289
v -4.50998 -0.718023 -3.41461
v -4.71749 -0.718023 -3.18824
v -5.23833 -0.718023 -4.64414
v -4.83054 -0.718023 -4.73932
v -4.25187 -0.718023 -3.6428
v -4.38559 -0.718023 -4.81581
v -7.08567 -0.718023 -3.33207
v -5.10186 -0.718023 -2.52798
v -5.1758 -0.718023 -2.29408
v -5.22713 -0.718023 -2.05173
v -5.3213 -0.718023 -1.57088
v -5.00349 -0.718023 -2.7519
v -6.49295 -0.718023 -4.05464
v -6.23595 -0.718023 -4.23415
v -6.7187 -0.718023 -3.83701
v -4.87883 -0.718023 -2.96433
v -5.9412 -0.718023 -4.39224
v -5.43731 -0.718023 1.28461
v -3.67161 -0.718023 1.28461
v -5.43731 -0.718023 0.783743
v -5.43731 -0.718023 0.339567
v -5.43731 -0.718023 -0.389629
v -5.38822 -0.718023 -1.13476
v -6.91627 -0.718023 -3.59615
v -5.43731 -0.718023 -0.0506617
v -5.42713 -0.718023 -0.741601
v 7.61693 -0.718023 1.28461
v 5.438 -0.718023 0.7937
v 7.60518 -0.718023 0.590034
v 5.44008 -0.718023 0.34802
v 7.5886 -0.718023 -0.130513
v 5.46114 -0.718023 -0.389629
v 7.56688 -0.718023 -0.878878
v 5.40878 -0.718023 -1.12318
v 7.53967 -0.718023 -1.65688
v 9.28816 -0.718023 1.28461
v 6.54089 -0.718023 4.99382
v 5.19244 -0.718023 -2.29177
v 7.35083 -0.718023 -2.74437
v 5.23486 -0.718023 -2.05173
v 7.44056 -0.718023 -2.40698
v 5.33871 -0.718023 -1.56015
v 5.12511 -0.718023 -2.52125
v 7.23431 -0.718023 -3.05664
v 4.90726 -0.718023 -2.96433
v 6.24287 -0.718023 -4.23376
v 6.50041 -0.718023 -4.05464
v 5.4409 -0.718023 1.28461
v 5.44764 -0.718023 -0.0479147
v 5.03075 -0.718023 -2.74411
v 6.72406 -0.718023 -3.84281
v 6.92093 -0.718023 -3.60586
v 5.44848 -0.718023 -0.734968
v 7.091 -0.718023 -3.34381
v 7.5035 -0.718023 -2.04448
v 4.8524 -0.718023 -4.74899
v 5.25468 -0.718023 -4.65087
v 4.53579 -0.718023 -3.40614
v 5.62001 -0.718023 -4.53188
v 3.67629 -0.718023 1.28461
v 4.7473 -0.718023 -3.18551
v 5.94941 -0.718023 -4.39283
v 3.94815 -0.718023 -3.87227
v 3.68374 -0.718023 -4.01922
v 3.93404 -0.718023 -4.87992
v 3.39639 -0.718023 -4.13321
v 4.41219 -0.718023 -4.82534
v 4.27025 -0.718023 -3.63286
v 2.39178 -0.718023 -4.95157
v 2.88954 -0.718023 -4.93418
v 2.74249 -0.718023 -4.2607
v 3.0835 -0.718023 -4.21384
v 3.41795 -0.718023 -4.91275
v 1.92466 -0.718023 -4.96492
v 2.00504 -0.718023 -4.27924
v 0.707157 0.718023 -4.98641
v 2.38633 -0.718023 -4.27166
v 1.14466 0.718023 1.2417
v 1.08234 0.718023 -4.98092
v 0.068985 0.718023 4.99382
v 1.14466 0.718023 -4.30122
v -0.284414 0.718023 -4.98692
v 0.048757 0.718023 -4.99382
v 0.362629 0.718023 -4.99072
v -1.44375 0.718023 -4.96175
v -1.89291 0.718023 -4.2877
v -1.07118 0.718023 1.2417
v -1.07118 0.718023 -4.30122
v -1.03066 0.718023 -4.97088
v -0.64421 0.718023 -4.97927
v -2.35525 0.718023 -4.93999
v -2.67924 0.718023 -4.2607
v -1.88482 0.718023 -4.95156
v -2.77214 0.718023 1.2417
v -3.93877 0.718023 -3.87227
v -3.38417 0.718023 -4.91275
v -3.66571 0.718023 -4.03247
v -3.3656 0.718023 -4.14921
v -3.03719 0.718023 -4.22457
v -2.85504 0.718023 -4.92705
v -4.38559 0.718023 -4.81581
v -4.25187 0.718023 -3.6428
v -3.90346 0.718023 -4.87363
v -4.83054 0.718023 -4.73932
v 2.817 0.718023 1.2417
# 232 verticies
vt 0 0
# 1 texture verticies
vn 0 1 0
vn -0.992646 0 -0.121056
vn -0.993593 0 -0.113018
vn -0.980202 0 -0.198001
vn -0.978449 0 -0.206487
vn -0.997803 0 -0.066249
vn -0.997989 0 -0.063386
vn -0.802814 0 0.596229
vn -0.802815 0 0.596229
vn -0.956956 0 -0.290232
vn -0.954247 0 -0.299021
vn -0.999349 0 -0.03608
vn -0.999423 0 -0.033965
vn -0.99889 0 -0.04711
vn -0.998806 0 -0.048855
vn -0.999794 0 -0.020318
vn -0.999842 0 -0.017776
vn -0.999948 0 -0.010217
vn -0.91802 0 -0.396534
vn -0.921801 0 -0.387664
vn -0.873428 0 -0.486954
vn -0.868538 0 -0.495623
vn 0 0 -1
vn 0 -1 0
vn 0.013469 0 -0.999909
vn 0.013676 0 -0.999906
vn 0.011308 0 -0.999936
vn 0.011072 0 -0.999939
vn 1 0 0
vn 0.015468 0 -0.99988
vn 0.015654 0 -0.999878
vn 0.806768 0 0.590869
vn 0.01865 0 -0.999826
vn 0.019173 0 -0.999816
vn -0.030161 0 0.999545
vn -0.025877 0 0.999665
vn -0.024824 0 0.999692
vn -0.021008 0 -0.999779
vn -0.020954 0 -0.99978
vn -0.021462 0 -0.99977
vn -0.021504 0 -0.999769
vn -0.006798 0 -0.999977
vn -0.004078 0 -0.999992
vn -0.022658 0 -0.999743
vn -0.022549 0 -0.999746
vn -0.023759 0 -0.999718
vn -0.023926 0 -0.999714
vn 0.024007 0 0.999712
vn 0.026741 0 0.999642
vn 0.016446 0 0.999865
vn -1 0 0
vn -0.021921 0 -0.99976
vn -0.021879 0 -0.999761
vn -0.025309 0 -0.99968
vn -0.025155 0 -0.999684
vn -0.026382 0 -0.999652
vn -0.02652 0 -0.999648
vn 0.06239 0 0.998052
vn 0.070587 0 0.997506
vn -0.797235 0 0.603669
vn 0.545554 0 0.838075
vn 0.553613 0 0.832774
vn 0.441946 0 0.897042
vn 0.429264 0 0.903179
vn -0.054049 0 -0.998538
vn -0.048092 0 -0.998843
vn -0.094412 0 -0.995533
vn -0.099713 0 -0.995016
vn 0.300034 0 0.953929
vn 0.287477 0 0.957788
vn 0.168019 0 0.985784
vn 0.15641 0 0.987692
vn 0.835789 0 0.549051
vn 0.839641 0 0.543142
vn 0.778482 0 0.627666
vn 0.772381 0 0.63516
vn -0.147127 0 -0.989118
vn -0.141318 0 -0.989964
vn -0.195189 0 -0.980766
vn -0.201553 0 -0.979478
vn 0.697214 0 0.716863
vn 0.703908 0 0.710291
vn 0.630724 0 0.776007
vn 0.623774 0 0.781605
vn 0.791738 0 0.610861
vn -0.342935 0 -0.939359
vn -0.334717 0 -0.942319
vn -0.422483 0 -0.906371
vn -0.431168 0 -0.902272
vn 0.98468 0 0.174373
vn 0.985493 0 0.169715
vn 0.980037 0 0.198817
vn 0.979745 0 0.200247
vn 0.999914 0 0.013124
vn 0.999875 0 0.015826
vn 0.998172 0 0.060439
vn 0.997731 0 0.06732
vn -0.265926 0 -0.963993
vn -0.258637 0 -0.965975
vn 0.992483 0 0.122379
vn 0.991766 0 0.128065
vn 0.93452 0 0.35591
vn 0.937235 0 0.348698
vn 0.892413 0 0.451219
vn 0.888607 0 0.45867
vn 0.967936 0 0.251199
vn 0.966152 0 0.257974
vn -0.811786 0 -0.583956
vn -0.805835 0 -0.592141
vn -0.640576 0 -0.767895
vn -0.629997 0 -0.776597
vn -0.7314 0 -0.681948
vn -0.738271 0 -0.674504
vn -0.527895 0 -0.84931
vn -0.518976 0 -0.854789
vn 0.865733 0 -0.500506
vn 0.870639 0 -0.491923
vn 0.808394 0 -0.588641
vn 0.802383 0 -0.596809
vn 0.733199 0 -0.680014
vn 0.726199 0 -0.687485
vn 0.951429 0 -0.307867
vn 0.954162 0 -0.299289
vn 0.919031 0 -0.394184
vn 0.915246 0 -0.402895
vn 0.999474 0 -0.032434
vn 0.999502 0 -0.031543
vn 0.998224 0 -0.059579
vn 0.997759 0 -0.066908
vn 0.99176 0 -0.128109
vn 0.99072 0 -0.135921
vn 0.999857 0 -0.016914
vn 0.99981 0 -0.01952
vn 0.999792 0 -0.020402
vn 0.999673 0 -0.025567
vn 0.99965 0 -0.026452
vn 0.975879 0 -0.21831
vn 0.97769 0 -0.210051
vn 0.803587 0 0.595187
vn 0.429021 0 -0.903295
vn 0.437225 0 -0.899352
vn 0.353404 0 -0.935471
vn 0.345609 0 -0.938379
vn 0.520267 0 -0.854004
vn 0.528686 0 -0.848818
vn 0.62601 0 -0.779815
vn 0.636108 0 -0.7716
vn -0.84492 0 0.534892
vn -0.840227 0 0.542235
vn -0.896127 0 0.443798
vn -0.899633 0 0.436647
vn 0.200333 0 -0.979728
vn 0.207546 0 -0.978225
vn 0.145425 0 -0.989369
vn 0.138837 0 -0.990315
vn -0.771358 0 0.636401
vn -0.764128 0 0.645065
vn -0.943114 0 0.33247
vn -0.940385 0 0.340113
vn -0.972741 0 0.231895
vn -0.974522 0 0.224291
vn 0.269658 0 -0.962956
vn 0.277202 0 -0.960812
vn -0.981935 0 0.189219
vn -0.981326 0 0.192351
vn -0.983687 0 0.179888
vn -0.982646 0 0.18549
vn -0.991084 0 0.133239
vn -0.991877 0 0.1272
vn -0.997365 0 0.072545
vn -0.997808 0 0.066181
vn -0.999998 0 0.002143
vn -0.999988 0 -0.004951
vn -0.999543 0 -0.030237
vn -0.999601 0 -0.028241
vn -0.99992 0 -0.012626
vn -0.999939 0 -0.011077
vn -1 0 3.3e-005
vn -0.999999 0 0.001253
vn -0.999983 0 0.005917
vn -0.433099 0 0.901347
vn -0.423102 0 0.906082
vn -0.537634 0 0.843178
vn -0.548096 0 0.836415
vn 0.085415 0 -0.996345
vn 0.091411 0 -0.995813
vn 0.053414 0 -0.998572
vn 0.050579 0 -0.99872
vn -0.620538 0 0.784177
vn -0.625773 0 0.780005
vn -0.683035 0 0.730386
vn -0.689552 0 0.724236
vn -0.791451 0 0.611232
vn 0.037383 0 -0.999301
vn 0.038068 0 -0.999275
vn 0.032117 0 -0.999484
vn 0.03137 0 -0.999508
vn -0.088476 0 0.996078
vn -0.078518 0 0.996913
vn -0.187865 0 0.982195
vn -0.198211 0 0.980159
vn -0.304444 0 0.95253
vn -0.314882 0 0.949131
vn -0.020221 0 0.999796
vn -0.020155 0 0.999797
vn 0.024551 0 -0.999699
vn 0.025364 0 -0.999678
vn -0.02477 0 0.999693
vn -0.025839 0 0.999666
# 209 normals
usemtl Texture_0
f  1/1/1 2/1/1 3/1/1
f  4/1/1 5/1/1 6/1/1
f  7/1/1 8/1/1 9/1/1
f  2/1/1 6/1/1 5/1/1
f  10/1/1 4/1/1 11/1/1
f  12/1/1 13/1/1 14/1/1 9/1/1
f  16/1/1 13/1/1 15/1/1 31/1/1
f  18/1/1 16/1/1 17/1/1 32/1/1
f  19/1/1 20/1/1 21/1/1
f  22/1/1 19/1/1 23/1/1
f  24/1/1 25/1/1 18/1/1
f  26/1/1 25/1/1 27/1/1
f  21/1/1 20/1/1 26/1/1 27/1/1
f  28/1/1 29/1/1 30/1/1
f  9/1/1 14/1/1 7/1/1
f  29/1/1 22/1/1 23/1/1
f  12/1/1 15/1/1 13/1/1
f  31/1/1 17/1/1 16/1/1
f  32/1/1 24/1/1 18/1/1
f  24/1/1 27/1/1 25/1/1
f  33/1/1 34/1/1 1/1/1
f  34/1/1 28/1/1 30/1/1
f  35/1/2 26/1/3 20/1/4 39/1/5
f  36/1/6 25/1/7 26/1/3 35/1/2
f  38/1/8 7/1/9 37/1/8 46/1/9
f  39/1/5 20/1/4 19/1/10 45/1/11
f  40/1/12 16/1/13 18/1/14 43/1/15
f  41/1/16 13/1/17 16/1/13 40/1/12
f  42/1/18 14/1/18 13/1/17 41/1/16
f  43/1/15 18/1/14 25/1/7 36/1/6
f  44/1/19 22/1/20 29/1/21 134/1/22
f  45/1/11 19/1/10 22/1/20 44/1/19
f  46/1/23 37/1/23 14/1/23 42/1/23
f  49/1/1 47/1/1 48/1/1 68/1/1
f  51/1/1 47/1/1 50/1/1 69/1/1
f  53/1/1 50/1/1 52/1/1 73/1/1
f  54/1/1 55/1/1 52/1/1
f  56/1/1 57/1/1 49/1/1
f  58/1/1 59/1/1 60/1/1
f  62/1/1 58/1/1 61/1/1 75/1/1
f  60/1/1 63/1/1 64/1/1
f  65/1/1 66/1/1 67/1/1
f  50/1/1 53/1/1 69/1/1
f  70/1/1 71/1/1 72/1/1
f  55/1/1 54/1/1 61/1/1
f  71/1/1 65/1/1 72/1/1
f  47/1/1 51/1/1 48/1/1
f  73/1/1 52/1/1 55/1/1
f  63/1/1 74/1/1 64/1/1
f  49/1/1 68/1/1 56/1/1
f  74/1/1 70/1/1 64/1/1
f  54/1/1 75/1/1 61/1/1
f  59/1/1 63/1/1 60/1/1
f  62/1/1 59/1/1 58/1/1
f  76/1/1 77/1/1 78/1/1
f  76/1/1 79/1/1 77/1/1
f  68/1/1 80/1/1 56/1/1
f  81/1/1 82/1/1 67/1/1
f  79/1/1 76/1/1 82/1/1
f  72/1/1 65/1/1 67/1/1
f  82/1/1 81/1/1 79/1/1
f  64/1/1 70/1/1 72/1/1
f  67/1/1 66/1/1 81/1/1
f  83/1/1 84/1/1 85/1/1
f  86/1/1 84/1/1 83/1/1 93/1/1
f  85/1/1 87/1/1 83/1/1
f  87/1/1 85/1/1 88/1/1
f  78/1/1 88/1/1 76/1/1
f  88/1/1 78/1/1 87/1/1
f  89/1/1 90/1/1 91/1/1 98/1/1
f  90/1/1 89/1/1 92/1/1
f  93/1/1 92/1/1 86/1/1
f  92/1/1 93/1/1 90/1/1
f  95/1/1 96/1/1 94/1/1 97/1/1
f  97/1/1 98/1/1 91/1/1 95/1/1
f  101/1/24 99/1/24 100/1/24 110/1/24
f  101/1/24 102/1/24 103/1/24
f  101/1/24 103/1/24 104/1/24
f  104/1/24 105/1/24 101/1/24
f  99/1/24 106/1/24 107/1/24
f  109/1/24 108/1/24 101/1/24 105/1/24
f  110/1/24 111/1/24 102/1/24
f  110/1/24 112/1/24 111/1/24
f  101/1/24 110/1/24 102/1/24
f  107/1/24 100/1/24 99/1/24
f  113/1/24 114/1/24 115/1/24
f  116/1/24 100/1/24 107/1/24
f  113/1/24 115/1/24 110/1/24
f  110/1/24 115/1/24 117/1/24
f  110/1/24 117/1/24 112/1/24
f  118/1/24 119/1/24 120/1/24
f  113/1/24 118/1/24 120/1/24 114/1/24
f  122/1/24 123/1/24 121/1/24 125/1/24
f  121/1/24 123/1/24 124/1/24
f  125/1/24 119/1/24 126/1/24 122/1/24
f  119/1/24 118/1/24 126/1/24
f  127/1/24 128/1/24 129/1/24
f  128/1/24 130/1/24 131/1/24
f  132/1/24 131/1/24 133/1/24
f  131/1/24 132/1/24 128/1/24
f  133/1/24 124/1/24 132/1/24
f  124/1/24 133/1/24 121/1/24
f  134/1/24 135/1/24 136/1/24
f  137/1/24 138/1/24 35/1/24 39/1/24
f  45/1/24 136/1/24 137/1/24
f  139/1/24 140/1/24 141/1/24
f  142/1/24 139/1/24 135/1/24
f  14/1/1 37/1/1 7/1/1
f  143/1/24 141/1/24 144/1/24
f  141/1/24 143/1/24 139/1/24
f  129/1/24 144/1/24 127/1/24
f  145/1/24 146/1/24 38/1/24
f  144/1/24 129/1/24 143/1/24
f  128/1/24 127/1/24 130/1/24
f  42/1/24 41/1/24 147/1/24 145/1/24
f  148/1/24 41/1/24 40/1/24 152/1/24
f  149/1/24 40/1/24 43/1/24 153/1/24
f  137/1/24 39/1/24 45/1/24
f  136/1/24 45/1/24 44/1/24
f  43/1/24 36/1/24 150/1/24
f  138/1/24 36/1/24 35/1/24
f  135/1/24 134/1/24 151/1/24
f  38/1/24 42/1/24 145/1/24
f  136/1/24 44/1/24 134/1/24
f  41/1/24 148/1/24 147/1/24
f  40/1/24 149/1/24 152/1/24
f  43/1/24 150/1/24 153/1/24
f  36/1/24 138/1/24 150/1/24
f  139/1/24 142/1/24 140/1/24
f  135/1/24 151/1/24 142/1/24
f  155/1/24 156/1/24 154/1/24 175/1/24
f  158/1/24 156/1/24 157/1/24 176/1/24
f  160/1/24 158/1/24 159/1/24 180/1/24
f  160/1/24 161/1/24 162/1/24
f  154/1/24 163/1/24 164/1/24
f  165/1/24 166/1/24 167/1/24
f  169/1/24 167/1/24 168/1/24 182/1/24
f  170/1/24 171/1/24 165/1/24
f  172/1/24 173/1/24 174/1/24
f  176/1/24 159/1/24 158/1/24
f  177/1/24 178/1/24 179/1/24
f  169/1/24 162/1/24 161/1/24
f  177/1/24 174/1/24 178/1/24
f  155/1/24 157/1/24 156/1/24
f  161/1/24 160/1/24 180/1/24
f  170/1/24 181/1/24 171/1/24
f  164/1/24 175/1/24 154/1/24
f  170/1/24 179/1/24 181/1/24
f  169/1/24 182/1/24 162/1/24
f  165/1/24 171/1/24 166/1/24
f  167/1/24 166/1/24 168/1/24
f  183/1/24 184/1/24 185/1/24
f  184/1/24 186/1/24 185/1/24
f  187/1/24 175/1/24 164/1/24
f  172/1/24 188/1/24 189/1/24
f  188/1/24 185/1/24 186/1/24
f  172/1/24 174/1/24 177/1/24
f  186/1/24 189/1/24 188/1/24
f  177/1/24 179/1/24 170/1/24
f  189/1/24 173/1/24 172/1/24
f  190/1/24 191/1/24 192/1/24
f  192/1/24 191/1/24 193/1/24 200/1/24
f  192/1/24 194/1/24 190/1/24
f  195/1/24 190/1/24 194/1/24
f  185/1/24 195/1/24 183/1/24
f  194/1/24 183/1/24 195/1/24
f  196/1/24 197/1/24 198/1/24 204/1/24
f  199/1/24 198/1/24 197/1/24
f  193/1/24 199/1/24 200/1/24
f  197/1/24 200/1/24 199/1/24
f  108/1/24 109/1/24 201/1/24 202/1/24
f  203/1/25 104/1/26 103/1/27 211/1/28
f  196/1/24 204/1/24 202/1/24 201/1/24
f  205/1/29 99/1/29 101/1/29 208/1/29
f  206/1/30 105/1/31 104/1/26 203/1/25
f  207/1/32 107/1/32 106/1/32 232/1/32
f  96/1/33 109/1/34 105/1/31 206/1/30
f  208/1/35 101/1/35 108/1/36 94/1/37
f  209/1/38 111/1/39 112/1/40 217/1/41
f  210/1/42 102/1/43 111/1/39 209/1/38
f  211/1/28 103/1/27 102/1/43 210/1/42
f  212/1/44 115/1/45 114/1/46 220/1/47
f  213/1/48 113/1/49 110/1/50 215/1/50
f  214/1/23 100/1/23 116/1/23 221/1/23
f  215/1/51 110/1/51 100/1/51 214/1/51
f  216/1/52 117/1/53 115/1/45 212/1/44
f  217/1/41 112/1/40 117/1/53 216/1/52
f  218/1/54 120/1/55 119/1/56 227/1/57
f  219/1/58 118/1/59 113/1/49 213/1/48
f  220/1/47 114/1/46 120/1/55 218/1/54
f  221/1/60 116/1/60 107/1/60 207/1/60
f  222/1/61 124/1/62 123/1/63 224/1/64
f  223/1/65 125/1/66 121/1/67 230/1/68
f  224/1/64 123/1/63 122/1/69 225/1/70
f  225/1/70 122/1/69 126/1/71 226/1/72
f  226/1/72 126/1/71 118/1/59 219/1/58
f  227/1/57 119/1/56 125/1/66 223/1/65
f  2/1/73 143/1/74 129/1/75 6/1/76
f  228/1/77 133/1/78 131/1/79 231/1/80
f  11/1/81 128/1/82 132/1/83 229/1/84
f  6/1/76 129/1/75 128/1/82 11/1/81
f  8/1/23 146/1/23 145/1/23 9/1/23
f  229/1/84 132/1/83 124/1/62 222/1/61
f  230/1/68 121/1/67 133/1/78 228/1/77
f  7/1/85 38/1/85 146/1/85 8/1/85
f  4/1/86 127/1/87 144/1/88 5/1/89
f  27/1/90 138/1/91 137/1/92 21/1/93
f  9/1/29 145/1/29 147/1/29 12/1/29
f  12/1/29 147/1/29 148/1/29 15/1/29
f  15/1/29 148/1/29 152/1/29 31/1/29
f  31/1/29 152/1/29 149/1/94 17/1/95
f  17/1/95 149/1/94 153/1/96 32/1/97
f  10/1/98 130/1/99 127/1/87 4/1/86
f  32/1/97 153/1/96 150/1/100 24/1/101
f  24/1/101 150/1/100 138/1/91 27/1/90
f  30/1/102 135/1/103 139/1/104 1/1/105
f  231/1/80 131/1/79 130/1/99 10/1/98
f  1/1/105 139/1/104 143/1/74 2/1/73
f  21/1/93 137/1/92 136/1/106 23/1/107
f  23/1/107 136/1/106 135/1/103 30/1/102
f  28/1/108 151/1/109 134/1/22 29/1/21
f  33/1/110 140/1/111 142/1/112 34/1/113
f  34/1/113 142/1/112 151/1/109 28/1/108
f  3/1/114 141/1/115 140/1/111 33/1/110
f  5/1/89 144/1/88 141/1/115 3/1/114
f  46/1/24 42/1/24 38/1/24
f  57/1/23 163/1/23 154/1/23 49/1/23
f  74/1/116 181/1/117 179/1/118 70/1/119
f  70/1/119 179/1/118 178/1/120 71/1/121
f  59/1/122 166/1/123 171/1/124 63/1/125
f  63/1/125 171/1/124 181/1/117 74/1/116
f  52/1/126 160/1/127 162/1/128 54/1/129
f  54/1/129 162/1/128 182/1/130 75/1/131
f  49/1/132 154/1/132 156/1/133 47/1/134
f  47/1/134 156/1/133 158/1/135 50/1/136
f  50/1/136 158/1/135 160/1/127 52/1/126
f  62/1/137 168/1/138 166/1/123 59/1/122
f  56/1/139 164/1/139 163/1/139 57/1/139
f  75/1/131 182/1/130 168/1/138 62/1/137
f  81/1/140 189/1/141 186/1/142 79/1/143
f  66/1/144 173/1/145 189/1/141 81/1/140
f  65/1/146 174/1/147 173/1/145 66/1/144
f  71/1/121 178/1/120 174/1/147 65/1/146
f  68/1/23 175/1/23 187/1/23 80/1/23
f  67/1/148 172/1/149 177/1/150 72/1/151
f  78/1/152 183/1/153 194/1/154 87/1/155
f  82/1/156 188/1/157 172/1/149 67/1/148
f  64/1/158 170/1/159 165/1/160 60/1/161
f  77/1/162 184/1/163 183/1/153 78/1/152
f  60/1/161 165/1/160 167/1/164 58/1/165
f  72/1/151 177/1/150 170/1/159 64/1/158
f  61/1/166 169/1/167 161/1/168 55/1/169
f  55/1/169 161/1/168 180/1/170 73/1/171
f  73/1/171 180/1/170 159/1/172 53/1/173
f  53/1/173 159/1/172 176/1/174 69/1/175
f  69/1/175 176/1/174 157/1/176 51/1/177
f  51/1/177 157/1/176 155/1/178 48/1/179
f  48/1/179 155/1/178 175/1/180 68/1/180
f  58/1/165 167/1/164 169/1/167 61/1/166
f  79/1/143 186/1/142 184/1/163 77/1/162
f  84/1/181 191/1/182 190/1/183 85/1/184
f  83/1/185 192/1/186 200/1/187 93/1/188
f  85/1/184 190/1/183 195/1/189 88/1/190
f  88/1/190 195/1/189 185/1/191 76/1/192
f  87/1/155 194/1/154 192/1/186 83/1/185
f  76/1/192 185/1/191 188/1/157 82/1/156
f  80/1/193 187/1/193 164/1/193 56/1/193
f  90/1/194 197/1/195 196/1/196 91/1/197
f  89/1/198 198/1/199 199/1/200 92/1/201
f  93/1/188 200/1/187 197/1/195 90/1/194
f  92/1/201 199/1/200 193/1/202 86/1/203
f  86/1/203 193/1/202 191/1/182 84/1/181
f  94/1/37 108/1/36 202/1/204 97/1/205
f  95/1/206 201/1/207 109/1/34 96/1/33
f  91/1/197 196/1/196 201/1/207 95/1/206
f  232/1/23 106/1/23 99/1/23 205/1/23
f  97/1/205 202/1/204 204/1/208 98/1/209
f  98/1/209 204/1/208 198/1/199 89/1/198
f  214/1/1 205/1/1 208/1/1 215/1/1
f  211/1/1 210/1/1 208/1/1
f  203/1/1 211/1/1 208/1/1
f  208/1/1 206/1/1 203/1/1
f  207/1/1 232/1/1 205/1/1
f  208/1/1 94/1/1 96/1/1 206/1/1
f  210/1/1 209/1/1 215/1/1
f  209/1/1 217/1/1 215/1/1
f  210/1/1 215/1/1 208/1/1
f  205/1/1 214/1/1 207/1/1
f  212/1/1 220/1/1 213/1/1
f  214/1/1 221/1/1 207/1/1
f  215/1/1 212/1/1 213/1/1
f  216/1/1 212/1/1 215/1/1
f  217/1/1 216/1/1 215/1/1
f  218/1/1 227/1/1 219/1/1
f  218/1/1 219/1/1 213/1/1 220/1/1
f  230/1/1 224/1/1 225/1/1 223/1/1
f  222/1/1 224/1/1 230/1/1
f  226/1/1 227/1/1 223/1/1 225/1/1
f  226/1/1 219/1/1 227/1/1
f  6/1/1 11/1/1 4/1/1
f  231/1/1 10/1/1 11/1/1
f  228/1/1 231/1/1 229/1/1
f  11/1/1 229/1/1 231/1/1
f  229/1/1 222/1/1 228/1/1
f  230/1/1 228/1/1 222/1/1
f  23/1/1 30/1/1 29/1/1
f  21/1/1 23/1/1 19/1/1
f  3/1/1 33/1/1 1/1/1
f  30/1/1 1/1/1 34/1/1
f  5/1/1 3/1/1 2/1/1
