# 
# Wavefront OBJ file
# Converted by the DEEP Exploration 3.5.10.1242
# Right Hemisphere, LTD
# http://www.righthemisphere.com/
# 
mtllib arrow20.mtl
# object Mesh 
g Mesh_
v 9.28618 5.22272 -0.491102
v 9.28618 3.67385 -0.491102
v 0.68144 3.67385 -0.491102
v 0.3848 -5.22272 -0.491102
v -6.60302 -3.65495 -0.491102
v 0.3848 -3.65495 -0.491102
v -9.28618 -5.22272 -0.491102
v -7.71842 -2.53955 -0.491102
v -9.28618 4.44827 -0.491102
v -7.71842 4.44827 -0.491102
v 0.068051 5.22272 -0.491102
v 9.28618 5.22272 0.491102
v 0.68144 3.67385 0.491102
v 9.28618 3.67385 0.491102
v 0.3848 -3.65495 0.491102
v -6.60302 -3.65495 0.491102
v 0.3848 -5.22272 0.491102
v -9.28618 -5.22272 0.491102
v -7.71842 -2.53955 0.491102
v -9.28618 4.44827 0.491102
v -7.71842 4.44827 0.491102
v 0.068051 5.22272 0.491102
# 22 verticies
vt 0 0
# 1 texture verticies
vn 0 0 -1
vn 0 0 1
vn 1 0 0
vn 0 -1 0
vn 0.709249 -0.704958 0
vn 0 1 0
vn -1 0 0
vn -0.706005 0.708207 0
# 8 normals
usemtl mat__ACI__7
f  1/1/1 2/1/1 3/1/1
f  4/1/1 5/1/1 6/1/1
f  4/1/1 7/1/1 5/1/1
f  3/1/1 5/1/1 8/1/1
f  5/1/1 7/1/1 8/1/1
f  9/1/1 8/1/1 7/1/1
f  9/1/1 10/1/1 8/1/1
f  11/1/1 1/1/1 3/1/1
f  3/1/1 8/1/1 11/1/1
f  12/1/2 13/1/2 14/1/2
f  15/1/2 16/1/2 17/1/2
f  16/1/2 18/1/2 17/1/2
f  19/1/2 16/1/2 13/1/2
f  19/1/2 18/1/2 16/1/2
f  18/1/2 19/1/2 20/1/2
f  21/1/2 20/1/2 19/1/2
f  13/1/2 12/1/2 22/1/2
f  22/1/2 19/1/2 13/1/2
f  12/1/3 14/1/3 2/1/3 1/1/3
f  14/1/4 13/1/4 3/1/4 2/1/4
f  13/1/5 16/1/5 5/1/5 3/1/5
f  16/1/6 15/1/6 6/1/6 5/1/6
f  15/1/3 17/1/3 4/1/3 6/1/3
f  17/1/4 18/1/4 7/1/4 4/1/4
f  18/1/7 20/1/7 9/1/7 7/1/7
f  20/1/6 21/1/6 10/1/6 9/1/6
f  21/1/3 19/1/3 8/1/3 10/1/3
f  19/1/8 22/1/8 11/1/8 8/1/8
f  22/1/6 12/1/6 1/1/6 11/1/6
