# 
# Wavefront OBJ file
# Converted by the DEEP Exploration 3.5.10.1242
# Right Hemisphere, LTD
# http://www.righthemisphere.com/
# 
mtllib arrow52.mtl
# object Mesh 
g Mesh_
v -5.16549 -0.705456 7.86496
v -5.16549 -0.705456 -7.96083
v -5.16549 0.705456 -7.96083
v 2.75121 0.705456 -4.65964
v 2.75121 0.705456 -5.74477
v 4.96645 0.705456 -6.86456
v 2.75121 0.705456 -7.96083
v 2.75121 0.705456 -9.12905
v 5.16549 0.705456 6.76476
v 2.75121 0.705456 9.12905
v 2.75121 0.705456 7.86496
v 2.75121 0.705456 5.66837
v 2.75121 0.705456 4.35474
v 2.75121 -0.705456 9.12905
v 2.75121 -0.705456 5.66837
v 2.75121 -0.705456 -4.65964
v 2.75121 -0.705456 -7.96083
v 2.75121 -0.705456 -9.12905
v 2.75121 -0.705456 4.35474
v 2.75121 -0.705456 7.86496
v 2.75121 -0.705456 -5.74477
v 4.96645 -0.705456 -6.86456
v -3.08642 0.705456 5.66837
v -3.08642 0.705456 -5.74477
v 5.16549 -0.705456 6.76476
v 1.57561 -0.705456 -0.0854275
v -0.600776 0.705456 2.12073
v 1.57561 0.705456 -0.0854275
v -3.08642 -0.705456 5.66837
v -0.600776 -0.705456 -2.27033
v -3.08642 -0.705456 -5.74477
v -0.600776 0.705456 1.1533
v -0.600776 0.705456 -1.12173
v -0.600776 0.705456 -2.27033
v -0.600776 -0.705456 2.12073
v -0.600776 -0.705456 -1.12173
v -5.16549 0.705456 7.86496
v -0.600776 -0.705456 1.1533
v -3.08642 0.705456 1.1533
v -3.08642 0.705456 -1.12173
v -3.08642 -0.705456 1.1533
v -3.08642 -0.705456 -1.12173
# 42 verticies
vt 0 0
# 1 texture verticies
vn -1 0 0
vn 0 1 0
vn 0.714839 0 -0.699289
vn 0.706483 0 -0.70773
vn 0.705453 0 0.708756
vn 0.699671 0 0.714465
vn 0 -1 0
vn 0.711894 0 0.702287
vn 0 0 1
vn 0 0 -1
vn 0.708486 0 -0.705725
vn 1 0 0
# 12 normals
usemtl Texture_0
f  37/1/1 3/1/1 2/1/1 1/1/1
f  6/1/2 5/1/2 4/1/2
f  5/1/2 6/1/2 7/1/2
f  7/1/2 6/1/2 8/1/2
f  11/1/2 10/1/2 9/1/2
f  12/1/2 11/1/2 9/1/2
f  12/1/2 9/1/2 13/1/2
f  20/1/1 14/1/1 10/1/1 11/1/1
f  19/1/1 15/1/1 12/1/1 13/1/1
f  21/1/1 16/1/1 4/1/1 5/1/1
f  18/1/1 17/1/1 7/1/1 8/1/1
f  22/1/3 18/1/3 8/1/3 6/1/3
f  25/1/4 19/1/4 13/1/4 9/1/4
f  6/1/5 4/1/5 16/1/5 22/1/5
f  12/1/2 23/1/2 11/1/2
f  24/1/2 5/1/2 7/1/2
f  9/1/6 10/1/6 14/1/6 25/1/6
f  16/1/7 21/1/7 22/1/7
f  22/1/7 21/1/7 17/1/7
f  17/1/7 18/1/7 22/1/7
f  20/1/7 25/1/7 14/1/7
f  15/1/7 25/1/7 20/1/7
f  15/1/7 19/1/7 25/1/7
f  35/1/8 26/1/8 28/1/8 27/1/8
f  31/1/9 21/1/9 5/1/9 24/1/9
f  23/1/10 12/1/10 15/1/10 29/1/10
f  34/1/11 28/1/11 26/1/11 30/1/11
f  29/1/7 15/1/7 20/1/7
f  31/1/7 17/1/7 21/1/7
f  28/1/2 32/1/2 27/1/2
f  32/1/2 28/1/2 33/1/2
f  33/1/2 28/1/2 34/1/2
f  38/1/1 35/1/1 27/1/1 32/1/1
f  30/1/1 36/1/1 33/1/1 34/1/1
f  1/1/9 20/1/9 11/1/9 37/1/9
f  32/1/2 33/1/2 40/1/2 39/1/2
f  3/1/10 7/1/10 17/1/10 2/1/10
f  29/1/12 41/1/12 39/1/12 23/1/12
f  42/1/12 31/1/12 24/1/12 40/1/12
f  35/1/7 38/1/7 26/1/7
f  26/1/7 38/1/7 36/1/7
f  36/1/7 30/1/7 26/1/7
f  24/1/2 7/1/2 3/1/2
f  23/1/2 37/1/2 11/1/2
f  36/1/10 42/1/10 40/1/10 33/1/10
f  41/1/9 38/1/9 32/1/9 39/1/9
f  38/1/7 41/1/7 42/1/7 36/1/7
f  37/1/2 39/1/2 3/1/2
f  31/1/7 2/1/7 17/1/7
f  1/1/7 29/1/7 20/1/7
f  40/1/2 24/1/2 3/1/2
f  39/1/2 37/1/2 23/1/2
f  39/1/2 40/1/2 3/1/2
f  2/1/7 41/1/7 1/1/7
f  42/1/7 2/1/7 31/1/7
f  41/1/7 29/1/7 1/1/7
f  41/1/7 2/1/7 42/1/7
