# 
# Wavefront OBJ file
# Converted by the DEEP Exploration 3.5.10.1242
# Right Hemisphere, LTD
# http://www.righthemisphere.com/
# 
mtllib arrow62.mtl
# object Mesh 
g Mesh_
v -3.63525 -0.764925 3.15356
v -3.93233 -0.764925 3.37184
v -3.93233 0.764925 3.37184
v -3.64138 -0.764925 -3.16647
v -3.35111 -0.764925 -2.92264
v -3.35111 0.764925 -2.92264
v -3.35111 -0.764925 2.90106
v -3.63525 0.764925 3.15356
v -3.08147 -0.764925 -2.65366
v -3.08147 0.764925 -2.65366
v -3.08147 -0.764925 2.62523
v -3.35111 0.764925 2.90106
v -2.84408 -0.764925 -2.36885
v -2.84408 0.764925 -2.36885
v -2.84408 -0.764925 2.33691
v -3.08147 0.764925 2.62523
v -4.56526 -0.764925 3.70575
v -4.89967 -0.764925 3.82155
v -4.89967 0.764925 3.82155
v -4.24232 -0.764925 3.5559
v -4.56526 0.764925 3.70575
v -4.90593 -0.764925 -3.81668
v -4.57427 -0.764925 -3.70288
v -4.57427 0.764925 -3.70288
v -4.25296 -0.764925 -3.55659
v -4.25296 0.764925 -3.55659
v -4.24232 0.764925 3.5559
v -3.942 -0.764925 -3.37777
v -3.942 0.764925 -3.37777
v -5.59851 -0.764925 3.95164
v -5.96295 -0.764925 3.96592
v -5.96295 0.764925 3.96592
v -5.96295 -0.764925 -3.96298
v -5.60025 -0.764925 -3.94671
v -5.60025 0.764925 -3.94671
v -5.24791 -0.764925 -3.89795
v -5.24791 0.764925 -3.89795
v -5.24408 -0.764925 3.90353
v -5.59851 0.764925 3.95164
v -4.90593 0.764925 -3.81668
v -5.24408 0.764925 3.90353
v -6.7509 -0.764925 3.89261
v -7.12209 -0.764925 3.80099
v -7.12209 0.764925 3.80099
v -7.12209 -0.764925 -3.79375
v -6.7509 -0.764925 -3.88425
v -6.7509 0.764925 -3.88425
v -6.36451 -0.764925 3.94759
v -6.7509 0.764925 3.89261
v -6.36451 -0.764925 -3.94066
v -6.36451 0.764925 -3.94066
v -5.96295 0.764925 -3.96298
v -6.36451 0.764925 3.94759
v -8.45342 0.764925 -3.0823
v -8.74743 0.764925 -2.81472
v -8.14388 0.764925 3.30623
v -8.45342 0.764925 3.06802
v -9.89861 0.764925 -0.0107115
v -9.88059 0.764925 -0.411184
v -7.81877 0.764925 3.50779
v -8.14388 0.764925 -3.31389
v -7.12209 0.764925 -3.79375
v -7.81877 0.764925 -3.50951
v -7.47811 0.764925 -3.66915
v -7.47811 0.764925 3.67272
v -9.01911 0.764925 -2.51433
v -9.88059 0.764925 0.381815
v -9.25392 0.764925 2.16451
v 5.7003 -0.764925 -4.33646
v 9.89861 -0.764925 -0.0107115
v 9.89861 0.764925 -0.0107115
v 5.7003 -0.764925 4.33646
v 5.7003 0.764925 4.33646
v 5.7003 -0.764925 3.66375
v 8.94167 -0.764925 0.332388
v 8.94167 0.764925 0.332388
v -9.45185 0.764925 1.83205
v -9.73775 0.764925 1.13093
v -9.82697 0.764925 0.762369
v -9.73775 0.764925 -1.16936
v -9.61291 0.764925 -1.52708
v -9.45185 0.764925 -1.8705
v -9.82697 0.764925 -0.797396
v -9.25392 0.764925 -2.1996
v -9.61291 0.764925 1.48751
v 8.98484 -0.764925 -0.328416
v 5.7003 -0.764925 -3.68533
v 5.7003 0.764925 -3.68533
v -2.08837 -0.764925 -0.328416
v 8.98484 0.764925 -0.328416
v 5.7003 0.764925 3.66375
v 5.7003 0.764925 -4.33646
v -2.08837 -0.764925 0.332388
v -2.08837 0.764925 0.332388
v -2.63896 -0.764925 -2.06818
v -2.4661 -0.764925 -1.75165
v -2.13609 -0.764925 0.701093
v -2.63896 -0.764925 2.03612
v -2.21496 -0.764925 1.05573
v -2.21496 -0.764925 -1.07139
v -2.32496 -0.764925 1.39633
v -2.32496 -0.764925 -1.41937
v -2.13609 -0.764925 -0.707743
v -2.4661 -0.764925 1.72285
v -9.89861 -0.764925 -0.0107115
v -8.45342 -0.764925 3.06802
v -9.01911 -0.764925 2.48488
v -9.25392 -0.764925 2.16451
v -8.74743 -0.764925 -2.81472
v -9.01911 -0.764925 -2.51433
v -8.74743 -0.764925 2.79315
v -7.81877 -0.764925 3.50779
v -8.14388 -0.764925 3.30623
v -7.47811 -0.764925 3.67272
v -8.14388 -0.764925 -3.31389
v -7.81877 -0.764925 -3.50951
v -7.47811 -0.764925 -3.66915
v -9.25392 -0.764925 -2.1996
v -9.01911 0.764925 2.48488
v -8.45342 -0.764925 -3.0823
v -8.74743 0.764925 2.79315
v -9.88059 -0.764925 -0.411184
v -9.82697 -0.764925 -0.797396
v -9.88059 -0.764925 0.381815
v -9.82697 -0.764925 0.762369
v -9.73775 -0.764925 -1.16936
v -9.61291 -0.764925 -1.52708
v -9.45185 -0.764925 1.83205
v -9.61291 -0.764925 1.48751
v -9.73775 -0.764925 1.13093
v -9.45185 -0.764925 -1.8705
v -2.4661 0.764925 -1.75165
v -2.63896 0.764925 -2.06818
v -2.84408 0.764925 2.33691
v -2.63896 0.764925 2.03612
v -2.32496 0.764925 -1.41937
v -2.4661 0.764925 1.72285
v -2.32496 0.764925 1.39633
v -2.08837 0.764925 -0.328416
v -2.13609 0.764925 -0.707743
v -2.13609 0.764925 0.701093
v -2.21496 0.764925 -1.07139
v -2.21496 0.764925 1.05573
v -3.64138 0.764925 -3.16647
# 144 verticies
vt 0 0
# 1 texture verticies
vn 0.625478 0 0.780242
vn 0.548223 0 0.836332
vn 0.555801 0 0.831315
vn 0.632312 0 0.774714
vn 0.612944 0 -0.790127
vn 0.678345 0 -0.734744
vn 0.672309 0 -0.74027
vn 0.606506 0 -0.795079
vn 0.687661 0 0.726032
vn 0.692553 0 0.721367
vn 0.740875 0 -0.671643
vn 0.734992 0 -0.678076
vn 0.741456 0 0.671001
vn 0.746901 0 0.664935
vn 0.800717 0 -0.599043
vn 0.795306 0 -0.606208
vn 0.797332 0 0.603541
vn 0.802407 0 0.596777
vn 0.370291 0 0.928916
vn 0.275384 0 0.961334
vn 0.28408 0 0.958801
vn 0.378824 0 0.925469
vn 0.462232 0 0.886759
vn 0.470452 0 0.882426
vn 0.282416 0 -0.959292
vn 0.373949 0 -0.927449
vn 0.365823 0 -0.930684
vn 0.273987 0 -0.961733
vn 0.460802 0 -0.887503
vn 0.453123 0 -0.891448
vn 0.540914 0 -0.841078
vn 0.533825 0 -0.845595
vn 0.082494 0 0.996592
vn -0.007457 0 0.999972
vn 0.000703 0 1
vn 0.091294 0 0.995824
vn -0.000704 0 -1
vn 0.095244 0 -0.995454
vn 0.086764 0 -0.996229
vn -0.010352 0 -0.999946
vn 0.188613 0 -0.982052
vn 0.180063 0 -0.983655
vn 0.17881 0 0.983884
vn 0.187664 0 0.982233
vn -0.195238 0 0.980756
vn -0.294435 0 0.955672
vn -0.284912 0 0.958554
vn -0.185663 0 0.982614
vn -0.279447 0 -0.960161
vn -0.186367 0 -0.98248
vn -0.195324 0 -0.980739
vn -0.28839 0 -0.957513
vn -0.097985 0 0.995188
vn -0.088583 0 0.996069
vn -0.095634 0 -0.995417
vn -0.104417 0 -0.994534
vn 0 1 0
vn 0.717598 0 -0.696457
vn 0.719316 0 0.694683
vn -0.716722 0 -0.697359
vn -0.714771 0 0.699359
vn 0 0 -1
vn -1 0 0
vn 0 0 1
vn 0 -1 0
vn -0.486381 0 0.873747
vn -0.573172 0 0.819435
vn -0.56513 0 0.825002
vn -0.477637 0 0.878557
vn -0.392513 0 0.919746
vn -0.38327 0 0.923636
vn -0.554014 0 -0.832507
vn -0.466237 0 -0.88466
vn -0.474939 0 -0.880019
vn -0.562057 0 -0.827098
vn -0.373337 0 -0.927696
vn -0.382285 0 -0.924045
vn -0.82753 0 -0.561422
vn -0.769439 0 -0.638721
vn -0.775374 0 -0.631502
vn -0.832924 0 -0.553388
vn -0.781955 0 0.623335
vn -0.836404 0 0.548114
vn -0.831241 0 0.555913
vn -0.776317 0 0.630343
vn -0.70481 0 -0.709396
vn -0.711641 0 -0.702543
vn -0.720817 0 0.693126
vn -0.714049 0 0.700096
vn -0.633207 0 -0.773983
vn -0.640459 0 -0.767992
vn -0.650782 0 0.759265
vn -0.643566 0 0.765391
vn -0.995395 0 -0.095854
vn -0.981743 0 -0.190211
vn -0.983495 0 -0.180933
vn -0.996232 0 -0.086731
vn -0.999992 0 -0.004065
vn -0.999988 0 0.00491
vn -0.996103 0 0.088203
vn -0.995253 0 0.097321
vn -0.983112 0 0.183003
vn -0.981355 0 0.192205
vn -0.958135 0 -0.286317
vn -0.924124 0 -0.382092
vn -0.927833 0 -0.372996
vn -0.960845 0 -0.277086
vn -0.885902 0 0.463872
vn -0.927836 0 0.372989
vn -0.924209 0 0.381887
vn -0.881403 0 0.472365
vn -0.960393 0 0.27865
vn -0.957709 0 0.287737
vn -0.879982 0 -0.475008
vn -0.884636 0 -0.466283
vn 0.898141 0 -0.439708
vn 0.850509 0 -0.525961
vn 0.85528 0 -0.518167
vn 0.902082 0 -0.431565
vn 0.854068 0 0.520161
vn 0.849514 0 0.527566
vn 0.936484 0 -0.35071
vn 0.939548 0 -0.342418
vn 0.8997 0 0.436508
vn 0.93736 0 0.348362
vn 0.934281 0 0.356538
vn 0.895828 0 0.4444
vn 0.992178 0 -0.124833
vn 0.984981 0 -0.17266
vn 0.9864 0 -0.164363
vn 0.985664 0 0.168718
vn 0.991726 0 0.128371
vn 0.98421 0 0.177007
vn 0.965308 0 -0.261115
vn 0.967535 0 -0.252737
vn 0.966061 0 0.258315
vn 0.963798 0 0.266632
# 137 normals
usemtl Texture_0
f  8/1/1 3/1/2 2/1/3 1/1/4
f  144/1/5 6/1/6 5/1/7 4/1/8
f  12/1/9 8/1/1 1/1/4 7/1/10
f  6/1/6 10/1/11 9/1/12 5/1/7
f  16/1/13 12/1/9 7/1/10 11/1/14
f  10/1/11 14/1/15 13/1/16 9/1/12
f  134/1/17 16/1/13 11/1/14 15/1/18
f  21/1/19 19/1/20 18/1/21 17/1/22
f  27/1/23 21/1/19 17/1/22 20/1/24
f  40/1/25 24/1/26 23/1/27 22/1/28
f  24/1/26 26/1/29 25/1/30 23/1/27
f  3/1/2 27/1/23 20/1/24 2/1/3
f  26/1/29 29/1/31 28/1/32 25/1/30
f  39/1/33 32/1/34 31/1/35 30/1/36
f  52/1/37 35/1/38 34/1/39 33/1/40
f  35/1/38 37/1/41 36/1/42 34/1/39
f  41/1/43 39/1/33 30/1/36 38/1/44
f  37/1/41 40/1/25 22/1/28 36/1/42
f  19/1/20 41/1/43 38/1/44 18/1/21
f  49/1/45 44/1/46 43/1/47 42/1/48
f  62/1/49 47/1/50 46/1/51 45/1/52
f  53/1/53 49/1/45 42/1/48 48/1/54
f  47/1/50 51/1/55 50/1/56 46/1/51
f  51/1/55 52/1/37 33/1/40 50/1/56
f  32/1/34 53/1/53 48/1/54 31/1/35
f  55/1/57 47/1/57 54/1/57
f  57/1/57 56/1/57 49/1/57
f  6/1/57 59/1/57 58/1/57
f  60/1/57 44/1/57 56/1/57
f  54/1/57 62/1/57 61/1/57
f  61/1/57 64/1/57 63/1/57
f  65/1/57 44/1/57 60/1/57
f  54/1/57 47/1/57 62/1/57
f  6/1/57 66/1/57 59/1/57
f  68/1/57 16/1/57 67/1/57
f  67/1/57 16/1/57 58/1/57
f  61/1/57 62/1/57 64/1/57
f  57/1/57 49/1/57 53/1/57
f  44/1/57 49/1/57 56/1/57
f  92/1/58 71/1/58 70/1/58 69/1/58
f  55/1/57 51/1/57 47/1/57
f  71/1/59 73/1/59 72/1/59 70/1/59
f  91/1/60 76/1/60 75/1/60 74/1/60
f  79/1/57 78/1/57 77/1/57
f  68/1/57 67/1/57 79/1/57
f  82/1/57 81/1/57 80/1/57
f  84/1/57 80/1/57 83/1/57
f  66/1/57 83/1/57 59/1/57
f  78/1/57 85/1/57 77/1/57
f  66/1/57 84/1/57 83/1/57
f  79/1/57 77/1/57 68/1/57
f  80/1/57 84/1/57 82/1/57
f  90/1/61 88/1/61 87/1/61 86/1/61
f  139/1/62 90/1/62 86/1/62 89/1/62
f  73/1/63 91/1/63 74/1/63 72/1/63
f  88/1/63 92/1/63 69/1/63 87/1/63
f  76/1/64 94/1/64 93/1/64 75/1/64
f  96/1/65 13/1/65 95/1/65
f  97/1/65 15/1/65 11/1/65
f  99/1/65 98/1/65 15/1/65
f  100/1/65 9/1/65 13/1/65
f  101/1/65 98/1/65 99/1/65
f  15/1/65 97/1/65 99/1/65
f  102/1/65 13/1/65 96/1/65
f  13/1/65 102/1/65 100/1/65
f  9/1/65 100/1/65 103/1/65
f  104/1/65 98/1/65 101/1/65
f  93/1/65 97/1/65 11/1/65
f  103/1/65 5/1/65 9/1/65
f  38/1/65 30/1/65 2/1/65
f  22/1/65 23/1/65 36/1/65
f  20/1/65 17/1/65 18/1/65
f  4/1/65 5/1/65 50/1/65
f  25/1/65 36/1/65 23/1/65
f  4/1/65 50/1/65 28/1/65
f  89/1/65 105/1/65 103/1/65
f  2/1/65 18/1/65 38/1/65
f  11/1/65 105/1/65 89/1/65 93/1/65
f  25/1/65 28/1/65 34/1/65
f  30/1/65 1/1/65 2/1/65
f  18/1/65 2/1/65 20/1/65
f  1/1/65 31/1/65 7/1/65
f  106/1/65 7/1/65 48/1/65
f  50/1/65 33/1/65 28/1/65
f  31/1/65 1/1/65 30/1/65
f  34/1/65 36/1/65 25/1/65
f  7/1/65 31/1/65 48/1/65
f  34/1/65 28/1/65 33/1/65
f  103/1/65 105/1/65 5/1/65
f  107/1/65 11/1/65 7/1/65
f  107/1/65 108/1/65 11/1/65
f  110/1/65 109/1/65 5/1/65
f  7/1/65 111/1/65 107/1/65
f  7/1/65 106/1/65 111/1/65
f  109/1/65 50/1/65 5/1/65
f  70/1/65 75/1/65 86/1/65
f  60/1/66 56/1/67 113/1/68 112/1/69
f  65/1/70 60/1/66 112/1/69 114/1/71
f  61/1/72 63/1/73 116/1/74 115/1/75
f  75/1/65 70/1/65 72/1/65
f  70/1/65 86/1/65 69/1/65
f  63/1/73 64/1/76 117/1/77 116/1/74
f  64/1/76 62/1/49 45/1/52 117/1/77
f  44/1/46 65/1/70 114/1/71 43/1/47
f  84/1/78 66/1/79 110/1/80 118/1/81
f  119/1/82 68/1/83 108/1/84 107/1/85
f  66/1/79 55/1/86 109/1/87 110/1/80
f  121/1/88 119/1/82 107/1/85 111/1/89
f  55/1/86 54/1/90 120/1/91 109/1/87
f  57/1/92 121/1/88 111/1/89 106/1/93
f  54/1/90 61/1/72 115/1/75 120/1/91
f  56/1/67 57/1/92 106/1/93 113/1/68
f  59/1/94 83/1/95 123/1/96 122/1/97
f  58/1/98 59/1/94 122/1/97 105/1/99
f  67/1/100 58/1/98 105/1/99 124/1/101
f  79/1/102 67/1/100 124/1/101 125/1/103
f  80/1/104 81/1/105 127/1/106 126/1/107
f  77/1/108 85/1/109 129/1/110 128/1/111
f  83/1/95 80/1/104 126/1/107 123/1/96
f  78/1/112 79/1/102 125/1/103 130/1/113
f  85/1/109 78/1/112 130/1/113 129/1/110
f  68/1/83 77/1/108 128/1/111 108/1/84
f  82/1/114 84/1/78 118/1/81 131/1/115
f  81/1/105 82/1/114 131/1/115 127/1/106
f  75/1/65 72/1/65 74/1/65
f  86/1/65 87/1/65 69/1/65
f  75/1/65 89/1/65 86/1/65
f  89/1/65 75/1/65 93/1/65
f  46/1/65 109/1/65 120/1/65
f  42/1/65 113/1/65 106/1/65
f  5/1/65 105/1/65 122/1/65
f  112/1/65 113/1/65 43/1/65
f  120/1/65 115/1/65 45/1/65
f  115/1/65 116/1/65 117/1/65
f  114/1/65 112/1/65 43/1/65
f  120/1/65 45/1/65 46/1/65
f  5/1/65 122/1/65 110/1/65
f  108/1/65 124/1/65 11/1/65
f  124/1/65 105/1/65 11/1/65
f  115/1/65 117/1/65 45/1/65
f  42/1/65 106/1/65 48/1/65
f  113/1/65 42/1/65 43/1/65
f  50/1/65 109/1/65 46/1/65
f  125/1/65 128/1/65 130/1/65
f  124/1/65 108/1/65 125/1/65
f  131/1/65 126/1/65 127/1/65
f  118/1/65 123/1/65 126/1/65
f  110/1/65 122/1/65 123/1/65
f  130/1/65 128/1/65 129/1/65
f  110/1/65 123/1/65 118/1/65
f  125/1/65 108/1/65 128/1/65
f  118/1/65 126/1/65 131/1/65
f  96/1/116 95/1/117 133/1/118 132/1/119
f  95/1/117 13/1/16 14/1/15 133/1/118
f  15/1/18 98/1/120 135/1/121 134/1/17
f  102/1/122 96/1/116 132/1/119 136/1/123
f  104/1/124 101/1/125 138/1/126 137/1/127
f  98/1/120 104/1/124 137/1/127 135/1/121
f  89/1/128 103/1/129 140/1/130 139/1/128
f  97/1/131 93/1/132 94/1/132 141/1/133
f  100/1/134 102/1/122 136/1/123 142/1/135
f  101/1/125 99/1/136 143/1/137 138/1/126
f  103/1/129 100/1/134 142/1/135 140/1/130
f  99/1/136 97/1/131 141/1/133 143/1/137
f  4/1/8 28/1/32 29/1/31 144/1/5
f  132/1/57 133/1/57 14/1/57
f  141/1/57 16/1/57 134/1/57
f  143/1/57 134/1/57 135/1/57
f  142/1/57 14/1/57 10/1/57
f  143/1/57 135/1/57 138/1/57
f  141/1/57 134/1/57 143/1/57
f  136/1/57 132/1/57 14/1/57
f  142/1/57 136/1/57 14/1/57
f  140/1/57 142/1/57 10/1/57
f  138/1/57 135/1/57 137/1/57
f  94/1/57 16/1/57 141/1/57
f  10/1/57 6/1/57 140/1/57
f  3/1/57 39/1/57 41/1/57
f  37/1/57 24/1/57 40/1/57
f  27/1/57 19/1/57 21/1/57
f  6/1/57 144/1/57 51/1/57
f  24/1/57 37/1/57 26/1/57
f  29/1/57 51/1/57 144/1/57
f  139/1/57 140/1/57 58/1/57
f  41/1/57 19/1/57 3/1/57
f  16/1/57 94/1/57 139/1/57 58/1/57
f  35/1/57 29/1/57 26/1/57
f  3/1/57 8/1/57 39/1/57
f  19/1/57 27/1/57 3/1/57
f  12/1/57 32/1/57 8/1/57
f  53/1/57 12/1/57 57/1/57
f  29/1/57 52/1/57 51/1/57
f  39/1/57 8/1/57 32/1/57
f  37/1/57 35/1/57 26/1/57
f  53/1/57 32/1/57 12/1/57
f  52/1/57 29/1/57 35/1/57
f  140/1/57 6/1/57 58/1/57
f  119/1/57 12/1/57 16/1/57
f  119/1/57 16/1/57 68/1/57
f  66/1/57 6/1/57 55/1/57
f  121/1/57 12/1/57 119/1/57
f  12/1/57 121/1/57 57/1/57
f  51/1/57 55/1/57 6/1/57
f  76/1/57 71/1/57 90/1/57
f  76/1/57 73/1/57 71/1/57
f  92/1/57 90/1/57 71/1/57
f  91/1/57 73/1/57 76/1/57
f  92/1/57 88/1/57 90/1/57
f  139/1/57 76/1/57 90/1/57
f  139/1/57 94/1/57 76/1/57
