# 
# Wavefront OBJ file
# Converted by the DEEP Exploration 3.5.10.1242
# Right Hemisphere, LTD
# http://www.righthemisphere.com/
# 
mtllib arrow42.mtl
# object Mesh 
g Mesh_
v 3.218 -0.738601 -3.55234
v 3.0437 0.738601 -2.73211
v 3.218 0.738601 -3.55234
v 3.36315 -0.738601 -4.38229
v 3.36315 0.738601 -4.38229
v 3.0437 -0.738601 -2.73211
v 2.65903 0.738601 -1.10465
v 3.62385 -0.738601 -6.92996
v 3.56592 0.738601 -6.07136
v 3.62385 0.738601 -6.92996
v 3.65321 -0.738601 -7.79727
v 3.65321 0.738601 -7.79727
v 3.65401 -0.738601 -8.67326
v 3.65401 0.738601 -8.67326
v 3.62621 -0.738601 -9.55796
v 3.62621 0.738601 -9.55796
v 3.47911 -0.738601 -5.22196
v 3.47911 0.738601 -5.22196
v 3.56592 -0.738601 -6.07136
v 1.45125 -0.738601 3.63527
v 4.70344 -0.738601 4.47592
v 4.70344 0.738601 4.47592
v 0.170196 0.738601 -3.19411
v 0.351797 0.738601 -3.95474
v 1.85934 0.738601 2.07815
v -0.600962 0.738601 -0.135728
v 2.26309 0.738601 0.498472
v 0.629658 0.738601 -5.50662
v 0.725943 0.738601 -6.29788
v 0.853965 0.738601 -8.72895
v 0.844127 0.738601 -9.55796
v 0.837545 0.738601 -7.90927
v 0.794867 0.738601 -7.09891
v 0.504948 0.738601 -4.72558
v -1.67781 0.738601 9.55796
v 1.45125 0.738601 3.63527
v 0.853965 -0.738601 -8.72895
v 0.837545 -0.738601 -7.90927
v 0.794867 -0.738601 -7.09891
v 1.85934 -0.738601 2.07815
v 0.844127 -0.738601 -9.55796
v 2.26309 -0.738601 0.498472
v 0.725943 -0.738601 -6.29788
v 0.351797 -0.738601 -3.95474
v 0.170196 -0.738601 -3.19411
v -0.600962 -0.738601 -0.135728
v 0.629658 -0.738601 -5.50662
v 0.504948 -0.738601 -4.72558
v 2.65903 -0.738601 -1.10465
v -1.67781 -0.738601 9.55796
v -1.34086 0.738601 2.89882
v -1.34086 -0.738601 2.89882
v -4.70344 0.738601 2.05818
v -4.70344 -0.738601 2.05818
# 54 verticies
vt 0 0
# 1 texture verticies
vn 0.976115 0 0.217257
vn 0.982292 0 0.187356
vn 0.981231 0 0.192834
vn 0.975308 0 0.22085
vn 0.988408 0 0.151823
vn 0.987552 0 0.157291
vn 0.97222 0 0.23407
vn 0.971817 0 0.235735
vn 0.996646 0 0.08184
vn 0.998848 0 0.047978
vn 0.998585 0 0.053182
vn 0.996194 0 0.087166
vn 0.99989 0 0.014804
vn 0.999801 0 0.01994
vn 0.999842 0 -0.01778
vn 0.999919 0 -0.012724
vn 0.999507 0 -0.0314
vn 0.993186 0 0.116538
vn 0.992534 0 0.121969
vn 0.25026 0 -0.968179
vn 0 1 0
vn -0.99993 0 0.011867
vn -0.999979 0 -0.006512
vn -0.999999 0 -0.00164
vn -0.999247 0 -0.038787
vn -0.999427 0 -0.033833
vn -0.997428 0 -0.071675
vn -0.997776 0 -0.066654
vn 0.967331 0 0.253518
vn 0.968227 0 0.250073
vn 0.967966 0 0.25108
vn 0 0 -1
vn 0.970018 0 0.243033
vn 0.96968 0 0.244377
vn -0.994925 0 -0.100624
vn -0.994375 0 -0.10592
vn 0 -1 0
vn 0.622977 0 0.78224
vn -0.970736 0 -0.240149
vn -0.971538 0 -0.236883
vn -0.970468 0 -0.241228
vn -0.970962 0 -0.239233
vn -0.9714 0 -0.237447
vn -0.976309 0 -0.21638
vn -0.977532 0 -0.210787
vn -0.989862 0 -0.14203
vn -0.983833 0 -0.17909
vn -0.984832 0 -0.173509
vn -0.990643 0 -0.136479
vn -0.927376 0 0.37413
vn 0.242536 0 -0.970142
# 51 normals
usemtl Texture_0
f  6/1/1 1/1/2 3/1/3 2/1/4
f  1/1/2 4/1/5 5/1/6 3/1/3
f  49/1/7 6/1/1 2/1/4 7/1/8
f  19/1/9 8/1/10 10/1/11 9/1/12
f  8/1/10 11/1/13 12/1/14 10/1/11
f  11/1/13 13/1/15 14/1/16 12/1/14
f  13/1/15 15/1/17 16/1/17 14/1/16
f  4/1/5 17/1/18 18/1/19 5/1/6
f  17/1/18 19/1/9 9/1/12 18/1/19
f  36/1/20 22/1/20 21/1/20 20/1/20
f  3/1/21 24/1/21 23/1/21 2/1/21
f  51/1/21 25/1/21 27/1/21 26/1/21
f  9/1/21 29/1/21 28/1/21 18/1/21
f  14/1/21 16/1/21 31/1/21 30/1/21
f  12/1/21 14/1/21 30/1/21 32/1/21
f  10/1/21 12/1/21 32/1/21 33/1/21
f  10/1/21 33/1/21 29/1/21 9/1/21
f  5/1/21 34/1/21 24/1/21 3/1/21
f  22/1/21 36/1/21 35/1/21
f  18/1/21 28/1/21 34/1/21 5/1/21
f  23/1/21 26/1/21 27/1/21 7/1/21
f  41/1/22 37/1/23 30/1/24 31/1/22
f  37/1/23 38/1/25 32/1/26 30/1/24
f  38/1/25 39/1/27 33/1/28 32/1/26
f  2/1/21 23/1/21 7/1/21
f  20/1/29 40/1/30 25/1/31 36/1/29
f  15/1/32 41/1/32 31/1/32 16/1/32
f  40/1/30 42/1/33 27/1/34 25/1/31
f  29/1/35 33/1/28 39/1/27 43/1/36
f  1/1/37 6/1/37 45/1/37 44/1/37
f  52/1/37 46/1/37 42/1/37 40/1/37
f  50/1/38 21/1/38 22/1/38 35/1/38
f  19/1/37 17/1/37 47/1/37 43/1/37
f  13/1/37 37/1/37 41/1/37 15/1/37
f  11/1/37 38/1/37 37/1/37 13/1/37
f  8/1/37 39/1/37 38/1/37 11/1/37
f  8/1/37 19/1/37 43/1/37 39/1/37
f  4/1/37 1/1/37 44/1/37 48/1/37
f  42/1/33 49/1/7 7/1/8 27/1/34
f  21/1/37 50/1/37 20/1/37
f  17/1/37 4/1/37 48/1/37 47/1/37
f  45/1/37 49/1/37 42/1/37 46/1/37
f  36/1/21 51/1/21 35/1/21
f  46/1/39 52/1/40 51/1/40 26/1/41
f  6/1/37 49/1/37 45/1/37
f  45/1/42 46/1/39 26/1/41 23/1/43
f  25/1/21 51/1/21 36/1/21
f  44/1/44 45/1/42 23/1/43 24/1/45
f  47/1/46 48/1/47 34/1/48 28/1/49
f  43/1/36 47/1/46 28/1/49 29/1/35
f  48/1/47 44/1/44 24/1/45 34/1/48
f  52/1/37 20/1/37 50/1/37
f  53/1/21 35/1/21 51/1/21
f  20/1/37 52/1/37 40/1/37
f  54/1/50 50/1/50 35/1/50 53/1/50
f  53/1/51 51/1/51 52/1/51 54/1/51
f  54/1/37 52/1/37 50/1/37
