# 
# Wavefront OBJ file
# Converted by the DEEP Exploration 3.5.10.1242
# Right Hemisphere, LTD
# http://www.righthemisphere.com/
# 
mtllib arrow50.mtl
# object Mesh 
g Mesh_
v 4.86307 -0.727789 -1.32171
v 4.86307 -0.727789 7.8962
v 4.86307 0.727789 7.8962
v 4.86307 0.727789 -1.32171
v 1.32118 -0.727789 -9.40914
v 4.16591 -0.727789 -6.59214
v 4.16591 0.727789 -6.59214
v 0.355407 -0.727789 -1.32171
v 1.32118 0.727789 -3.75318
v -1.0583 0.727789 7.8962
v 2.61701 -0.727789 0.739591
v 0.355407 -0.727789 0.739591
v 0.355407 0.727789 0.739591
v -1.0583 -0.727789 7.8962
v 1.32118 -0.727789 -3.75318
v 1.32118 -0.727789 -5.49692
v 1.32118 0.727789 -5.49692
v 1.32118 -0.727789 -7.60147
v 1.32118 0.727789 -9.40914
v -1.0583 -0.727789 5.83497
v 2.61701 -0.727789 5.83497
v 2.61701 0.727789 5.83497
v 2.61701 0.727789 0.739591
v -2.26714 -0.727789 -1.32171
v -0.329931 -0.727789 -1.32171
v -0.329931 0.727789 -1.32171
v 1.32118 0.727789 -7.60147
v -1.0583 -0.727789 9.40914
v -1.0583 0.727789 9.40914
v -1.0583 -0.727789 4.13242
v -1.0583 0.727789 5.83497
v -2.26714 -0.727789 -5.49692
v -2.26714 0.727789 -5.49692
v -0.329931 -0.727789 0.739591
v -0.329931 0.727789 0.739591
v 0.355407 0.727789 -1.32171
v -4.86307 -0.727789 -7.60147
v -1.0583 0.727789 4.13242
v -3.70655 -0.727789 6.80091
v -3.70655 0.727789 6.80091
v -2.26714 0.727789 -1.32171
v -4.86307 0.727789 -7.60147
v -4.86307 -0.727789 0.739591
v -4.86307 0.727789 0.739591
# 44 verticies
vt 0 0
# 1 texture verticies
vn 1 0 0
vn 0.703635 0 -0.710562
vn 0 0 -1
vn 0.706389 0 0.707824
vn 0 0 1
vn -1 0 0
vn 0 1 0
vn -0.701703 0 0.71247
vn -0.709793 0 -0.70441
vn 0 -1 0
# 10 normals
usemtl Texture_0
f  4/1/1 3/1/1 2/1/1 1/1/1
f  19/1/2 7/1/2 6/1/2 5/1/2
f  36/1/3 4/1/3 1/1/3 8/1/3
f  15/1/4 6/1/4 7/1/4 9/1/4
f  14/1/5 2/1/5 3/1/5 10/1/5
f  23/1/5 13/1/5 12/1/5 11/1/5
f  9/1/6 17/1/6 16/1/6 15/1/6
f  27/1/6 19/1/6 5/1/6 18/1/6
f  31/1/3 22/1/3 21/1/3 20/1/3
f  22/1/6 23/1/6 11/1/6 21/1/6
f  23/1/7 22/1/7 3/1/7
f  4/1/7 23/1/7 3/1/7
f  41/1/3 26/1/3 25/1/3 24/1/3
f  10/1/1 29/1/1 28/1/1 14/1/1
f  38/1/1 31/1/1 20/1/1 30/1/1
f  17/1/5 33/1/5 32/1/5 16/1/5
f  26/1/1 35/1/1 34/1/1 25/1/1
f  42/1/3 27/1/3 18/1/3 37/1/3
f  13/1/7 23/1/7 36/1/7
f  13/1/6 36/1/6 8/1/6 12/1/6
f  22/1/7 10/1/7 3/1/7
f  9/1/7 7/1/7 17/1/7
f  7/1/7 27/1/7 17/1/7
f  19/1/7 27/1/7 7/1/7
f  29/1/8 40/1/8 39/1/8 28/1/8
f  23/1/7 4/1/7 36/1/7
f  41/1/7 35/1/7 26/1/7
f  40/1/9 38/1/9 30/1/9 39/1/9
f  33/1/1 41/1/1 24/1/1 32/1/1
f  17/1/7 27/1/7 33/1/7
f  22/1/7 31/1/7 10/1/7
f  44/1/6 42/1/6 37/1/6 43/1/6
f  43/1/5 34/1/5 35/1/5 44/1/5
f  33/1/7 44/1/7 41/1/7
f  41/1/7 44/1/7 35/1/7
f  10/1/7 40/1/7 29/1/7
f  40/1/7 10/1/7 31/1/7
f  31/1/7 38/1/7 40/1/7
f  42/1/7 33/1/7 27/1/7
f  33/1/7 42/1/7 44/1/7
f  11/1/10 2/1/10 21/1/10
f  2/1/10 11/1/10 1/1/10
f  11/1/10 12/1/10 8/1/10
f  21/1/10 2/1/10 14/1/10
f  6/1/10 15/1/10 16/1/10
f  6/1/10 16/1/10 18/1/10
f  6/1/10 18/1/10 5/1/10
f  1/1/10 11/1/10 8/1/10
f  24/1/10 25/1/10 34/1/10
f  18/1/10 16/1/10 32/1/10
f  20/1/10 21/1/10 14/1/10
f  32/1/10 24/1/10 43/1/10
f  43/1/10 24/1/10 34/1/10
f  14/1/10 28/1/10 39/1/10
f  14/1/10 39/1/10 20/1/10
f  30/1/10 20/1/10 39/1/10
f  32/1/10 37/1/10 18/1/10
f  37/1/10 32/1/10 43/1/10
