# 
# Wavefront OBJ file
# Converted by the DEEP Exploration 3.5.10.1242
# Right Hemisphere, LTD
# http://www.righthemisphere.com/
# 
mtllib arrow56.mtl
# object Mesh 
g Mesh_
v -5.28268 -0.671426 -4.00015
v -5.58306 -0.671426 -4.54723
v -5.58306 0.671426 -4.54723
v -5.68944 -0.671426 -5.06401
v -5.10624 -0.671426 -4.49757
v -5.10624 0.671426 -4.49757
v -5.00992 -0.671426 -3.45228
v -5.28268 0.671426 -4.00015
v -4.71189 -0.671426 -2.90754
v -4.87067 -0.671426 -3.1808
v -4.87067 0.671426 -3.1808
v -7.97804 0.671426 -1.57671
v -7.31827 0.671426 -1.58205
v -7.86344 0.671426 -1.39797
v -4.52028 -0.671426 -3.95313
v -4.52028 0.671426 -3.95313
v -5.00992 0.671426 -3.45228
v -5.20635 -0.671426 -1.59853
v -4.8694 -0.671426 -1.55994
v -4.8694 0.671426 -1.55994
v -7.07216 0.671426 -1.19464
v -4.33572 -0.671426 -2.35572
v -4.53357 -0.671426 -2.63251
v -4.53357 0.671426 -2.63251
v -4.71189 0.671426 -2.90754
v -4.51548 -0.671426 -1.50536
v -4.51548 0.671426 -1.50536
v -4.12119 -0.671426 -0.220448
v -4.82681 -0.671426 -0.488124
v -4.82681 0.671426 -0.488124
v -6.69798 0.671426 -1.59844
v -6.3023 -0.671426 -0.975219
v -7.07216 -0.671426 -1.19464
v -6.69798 -0.671426 -1.59844
v -6.11833 -0.671426 -1.62311
v -6.11833 0.671426 -1.62311
v -5.55384 -0.671426 -0.73971
v -6.3023 0.671426 -0.975219
v -5.83081 -0.671426 -1.6301
v -5.83081 0.671426 -1.6301
v -5.91186 -0.671426 -5.09687
v -6.26988 -0.671426 -5.65246
v -6.26988 0.671426 -5.65246
v -5.52682 -0.671426 -1.62192
v -5.52682 0.671426 -1.62192
v -5.68944 0.671426 -5.06401
v -5.91186 0.671426 -5.09687
v -7.97804 -0.671426 -1.57671
v -7.31827 -0.671426 -1.58205
v -7.86344 -0.671426 -1.39797
v -8.67612 -0.671426 -1.58521
v -8.67612 0.671426 -1.58521
v 8.67612 0.671426 5.65246
v 3.33615 0.671426 1.37683
v 4.52033 0.671426 -0.64188
v 4.52033 -0.671426 -0.64188
v 8.67612 -0.671426 5.65246
v 2.28458 0.671426 3.17044
v 1.10041 0.671426 5.19458
v 3.33615 -0.671426 1.37683
v 2.10817 0.671426 0.720182
v 1.06576 0.671426 2.41493
v 2.10817 -0.671426 0.720182
v 1.10041 -0.671426 5.19458
v 2.28458 -0.671426 3.17044
v 0.887287 -0.671426 0.012638
v 1.06576 -0.671426 2.41493
v -0.185248 0.671426 1.69576
v 0.887287 0.671426 0.012638
v -0.185248 -0.671426 1.69576
v -1.46603 0.671426 1.01209
v -0.326488 -0.671426 -0.74858
v -0.326488 0.671426 -0.74858
v -2.13987 -0.671426 -1.99839
v -1.53317 0.671426 -1.56627
v -2.13987 0.671426 -1.99839
v -1.46603 -0.671426 1.01209
v -2.77418 0.671426 0.363156
v -1.53317 -0.671426 -1.56627
v -2.77418 -0.671426 0.363156
v -3.43698 0.671426 0.063303
v -3.33906 -0.671426 -2.93059
v -2.74184 0.671426 -2.45316
v -3.33906 0.671426 -2.93059
v -2.74184 -0.671426 -2.45316
v -4.11833 -0.671426 -2.07778
v -4.33572 0.671426 -2.35572
v -4.11833 0.671426 -2.07778
v -3.93155 0.671426 -3.4307
v -4.1441 0.671426 -1.43402
v -4.12119 0.671426 -0.220448
v -3.8814 -0.671426 -1.79935
v -3.8814 0.671426 -1.79935
v -4.1441 -0.671426 -1.43402
v -3.75524 0.671426 -1.3459
v -3.75524 -0.671426 -1.3459
v -3.34892 0.671426 -1.24101
v -3.93155 -0.671426 -3.4307
v -3.62493 -0.671426 -1.52043
v -3.62493 0.671426 -1.52043
v -3.43698 -0.671426 0.063303
v -3.34892 -0.671426 -1.24101
v -5.20635 0.671426 -1.59853
v -5.55384 0.671426 -0.73971
# 104 verticies
vt 0 0
# 1 texture verticies
vn -0.884739 0 0.466086
vn -0.8662 0 0.499698
vn -0.868811 0 0.495144
vn -0.887353 0 0.46109
vn 0.703173 0 -0.711019
vn 0.687484 0 -0.7262
vn 0.690001 0 -0.723808
vn 0.705573 0 -0.708637
vn -0.89288 0 0.450295
vn -0.892261 0 0.45152
vn -0.853276 0 0.521459
vn -0.878635 0 0.477494
vn -0.876352 0 0.481672
vn -0.850892 0 0.52534
vn 0 1 0
vn 0.670929 0 -0.741522
vn 0.673571 0 -0.739122
vn 0.095297 0 -0.995449
vn 0.135067 0 -0.990837
vn 0.131252 0 -0.991349
vn 0.091405 0 -0.995814
vn -0.802047 0 0.597261
vn -0.827716 0 0.561147
vn -0.825271 0 0.564738
vn -0.799504 0 0.600661
vn 0.172456 0 -0.985017
vn 0.168736 0 -0.985661
vn -0.366748 0 0.93032
vn -0.338753 0 0.940875
vn -0.343005 0 0.939333
vn -0.371081 0 0.9286
vn -0.285112 0 0.958494
vn -0.259525 0 0.965736
vn -0.263485 0 0.964664
vn -0.289175 0 0.957276
vn -0.035562 0 -0.999367
vn -0.032647 0 -0.999467
vn -0.03466 0 -0.999399
vn -0.033337 0 -0.999444
vn -0.311528 0 0.950237
vn -0.315688 0 0.948863
vn 0.003581 0 -0.999994
vn -0.000903 0 -1
vn -0.848222 0 0.529641
vn -0.84059 0 0.541672
vn -0.84059 0 0.541673
vn -0.85075 0 0.52557
vn 0.052008 0 -0.998647
vn 0.047822 0 -0.998856
vn 0.711938 0 -0.702243
vn 0.000581 0 -1
vn -0.018543 0 -0.999828
vn -0.015927 0 -0.999873
vn 0.003551 0 -0.999994
vn -0.234786 0 0.972047
vn -0.238638 0 0.971109
vn 0.01218 0 -0.999926
vn -0.224519 0 0.97447
vn 0 -1 0
vn 0.834516 0 -0.550983
vn -0.862549 0 -0.505973
vn 0.483992 0 -0.875072
vn 0.471552 0 -0.881838
vn 0.489114 0 -0.87222
vn -0.06033 0 0.998178
vn -0.863142 0 -0.504962
vn 0.513876 0 -0.857864
vn 0.518999 0 -0.854775
vn -0.487058 0 0.87337
vn -0.515131 0 0.857112
vn -0.510255 0 0.860023
vn -0.482349 0 0.875979
vn -0.459966 0 0.887936
vn -0.45543 0 0.890272
vn 0.548763 0 -0.835978
vn 0.543682 0 -0.839291
vn 0.572048 0 -0.82022
vn 0.593252 0 -0.805017
vn 0.58979 0 -0.807557
vn 0.568949 0 -0.822373
vn -0.431115 0 0.902297
vn -0.425926 0 0.904758
vn -0.399877 0 0.916569
vn -0.395467 0 0.91848
vn 0.615325 0 -0.788273
vn 0.63637 0 -0.771384
vn 0.63319 0 -0.773996
vn 0.612005 0 -0.790854
vn -0.773462 0 0.633842
vn -0.776096 0 0.630615
vn 0.655883 0 -0.754862
vn 0.65298 0 -0.757375
vn 0.20316 0 -0.979146
vn 0.206606 0 -0.978424
vn -0.74765 0 0.664093
vn -0.750286 0 0.661114
vn 0.23393 0 -0.972254
vn 0.237124 0 -0.971479
vn 0.24995 0 -0.968259
vn -0.722566 0 0.691302
vn -0.725182 0 0.688557
vn -0.71144 0 0.702747
vn -0.526855 0 0.849955
# 103 normals
usemtl Texture_0
f  8/1/1 3/1/2 2/1/3 1/1/4
f  46/1/5 6/1/6 5/1/7 4/1/8
f  17/1/9 8/1/1 1/1/4 7/1/10
f  25/1/11 11/1/12 10/1/13 9/1/14
f  14/1/15 13/1/15 12/1/15
f  6/1/6 16/1/16 15/1/17 5/1/7
f  11/1/12 17/1/9 7/1/10 10/1/13
f  103/1/18 20/1/19 19/1/20 18/1/21
f  13/1/15 14/1/15 21/1/15
f  87/1/22 24/1/23 23/1/24 22/1/25
f  24/1/23 25/1/11 9/1/14 23/1/24
f  20/1/19 27/1/26 26/1/27 19/1/20
f  91/1/28 30/1/29 29/1/30 28/1/31
f  13/1/15 21/1/15 31/1/15
f  38/1/32 21/1/33 33/1/34 32/1/35
f  31/1/36 36/1/37 35/1/38 34/1/39
f  104/1/40 38/1/32 32/1/35 37/1/41
f  36/1/37 40/1/42 39/1/43 35/1/38
f  47/1/44 43/1/45 42/1/46 41/1/47
f  40/1/42 45/1/48 44/1/49 39/1/43
f  43/1/50 46/1/5 4/1/8 42/1/50
f  3/1/2 47/1/44 41/1/47 2/1/3
f  12/1/51 13/1/52 49/1/53 48/1/54
f  21/1/33 14/1/55 50/1/56 33/1/34
f  48/1/54 51/1/57 52/1/57 12/1/51
f  13/1/52 31/1/36 34/1/39 49/1/53
f  51/1/58 50/1/56 14/1/55 52/1/58
f  50/1/59 51/1/59 48/1/59
f  55/1/15 54/1/15 53/1/15
f  55/1/60 53/1/60 57/1/60 56/1/60
f  54/1/15 58/1/15 53/1/15
f  58/1/15 59/1/15 53/1/15
f  54/1/61 55/1/61 56/1/61 60/1/61
f  54/1/15 61/1/15 62/1/15 58/1/15
f  61/1/62 54/1/63 60/1/63 63/1/64
f  53/1/65 59/1/65 64/1/65 57/1/65
f  59/1/66 58/1/66 65/1/66 64/1/66
f  69/1/67 61/1/62 63/1/64 66/1/68
f  70/1/69 67/1/70 62/1/71 68/1/72
f  77/1/73 70/1/69 68/1/72 71/1/74
f  66/1/68 72/1/75 73/1/76 69/1/67
f  63/1/59 67/1/59 70/1/59 66/1/59
f  79/1/77 74/1/78 76/1/79 75/1/80
f  80/1/81 77/1/73 71/1/74 78/1/82
f  72/1/75 79/1/77 75/1/80 73/1/76
f  66/1/59 70/1/59 77/1/59 72/1/59
f  101/1/83 80/1/81 78/1/82 81/1/84
f  85/1/85 82/1/86 84/1/87 83/1/88
f  74/1/78 85/1/85 83/1/88 76/1/79
f  72/1/59 77/1/59 80/1/59 79/1/59
f  22/1/25 86/1/89 88/1/90 87/1/22
f  98/1/91 15/1/17 16/1/16 89/1/92
f  94/1/93 26/1/27 27/1/26 90/1/94
f  86/1/89 92/1/95 93/1/96 88/1/90
f  96/1/97 94/1/93 90/1/94 95/1/98
f  102/1/99 96/1/97 95/1/98 97/1/99
f  82/1/86 98/1/91 89/1/92 84/1/87
f  92/1/95 99/1/100 100/1/101 93/1/96
f  28/1/31 101/1/83 81/1/84 91/1/28
f  99/1/100 102/1/102 97/1/102 100/1/101
f  85/1/59 74/1/59 102/1/59
f  18/1/21 44/1/49 45/1/48 103/1/18
f  79/1/59 102/1/59 74/1/59
f  102/1/59 79/1/59 80/1/59
f  37/1/41 29/1/30 30/1/29 104/1/40
f  98/1/59 23/1/59 9/1/59
f  96/1/59 28/1/59 29/1/59 94/1/59
f  23/1/59 98/1/59 22/1/59
f  98/1/59 82/1/59 22/1/59
f  86/1/59 22/1/59 82/1/59
f  101/1/59 28/1/59 102/1/59
f  82/1/59 92/1/59 86/1/59
f  102/1/59 28/1/59 96/1/59
f  99/1/59 92/1/59 82/1/59 85/1/59
f  99/1/59 85/1/59 102/1/59
f  102/1/59 80/1/59 101/1/59
f  5/1/59 2/1/59 4/1/59
f  18/1/59 37/1/59 44/1/59
f  2/1/59 5/1/59 1/1/59
f  26/1/59 29/1/59 37/1/59 19/1/59
f  19/1/59 37/1/59 18/1/59
f  15/1/59 10/1/59 7/1/59
f  1/1/59 5/1/59 15/1/59
f  15/1/59 7/1/59 1/1/59
f  15/1/59 98/1/59 9/1/59 10/1/59
f  94/1/59 29/1/59 26/1/59
f  34/1/59 32/1/59 33/1/59
f  14/1/15 12/1/15 52/1/15
f  35/1/59 32/1/59 34/1/59
f  4/1/59 41/1/59 42/1/59
f  32/1/59 35/1/59 39/1/59
f  41/1/59 4/1/59 2/1/59
f  32/1/59 39/1/59 44/1/59 37/1/59
f  49/1/59 50/1/59 48/1/59
f  49/1/59 33/1/59 50/1/59
f  49/1/59 34/1/59 33/1/59
f  56/1/59 57/1/59 60/1/59
f  67/1/70 65/1/103 58/1/103 62/1/71
f  65/1/59 60/1/59 57/1/59
f  61/1/15 69/1/15 68/1/15 62/1/15
f  69/1/15 73/1/15 71/1/15 68/1/15
f  65/1/59 57/1/59 64/1/59
f  60/1/59 65/1/59 67/1/59 63/1/59
f  73/1/15 75/1/15 78/1/15 71/1/15
f  83/1/15 97/1/15 76/1/15
f  75/1/15 76/1/15 97/1/15
f  97/1/15 78/1/15 75/1/15
f  25/1/15 24/1/15 89/1/15
f  95/1/15 90/1/15 30/1/15 91/1/15
f  87/1/15 89/1/15 24/1/15
f  87/1/15 84/1/15 89/1/15
f  87/1/15 88/1/15 84/1/15
f  81/1/15 97/1/15 91/1/15
f  84/1/15 88/1/15 93/1/15
f  91/1/15 97/1/15 95/1/15
f  100/1/15 83/1/15 84/1/15 93/1/15
f  83/1/15 100/1/15 97/1/15
f  78/1/15 97/1/15 81/1/15
f  6/1/15 46/1/15 3/1/15
f  45/1/15 104/1/15 103/1/15
f  8/1/15 6/1/15 3/1/15
f  27/1/15 20/1/15 104/1/15 30/1/15
f  103/1/15 104/1/15 20/1/15
f  16/1/15 17/1/15 11/1/15
f  6/1/15 8/1/15 16/1/15
f  16/1/15 8/1/15 17/1/15
f  16/1/15 11/1/15 25/1/15 89/1/15
f  30/1/15 90/1/15 27/1/15
f  31/1/15 21/1/15 38/1/15
f  36/1/15 31/1/15 38/1/15
f  43/1/15 47/1/15 46/1/15
f  38/1/15 40/1/15 36/1/15
f  47/1/15 3/1/15 46/1/15
f  38/1/15 104/1/15 45/1/15 40/1/15
