# Created By Carrara 5.0

mtllib arrow04.Mtl

# Number of vertices: 84
v -0.700428 -0.000001 0.810167
v -0.696499 0.006823 0.829629
v -0.685783 0.025432 0.845522
v -0.66989 0.053032 0.856238
v -0.650428 0.08683 0.860167
v -0.700428 1.750659 0.810167
v -0.696499 1.748369 0.829629
v -0.685783 1.742123 0.845522
v -0.66989 1.732859 0.856238
v -0.650428 1.721514 0.860167
v -0.700428 1.750659 -0.794988
v -0.700428 0 -0.794988
v 1.345174 2.909198 0.810167
v 1.398446 2.923236 0.81952
v 1.451897 2.937321 0.832044
v 1.499422 2.949845 0.846129
v 1.534917 2.959198 0.860167
v 1.345174 2.909198 -0.794988
v -8.672881 6.505026 -0.794988
v -8.672881 8.023145 -0.794988
v 1.345174 8.023145 -0.794988
v -0.744256 9.232664 -0.794988
v -0.744256 10.920013 -0.794988
v 8.75195 5.486116 -0.794988
v -8.672881 2.909198 -0.794988
v -8.672881 4.427308 -0.794988
v 3.997762 4.427308 -0.794988
v 5.805881 5.486116 -0.794988
v 4.055222 6.505026 -0.794988
v 8.751951 5.486116 0.810167
v 8.744081 5.486092 0.829629
v 8.722622 5.486026 0.845522
v 8.690792 5.485929 0.856238
v 8.651814 5.485809 0.860167
v 3.997762 4.427308 0.810167
v 3.998904 4.4231 0.829351
v 4.001835 4.412292 0.845152
v 4.006121 4.396492 0.85596
v 4.011325 4.377307 0.860167
v 5.805881 5.486116 0.810167
v 5.824869 5.486142 0.823986
v 5.849853 5.486175 0.837997
v 5.877645 5.486212 0.850594
v 5.905054 5.486248 0.860167
v -0.744256 10.920014 0.810167
v -0.740327 10.913239 0.829629
v -0.729612 10.894761 0.845522
v -0.713718 10.867356 0.856238
v -0.694256 10.833796 0.860167
v 4.055222 6.505026 0.810167
v 4.056356 6.509231 0.829354
v 4.059272 6.520038 0.845155
v 4.063536 6.535839 0.855963
v 4.068713 6.555026 0.860167
v 1.345174 8.023145 0.810167
v 1.397106 8.009198 0.819611
v 1.44944 7.995143 0.832165
v 1.496184 7.98259 0.84622
v 1.531351 7.973145 0.860167
v -0.744256 9.232664 0.810167
v -0.740327 9.23493 0.829629
v -0.729611 9.241108 0.845522
v -0.713718 9.250273 0.856238
v -0.694256 9.261494 0.860167
v -8.672881 2.909198 0.810167
v -8.668952 2.913127 0.829629
v -8.658237 2.923843 0.845522
v -8.642344 2.939736 0.856238
v -8.622881 2.959198 0.860167
v -8.672881 4.427308 0.810167
v -8.668951 4.423378 0.829629
v -8.658237 4.412663 0.845522
v -8.642344 4.39677 0.856238
v -8.622881 4.377307 0.860167
v -8.672881 6.505026 0.810167
v -8.668952 6.508955 0.829629
v -8.658237 6.51967 0.845522
v -8.642344 6.535564 0.856238
v -8.622881 6.555026 0.860167
v -8.672881 8.023145 0.810167
v -8.668952 8.019216 0.829629
v -8.658237 8.0085 0.845522
v -8.642344 7.992608 0.856238
v -8.622881 7.973145 0.860167

# Number of normals: 308
vn -0.980222 0 0.197901
vn -1 0 0
vn 0.492045 -0.847775 0.197913
vn 0.501974 -0.864883 0
vn -0.829149 0 0.559028
vn -0.980222 0 0.197901
vn 0.416212 -0.717118 0.559026
vn 0.492045 -0.847775 0.197913
vn -0.559027 0 0.829149
vn -0.829149 0 0.559028
vn 0.280619 -0.483497 0.829146
vn 0.416212 -0.717118 0.559026
vn -0.197896 0 0.980223
vn -0.559027 0 0.829149
vn 0.09934 -0.171159 0.980223
vn 0.280619 -0.483497 0.829146
vn -0.197896 0 0.980223
vn 0 0 1
vn 0.09934 -0.171159 0.980223
vn -0.980223 0 0.197896
vn -0.483062 0.85293 0.197894
vn -1 0 0
vn -0.492808 0.870138 0
vn -0.829148 0 0.55903
vn -0.404044 0.72526 0.557447
vn -0.980223 0 0.197896
vn -0.482536 0.852086 0.202754
vn -0.559025 0 0.829151
vn -0.270342 0.492848 0.827053
vn -0.829148 0 0.55903
vn -0.403514 0.72436 0.558997
vn -0.1979 0 0.980222
vn -0.094674 0.176897 0.979665
vn -0.559025 0 0.829151
vn -0.271248 0.49442 0.825817
vn -0.1979 0 0.980222
vn 0 0 1
vn -0.097341 0.181552 0.978552
vn -1 0 0
vn -0.492808 0.870138 0
vn 0 0 -1
vn -1 0 0
vn 0 0 -1
vn 0.501974 -0.864883 0
vn -0.2833 0.511866 0.811008
vn 0.001387 -0.561937 0.827179
vn -0.492808 0.870138 0
vn 0 -1 0
vn -0.330652 0.599525 0.728862
vn 0.00188 -0.669473 0.742834
vn -0.27569 0.498662 0.821785
vn 0.001394 -0.558147 0.829741
vn -0.366241 0.65838 0.657574
vn 0.001409 -0.74882 0.662772
vn -0.328721 0.596196 0.732457
vn 0.001883 -0.668445 0.743759
vn -0.406511 0.717943 0.565072
vn 0.000005 -0.830418 0.557141
vn -0.367987 0.661376 0.65358
vn 0.001407 -0.749665 0.661816
vn -0.410112 0.724123 0.554486
vn 0 0 1
vn 0 -0.832196 0.554482
vn -0.492808 0.870138 0
vn 0 -1 0
vn 0 0 -1
vn 0 0 -1
vn -1 0 0
vn 0 -1 0
vn 0 0 -1
vn -1 0 0
vn 0 1 0
vn 0 0 -1
vn 0 1 0
vn -0.50099 -0.865453 0
vn 0 0 -1
vn -0.50099 -0.865453 0
vn -1 0 0
vn 0 0 -1
vn -1 0 0
vn 0.496655 0.867948 0
vn 0 0 -1
vn 0.496655 0.867948 0
vn 0.501974 -0.864883 0
vn 0 0 -1
vn 0 -1 0
vn -1 0 0
vn 0 0 -1
vn -1 0 0
vn 0 1 0
vn 0 0 -1
vn 0 1 0
vn -0.505321 0.862932 0
vn 0 0 -1
vn -0.505321 0.862932 0
vn -0.503021 -0.864274 0
vn 0 0 -1
vn -0.503021 -0.864274 0
vn 0 -1 0
vn 0.492045 -0.847775 0.19791
vn 0.501974 -0.864883 0
vn 0.486831 0.85078 0.197911
vn 0.496655 0.867948 0
vn 0.492045 -0.847775 0.19791
vn 0.486831 0.85078 0.197911
vn 0.416214 -0.717122 0.559018
vn 0.411804 0.719663 0.55902
vn 0.416214 -0.717122 0.559018
vn 0.411804 0.719663 0.55902
vn 0.280616 -0.483491 0.829151
vn 0.277642 0.485203 0.829152
vn 0.280616 -0.483491 0.829151
vn 0.277642 0.485203 0.829152
vn 0.09934 -0.171159 0.980223
vn 0.098287 0.171765 0.980223
vn 0.09934 -0.171159 0.980223
vn 0.098287 0.171765 0.980223
vn 0 0 1
vn -0.493589 0.842898 0.214224
vn -0.505321 0.862932 0
vn 0.000026 0.976791 0.214196
vn 0 1 0
vn -0.413876 0.713759 0.565026
vn -0.493237 0.842352 0.217162
vn 0.000041 0.825384 0.564571
vn 0.000026 0.976785 0.214221
vn -0.280846 0.488803 0.825952
vn -0.413545 0.713214 0.565956
vn 0.000031 0.564583 0.825376
vn 0.000041 0.825378 0.56458
vn -0.105319 0.185689 0.976948
vn -0.281368 0.489674 0.825258
vn 0 0.214195 0.976791
vn 0.000031 0.564592 0.82537
vn -0.106835 0.188235 0.976296
vn 0 0 1
vn 0 0.214221 0.976785
vn -0.414736 0.715146 0.562637
vn -0.412806 -0.716446 0.562402
vn -0.505321 0.862932 0
vn -0.503021 -0.864274 0
vn -0.374115 0.648193 0.663237
vn -0.372328 -0.649405 0.663057
vn -0.41332 0.712812 0.566626
vn -0.411348 -0.71403 0.566528
vn -0.335741 0.580301 0.741976
vn -0.334122 -0.581306 0.74192
vn -0.373534 0.647231 0.664503
vn -0.37173 -0.648411 0.664364
vn -0.285304 0.487299 0.825313
vn -0.283922 -0.487922 0.825421
vn -0.336482 0.581533 0.740674
vn -0.334886 -0.582583 0.740573
vn -0.287759 0.491404 0.82202
vn 0 0 1
vn -0.286449 -0.492168 0.82202
vn 0.486831 0.85078 0.197912
vn 0.496655 0.867948 0
vn -0.980221 0 0.197904
vn -1 0 0
vn 0.486831 0.85078 0.197912
vn -0.980221 0 0.197904
vn 0.411803 0.719662 0.559022
vn -0.829153 0 0.559021
vn 0.411803 0.719662 0.559022
vn -0.829153 0 0.559021
vn 0.277646 0.48521 0.829147
vn -0.559021 0 0.829153
vn 0.277646 0.48521 0.829147
vn -0.559022 0 0.829153
vn 0.098286 0.171764 0.980223
vn -0.197897 0 0.980223
vn 0.098286 0.171764 0.980223
vn -0.197897 0 0.980223
vn 0 0 1
vn -0.491362 -0.844244 0.214047
vn 0.000026 -0.976829 0.214021
vn -0.503021 -0.864274 0
vn 0 -1 0
vn -0.411882 -0.714944 0.564985
vn 0.00004 -0.82542 0.564519
vn -0.490999 -0.843679 0.217086
vn 0.000026 -0.976824 0.214046
vn -0.279366 -0.489562 0.826005
vn 0.00003 -0.564529 0.825413
vn -0.411541 -0.714381 0.565945
vn 0.00004 -0.825415 0.564527
vn -0.104642 -0.185853 0.97699
vn 0 -0.214024 0.976828
vn -0.279904 -0.490464 0.825287
vn 0.00003 -0.564538 0.825407
vn -0.106202 -0.188487 0.976316
vn 0 0 1
vn 0 -0.21405 0.976823
vn -0.290498 -0.512926 0.807786
vn -0.50099 -0.865453 0
vn 0.001377 0.567883 0.823108
vn 0 1 0
vn -0.33682 -0.59679 0.728281
vn -0.2832 -0.500531 0.818087
vn 0.001864 0.671021 0.741436
vn 0.001383 0.56422 0.825623
vn -0.371694 -0.653249 0.659628
vn -0.334951 -0.593635 0.731714
vn 0.001397 0.747282 0.664506
vn 0.001866 0.670022 0.742339
vn -0.411271 -0.710629 0.570843
vn -0.37339 -0.6561 0.65583
vn 0.000005 0.826244 0.563312
vn 0.001395 0.74811 0.663574
vn -0.414831 -0.716616 0.560693
vn 0 0 1
vn 0 0.828017 0.560702
vn -0.980222 0 0.197899
vn -1 0 0
vn -0.491082 -0.848338 0.197894
vn -0.50099 -0.865453 0
vn -0.980223 0 0.197899
vn -0.490567 -0.847527 0.202589
vn -0.829148 0 0.55903
vn -0.411011 -0.721279 0.557518
vn -0.829148 0 0.55903
vn -0.410491 -0.720412 0.559021
vn -0.559028 0 0.829149
vn -0.275125 -0.490029 0.827151
vn -0.559028 0 0.829149
vn -0.276012 -0.491536 0.82596
vn -0.197899 0 0.980223
vn -0.096416 -0.17582 0.979689
vn -0.197899 0 0.980223
vn -0.099031 -0.180288 0.978616
vn 0 0 1
vn 0 -0.980219 0.197916
vn -0.980224 0 0.197893
vn 0 -1 0
vn -1 0 0
vn 0.001394 -0.829588 0.558375
vn -0.829148 0.000001 0.55903
vn 0.000002 -0.97998 0.199096
vn -0.980224 0 0.197893
vn 0.001851 -0.560296 0.828291
vn -0.559031 0 0.829147
vn 0.001395 -0.829296 0.558807
vn -0.829148 0.000001 0.559029
vn 0.001175 -0.199029 0.979993
vn -0.197895 0 0.980223
vn 0.00185 -0.560797 0.827952
vn -0.559031 0 0.829147
vn 0.001173 -0.200637 0.979665
vn 0 0 1
vn -0.197895 0 0.980223
vn 0 0.980221 0.197904
vn 0 1 0
vn -0.980214 0.000001 0.197938
vn -1 0 0
vn 0 0.980216 0.19793
vn -0.980214 0.000001 0.197939
vn 0.00003 0.829163 0.559007
vn -0.82917 0 0.558996
vn 0.00003 0.829156 0.559017
vn -0.829171 0 0.558996
vn 0.000041 0.559064 0.829124
vn -0.559031 0 0.829147
vn 0.000041 0.559075 0.829117
vn -0.559031 0 0.829147
vn 0.000026 0.197919 0.980218
vn -0.197895 0 0.980223
vn 0.000026 0.197954 0.980211
vn -0.197895 0 0.980223
vn 0 0 1
vn 0 -0.980221 0.197904
vn -0.980224 0 0.197893
vn 0 -1 0
vn -1 0 0
vn 0.00003 -0.829163 0.559007
vn -0.829148 0 0.55903
vn 0 -0.980216 0.19793
vn -0.980224 0 0.197893
vn 0.00004 -0.559052 0.829132
vn -0.559031 0 0.829147
vn 0.00003 -0.829156 0.559017
vn -0.829148 0 0.55903
vn 0.000026 -0.197923 0.980218
vn -0.197895 0 0.980223
vn 0.00004 -0.559063 0.829125
vn -0.559031 0 0.829147
vn 0.000025 -0.197958 0.98021
vn 0 0 1
vn -0.197895 0 0.980223
vn 0 0.980224 0.197893
vn 0 1 0
vn -0.980224 0 0.197893
vn -1 0 0
vn 0.000002 0.979987 0.199062
vn -0.980224 0 0.197893
vn 0.001381 0.829578 0.558389
vn -0.829148 0 0.55903
vn 0.001382 0.829289 0.558818
vn -0.829148 0 0.55903
vn 0.001835 0.560291 0.828294
vn -0.559031 0 0.829147
vn 0.001834 0.560787 0.827958
vn -0.559031 0 0.829147
vn 0.001165 0.199016 0.979995
vn -0.197895 0 0.980223
vn 0.001163 0.20061 0.97967
vn -0.197895 0 0.980223
vn 0 0 1

# Number of texture vertices: 308
vt 0.128944 0.061789
vt 0.128944 0.061789
vt 0.128944 0.061789
vt 0.128944 0.061789
vt 0.13133 0.062511
vt 0.13133 0.062511
vt 0.13133 0.062511
vt 0.13133 0.062511
vt 0.134055 0.062977
vt 0.134055 0.062977
vt 0.134055 0.062977
vt 0.134055 0.062977
vt 0.136836 0.063153
vt 0.136836 0.063153
vt 0.136836 0.063153
vt 0.136836 0.063153
vt 0.139393 0.062994
vt 0.139393 0.062994
vt 0.139393 0.062994
vt 0.128944 0.089662
vt 0.128944 0.089662
vt 0.128944 0.089662
vt 0.128944 0.089662
vt 0.13133 0.09052
vt 0.13133 0.09052
vt 0.13133 0.09052
vt 0.13133 0.09052
vt 0.134055 0.090736
vt 0.134055 0.090736
vt 0.134055 0.090736
vt 0.134055 0.090736
vt 0.136836 0.090332
vt 0.136836 0.090332
vt 0.136836 0.090332
vt 0.136836 0.090332
vt 0.139393 0.089319
vt 0.139393 0.089319
vt 0.139393 0.089319
vt 0.866114 0.092564
vt 0.866114 0.092564
vt 0.866114 0.092564
vt 0.866114 0.06385
vt 0.866114 0.06385
vt 0.866114 0.06385
vt 0.414511 0.171024
vt 0.414511 0.171024
vt 0.414511 0.171024
vt 0.414511 0.171024
vt 0.416459 0.176436
vt 0.416459 0.176436
vt 0.416459 0.176436
vt 0.416459 0.176436
vt 0.418023 0.18197
vt 0.418023 0.18197
vt 0.418023 0.18197
vt 0.418023 0.18197
vt 0.419085 0.186976
vt 0.419085 0.186976
vt 0.419085 0.186976
vt 0.419085 0.186976
vt 0.419552 0.190831
vt 0.419552 0.190831
vt 0.419552 0.190831
vt 0.589913 0.173425
vt 0.589913 0.173425
vt 0.589913 0.173425
vt 0.984927 0.53783
vt 0.984927 0.53783
vt 0.984927 0.53783
vt 0.984927 0.590689
vt 0.984927 0.590689
vt 0.984927 0.590689
vt 0.589913 0.827255
vt 0.589913 0.827255
vt 0.589913 0.827255
vt 0.870676 0.906605
vt 0.870676 0.906605
vt 0.870676 0.906605
vt 0.870676 0.934491
vt 0.870676 0.934491
vt 0.870676 0.934491
vt 0.515073 0.50095
vt 0.515073 0.50095
vt 0.515073 0.50095
vt 0.984927 0.409724
vt 0.984927 0.409724
vt 0.984927 0.409724
vt 0.984927 0.462612
vt 0.984927 0.462612
vt 0.984927 0.462612
vt 0.532803 0.420412
vt 0.532803 0.420412
vt 0.532803 0.420412
vt 0.522687 0.501427
vt 0.522687 0.501427
vt 0.522687 0.501427
vt 0.532347 0.579439
vt 0.532347 0.579439
vt 0.532347 0.579439
vt 0.485833 0.50095
vt 0.485833 0.50095
vt 0.485833 0.50095
vt 0.485833 0.50095
vt 0.485467 0.50095
vt 0.485467 0.50095
vt 0.485467 0.50095
vt 0.485467 0.50095
vt 0.485143 0.50095
vt 0.485143 0.50095
vt 0.485143 0.50095
vt 0.485143 0.50095
vt 0.484893 0.500949
vt 0.484893 0.500949
vt 0.484893 0.500949
vt 0.484893 0.500949
vt 0.484753 0.500949
vt 0.484753 0.500949
vt 0.484753 0.500949
vt 0.469128 0.420224
vt 0.469128 0.420224
vt 0.469128 0.420224
vt 0.469128 0.420224
vt 0.468395 0.420005
vt 0.468395 0.420005
vt 0.468395 0.420005
vt 0.468395 0.420005
vt 0.467808 0.419321
vt 0.467808 0.419321
vt 0.467808 0.419321
vt 0.467808 0.419321
vt 0.467426 0.418281
vt 0.467426 0.418281
vt 0.467426 0.418281
vt 0.467426 0.418281
vt 0.467306 0.416988
vt 0.467306 0.416988
vt 0.467306 0.416988
vt 0.478667 0.501428
vt 0.478667 0.501428
vt 0.478667 0.501428
vt 0.478667 0.501428
vt 0.478363 0.501425
vt 0.478363 0.501425
vt 0.478363 0.501425
vt 0.478363 0.501425
vt 0.478078 0.50142
vt 0.478078 0.50142
vt 0.478078 0.50142
vt 0.478078 0.50142
vt 0.477844 0.501415
vt 0.477844 0.501415
vt 0.477844 0.501415
vt 0.477844 0.501415
vt 0.477692 0.50141
vt 0.477692 0.50141
vt 0.477692 0.50141
vt 0.124367 0.936491
vt 0.124367 0.936491
vt 0.124367 0.936491
vt 0.124367 0.936491
vt 0.126734 0.935795
vt 0.126734 0.935795
vt 0.126734 0.935795
vt 0.126734 0.935795
vt 0.129404 0.935357
vt 0.129404 0.935357
vt 0.129404 0.935357
vt 0.129404 0.935357
vt 0.1321 0.935207
vt 0.1321 0.935207
vt 0.1321 0.935207
vt 0.1321 0.935207
vt 0.134548 0.935387
vt 0.134548 0.935387
vt 0.134548 0.935387
vt 0.469559 0.579621
vt 0.469559 0.579621
vt 0.469559 0.579621
vt 0.469559 0.579621
vt 0.468835 0.579839
vt 0.468835 0.579839
vt 0.468835 0.579839
vt 0.468835 0.579839
vt 0.468256 0.580514
vt 0.468256 0.580514
vt 0.468256 0.580514
vt 0.468256 0.580514
vt 0.467878 0.581542
vt 0.467878 0.581542
vt 0.467878 0.581542
vt 0.467878 0.581542
vt 0.467759 0.582818
vt 0.467759 0.582818
vt 0.467759 0.582818
vt 0.414511 0.82965
vt 0.414511 0.82965
vt 0.414511 0.82965
vt 0.414511 0.82965
vt 0.416383 0.82436
vt 0.416383 0.82436
vt 0.416383 0.82436
vt 0.416383 0.82436
vt 0.417894 0.818928
vt 0.417894 0.818928
vt 0.417894 0.818928
vt 0.417894 0.818928
vt 0.418927 0.813993
vt 0.418927 0.813993
vt 0.418927 0.813993
vt 0.418927 0.813993
vt 0.419391 0.810168
vt 0.419391 0.810168
vt 0.419391 0.810168
vt 0.124367 0.909378
vt 0.124367 0.909378
vt 0.124367 0.909378
vt 0.124367 0.909378
vt 0.126734 0.908572
vt 0.126734 0.908572
vt 0.126734 0.908572
vt 0.126734 0.908572
vt 0.129404 0.908402
vt 0.129404 0.908402
vt 0.129404 0.908402
vt 0.129404 0.908402
vt 0.1321 0.908842
vt 0.1321 0.908842
vt 0.1321 0.908842
vt 0.1321 0.908842
vt 0.134548 0.909876
vt 0.134548 0.909876
vt 0.134548 0.909876
vt 0.014167 0.409679
vt 0.014167 0.409679
vt 0.014167 0.409679
vt 0.014167 0.409679
vt 0.014526 0.40979
vt 0.014526 0.40979
vt 0.014526 0.40979
vt 0.014526 0.40979
vt 0.014832 0.41006
vt 0.014832 0.41006
vt 0.014832 0.41006
vt 0.014832 0.41006
vt 0.015054 0.41045
vt 0.015054 0.41045
vt 0.015054 0.41045
vt 0.015054 0.41045
vt 0.015159 0.410922
vt 0.015159 0.410922
vt 0.015159 0.410922
vt 0.014167 0.462593
vt 0.014167 0.462593
vt 0.014167 0.462593
vt 0.014167 0.462593
vt 0.014526 0.462442
vt 0.014526 0.462442
vt 0.014526 0.462442
vt 0.014526 0.462442
vt 0.014832 0.462018
vt 0.014832 0.462018
vt 0.014832 0.462018
vt 0.014832 0.462018
vt 0.015054 0.461383
vt 0.015054 0.461383
vt 0.015054 0.461383
vt 0.015054 0.461383
vt 0.015159 0.460598
vt 0.015159 0.460598
vt 0.015159 0.460598
vt 0.014167 0.537849
vt 0.014167 0.537849
vt 0.014167 0.537849
vt 0.014167 0.537849
vt 0.014526 0.538
vt 0.014526 0.538
vt 0.014526 0.538
vt 0.014526 0.538
vt 0.014832 0.538424
vt 0.014832 0.538424
vt 0.014832 0.538424
vt 0.014832 0.538424
vt 0.015054 0.53906
vt 0.015054 0.53906
vt 0.015054 0.53906
vt 0.015054 0.53906
vt 0.015159 0.539846
vt 0.015159 0.539846
vt 0.015159 0.539846
vt 0.014167 0.590734
vt 0.014167 0.590734
vt 0.014167 0.590734
vt 0.014167 0.590734
vt 0.014526 0.590623
vt 0.014526 0.590623
vt 0.014526 0.590623
vt 0.014526 0.590623
vt 0.014832 0.590354
vt 0.014832 0.590354
vt 0.014832 0.590354
vt 0.014832 0.590354
vt 0.015054 0.589965
vt 0.015054 0.589965
vt 0.015054 0.589965
vt 0.015054 0.589965
vt 0.015159 0.589494
vt 0.015159 0.589494
vt 0.015159 0.589494

g arrow04.obj 
usemtl mat__ACI__7
# Number of Polygons: 72
f 5/17/17 10/36/36 9/32/32 4/13/13 
f 4/14/14 9/34/34 8/28/28 3/9/9 
f 3/10/10 8/30/30 7/24/24 2/5/5 
f 2/6/6 7/26/26 6/20/20 1/1/1 
f 1/3/3 30/100/100 31/104/104 2/8/8 
f 2/7/7 31/106/106 32/108/108 3/12/12 
f 3/11/11 32/110/110 33/112/112 4/16/16 
f 4/15/15 33/114/114 34/116/116 5/19/19 
f 10/38/38 17/61/61 16/57/57 9/33/33 
f 9/35/35 16/59/59 15/53/53 8/29/29 
f 8/31/31 15/55/55 14/49/49 7/25/25 
f 7/27/27 14/51/51 13/45/45 6/21/21 
f 17/63/63 69/249/249 68/245/245 16/58/58 
f 16/60/60 68/247/247 67/241/241 15/54/54 
f 15/56/56 67/243/243 66/237/237 14/50/50 
f 14/52/52 66/239/239 65/233/233 13/46/46 
f 30/102/102 45/157/157 46/161/161 31/105/105 
f 31/107/107 46/163/163 47/165/165 32/109/109 
f 32/111/111 47/167/167 48/169/169 33/113/113 
f 33/115/115 48/171/171 49/173/173 34/117/117 
f 39/135/135 44/154/154 43/150/150 38/131/131 
f 38/132/132 43/152/152 42/146/146 37/127/127 
f 37/128/128 42/148/148 41/142/142 36/123/123 
f 36/124/124 41/144/144 40/138/138 35/119/119 
f 35/121/121 70/252/252 71/256/256 36/126/126 
f 36/125/125 71/258/258 72/260/260 37/130/130 
f 37/129/129 72/262/262 73/264/264 38/134/134 
f 38/133/133 73/266/266 74/268/268 39/137/137 
f 44/156/156 54/192/192 53/188/188 43/151/151 
f 43/153/153 53/190/190 52/184/184 42/147/147 
f 42/149/149 52/186/186 51/180/180 41/143/143 
f 41/145/145 51/182/182 50/176/176 40/139/139 
f 45/159/159 60/214/214 61/218/218 46/162/162 
f 46/164/164 61/220/220 62/222/222 47/166/166 
f 47/168/168 62/224/224 63/226/226 48/170/170 
f 48/172/172 63/228/228 64/230/230 49/174/174 
f 54/194/194 79/287/287 78/283/283 53/189/189 
f 53/191/191 78/285/285 77/279/279 52/185/185 
f 52/187/187 77/281/281 76/275/275 51/181/181 
f 51/183/183 76/277/277 75/271/271 50/177/177 
f 59/211/211 64/231/231 63/229/229 58/207/207 
f 58/208/208 63/227/227 62/225/225 57/203/203 
f 57/204/204 62/223/223 61/221/221 56/199/199 
f 56/200/200 61/219/219 60/216/216 55/195/195 
f 55/197/197 80/290/290 81/294/294 56/202/202 
f 56/201/201 81/296/296 82/298/298 57/206/206 
f 57/205/205 82/300/300 83/302/302 58/210/210 
f 58/209/209 83/304/304 84/306/306 59/213/213 
f 69/251/251 74/269/269 73/267/267 68/246/246 
f 68/248/248 73/265/265 72/263/263 67/242/242 
f 67/244/244 72/261/261 71/259/259 66/238/238 
f 66/240/240 71/257/257 70/254/254 65/234/234 
f 79/289/289 84/307/307 83/305/305 78/284/284 
f 78/286/286 83/303/303 82/301/301 77/280/280 
f 77/282/282 82/299/299 81/297/297 76/276/276 
f 76/278/278 81/295/295 80/292/292 75/272/272 
f 1/2/2 6/22/22 11/39/39 12/42/42 
f 6/23/23 13/47/47 18/64/64 11/40/40 
f 19/67/67 20/70/70 21/73/73 22/76/76 23/79/79 24/82/82 12/43/43 11/41/41 18/66/66 25/85/85 26/88/88 27/91/91 28/94/94 29/97/97 
f 30/101/101 1/4/4 12/44/44 24/84/84 
f 35/120/120 40/140/140 28/95/95 27/93/93 
f 45/158/158 30/103/103 24/83/83 23/81/81 
f 40/141/141 50/178/178 29/98/98 28/96/96 
f 55/196/196 60/217/217 22/77/77 21/75/75 
f 60/215/215 45/160/160 23/80/80 22/78/78 
f 13/48/48 65/235/235 25/86/86 18/65/65 
f 65/236/236 70/255/255 26/89/89 25/87/87 
f 70/253/253 35/122/122 27/92/92 26/90/90 
f 50/179/179 75/273/273 19/69/69 29/99/99 
f 75/274/274 80/293/293 20/71/71 19/68/68 
f 80/291/291 55/198/198 21/74/74 20/72/72 
f 59/212/212 84/308/308 79/288/288 54/193/193 44/155/155 39/136/136 74/270/270 69/250/250 17/62/62 10/37/37 5/18/18 34/118/118 49/175/175 64/232/232 
