# 
# Wavefront OBJ file
# Converted by the DEEP Exploration 3.5.10.1242
# Right Hemisphere, LTD
# http://www.righthemisphere.com/
# 
mtllib arrow29.mtl
# object Mesh 
g Mesh_
v -1e-005 6.01203 -0.759491
v 4.74684 1.27069 -0.759491
v 0.949363 1.26475 -0.759491
v 0.949363 -9.49367 -0.759491
v -0.949383 -9.49367 -0.759491
v -0.949383 1.26475 -0.759491
v -4.74684 1.27069 -0.759491
v -4.74684 9.49367 -0.759491
v 4.74684 9.49367 -0.759491
v 4.74684 7.59491 -0.759491
v -4.74684 7.59491 -0.759491
v 0.949363 1.26475 0.759491
v 4.74684 1.27069 0.759491
v -1e-005 6.01203 0.759491
v -0.949383 -9.49367 0.759491
v 0.949363 -9.49367 0.759491
v -0.949383 1.26475 0.759491
v -4.74684 1.27069 0.759491
v 4.74684 9.49367 0.759491
v -4.74684 9.49367 0.759491
v 4.74684 7.59491 0.759491
v -4.74684 7.59491 0.759491
# 22 verticies
vt 0 0
# 1 texture verticies
vn 0 0 -1
vn 0 0 1
vn 0 1 0
vn 1 0 0
vn 0 -1 0
vn -1 0 0
vn 0.706696 0.707517 0
vn 0.001564 -0.999999 0
vn -0.001564 -0.999999 0
vn -0.706698 0.707515 0
# 10 normals
usemtl mat__ACI__7
f  1/1/1 2/1/1 3/1/1
f  3/1/1 4/1/1 5/1/1 6/1/1
f  1/1/1 3/1/1 6/1/1
f  6/1/1 7/1/1 1/1/1
f  8/1/1 9/1/1 10/1/1 11/1/1
f  12/1/2 13/1/2 14/1/2
f  15/1/2 16/1/2 12/1/2 17/1/2
f  17/1/2 12/1/2 14/1/2
f  14/1/2 18/1/2 17/1/2
f  21/1/2 19/1/2 20/1/2 22/1/2
f  20/1/3 19/1/3 9/1/3 8/1/3
f  19/1/4 21/1/4 10/1/4 9/1/4
f  21/1/5 22/1/5 11/1/5 10/1/5
f  22/1/6 20/1/6 8/1/6 11/1/6
f  14/1/7 13/1/7 2/1/7 1/1/7
f  13/1/8 12/1/8 3/1/8 2/1/8
f  12/1/4 16/1/4 4/1/4 3/1/4
f  16/1/5 15/1/5 5/1/5 4/1/5
f  15/1/6 17/1/6 6/1/6 5/1/6
f  17/1/9 18/1/9 7/1/9 6/1/9
f  18/1/10 14/1/10 1/1/10 7/1/10
