# 
# Wavefront OBJ file
# Converted by the DEEP Exploration 3.5.10.1242
# Right Hemisphere, LTD
# http://www.righthemisphere.com/
# 
mtllib arrow21.mtl
# object Mesh 
g Mesh_
v -3.23282 -4.14376 -0.627402
v -2.84281 -4.65522 -0.627402
v -3.62225 -5.16402 -0.627402
v -2.49956 -5.16402 -0.627402
v -4.23706 -4.45334 -0.627402
v -3.6696 -3.62963 -0.627402
v -4.92026 -3.73802 -0.627402
v -4.15315 -3.11289 -0.627402
v -5.40893 -1.94493 -0.627402
v -5.16664 -2.15973 -0.627402
v -5.67193 -3.01807 -0.627402
v -5.97279 -1.46509 -0.627402
v -5.67765 -1.7134 -0.627402
v -6.492 -2.29348 -0.627402
v -6.64242 -0.918236 -0.627402
v -6.29439 -1.20004 -0.627402
v -6.90823 -1.94376 -0.627402
v -7.01692 -0.619684 -0.627402
v -7.30254 -1.62154 -0.627402
v -7.41783 -0.304369 -0.627402
v -7.67495 -1.3268 -0.627402
v -8.02546 -1.05955 -0.627402
v -8.35408 -0.819789 -0.627402
v -7.84518 0.0277095 -0.627402
v -8.66082 -0.607527 -0.627402
v -8.94565 -0.422745 -0.627402
v -9.20858 -0.265442 -0.627402
v -9.20858 0.289568 -0.627402
v -8.52497 0.709612 -0.627402
v -7.61821 0.193291 -0.627402
v -7.81408 1.20447 -0.627402
v -6.91166 0.720015 -0.627402
v -7.05811 0.608666 -0.627402
v -7.22468 0.483768 -0.627402
v -7.41138 0.345304 -0.627402
v -7.0759 1.77413 -0.627402
v -6.59308 0.972641 -0.627402
v -6.67915 0.901994 -0.627402
v -6.78534 0.817779 -0.627402
v -6.31039 2.41858 -0.627402
v -5.16664 2.15971 -0.627402
v -4.15315 3.13702 -0.627402
v -5.55801 3.10156 -0.627402
v -4.85922 3.78678 -0.627402
v -3.62225 5.16402 -0.627402
v -2.49956 5.16402 -0.627402
v -2.83885 4.65967 -0.627402
v -3.22754 4.15371 -0.627402
v -4.21396 4.47427 -0.627402
v -3.66563 3.64618 -0.627402
v 9.20858 3.13702 -0.627402
v 9.20858 2.15971 -0.627402
v 9.20858 -2.15973 -0.627402
v 9.20858 -3.11289 -0.627402
v -3.62225 -5.16402 0.627402
v -2.84281 -4.65522 0.627402
v -3.23282 -4.14376 0.627402
v -2.49956 -5.16402 0.627402
v -3.6696 -3.62963 0.627402
v -4.23706 -4.45334 0.627402
v -4.15315 -3.11289 0.627402
v -4.92026 -3.73802 0.627402
v -5.67193 -3.01807 0.627402
v -5.16664 -2.15973 0.627402
v -5.40893 -1.94493 0.627402
v -6.492 -2.29348 0.627402
v -5.67765 -1.7134 0.627402
v -5.97279 -1.46509 0.627402
v -6.90823 -1.94376 0.627402
v -6.29439 -1.20004 0.627402
v -6.64242 -0.918236 0.627402
v -7.30254 -1.62154 0.627402
v -7.01692 -0.619684 0.627402
v -7.67495 -1.3268 0.627402
v -7.41783 -0.304369 0.627402
v -8.02546 -1.05955 0.627402
v -7.84518 0.0277095 0.627402
v -8.35408 -0.819789 0.627402
v -8.66082 -0.607527 0.627402
v -8.94565 -0.422745 0.627402
v -9.20858 -0.265442 0.627402
v -9.20858 0.289568 0.627402
v -7.61821 0.193291 0.627402
v -8.52497 0.709612 0.627402
v -7.05811 0.608666 0.627402
v -6.91166 0.720015 0.627402
v -7.81408 1.20447 0.627402
v -7.22468 0.483768 0.627402
v -7.41138 0.345304 0.627402
v -6.67915 0.901994 0.627402
v -6.59308 0.972641 0.627402
v -7.0759 1.77413 0.627402
v -6.78534 0.817779 0.627402
v -5.16664 2.15971 0.627402
v -6.31039 2.41858 0.627402
v -5.55801 3.10156 0.627402
v -4.15315 3.13702 0.627402
v -4.85922 3.78678 0.627402
v -2.83885 4.65967 0.627402
v -2.49956 5.16402 0.627402
v -3.62225 5.16402 0.627402
v -4.21396 4.47427 0.627402
v -3.22754 4.15371 0.627402
v -3.66563 3.64618 0.627402
v 9.20858 3.13702 0.627402
v 9.20858 2.15971 0.627402
v 9.20858 -2.15973 0.627402
v 9.20858 -3.11289 0.627402
# 108 verticies
vt 0 0
# 1 texture verticies
vn 0 0 -1
vn 0 0 1
vn 0 1 0
vn 1 0 0
vn 0 -1 0
vn 0.639667 -0.768652 0
vn 0.636966 -0.770892 0
vn 0.637494 -0.770455 0
vn 0.62763 -0.778512 0
vn 0.628212 -0.778042 0
vn 0.61645 -0.787394 0
vn 0.616937 -0.787012 0
vn 0.608429 -0.793608 0
vn 0.608831 -0.7933 0
vn 0.602402 -0.798193 0
vn 0.602756 -0.797925 0
vn 0.597638 -0.801766 0
vn 0.597948 -0.801535 0
vn 0.593812 -0.804604 0
vn 0.594087 -0.804401 0
vn 0.590673 -0.806911 0
vn 0.590917 -0.806732 0
vn 0.589369 -0.807864 0
vn 0.613592 0.789623 0
vn 0.616202 0.787588 0
vn 0.615586 0.78807 0
vn 0.621114 0.78372 0
vn 0.620447 0.784249 0
vn 0.626687 0.779271 0
vn 0.625951 0.779863 0
vn 0.633041 0.774118 0
vn 0.632238 0.774774 0
vn 0.640337 0.768094 0
vn 0.639451 0.768832 0
vn 0.648739 0.761011 0
vn 0.647773 0.761833 0
vn 0.658605 0.752489 0
vn 0.657521 0.753436 0
vn 0.663396 0.748268 0
vn 0.730169 0.683267 0
vn 0.7621 0.647459 0
vn 0.795197 0.606351 0
vn 0.82899 0.559263 0
vn -0.756279 -0.654249 0
vn -0.723152 -0.690688 0
vn -0.691706 -0.722179 0
vn -0.662133 -0.749386 0
vn -0.651478 -0.758667 0
vn -0.654366 -0.756178 0
vn -0.637356 -0.77057 0
vn -0.638762 -0.769404 0
vn -0.625927 -0.779881 0
vn -0.627499 -0.778618 0
vn -0.612622 -0.790376 0
vn -0.614383 -0.789008 0
vn -0.596923 -0.802298 0
vn -0.59892 -0.800809 0
vn -0.578156 -0.815927 0
vn -0.58043 -0.81431 0
vn -0.555443 -0.831554 0
vn -0.558049 -0.829808 0
vn -0.544248 -0.838924 0
vn -0.513413 -0.858142 0
vn -1 0 0
vn -0.523525 0.85201 0
vn -0.571318 0.820729 0
vn -0.610938 0.791678 0
vn -0.644028 0.765002 0
vn -0.672133 0.74043 0
vn -0.700139 0.714007 0
vn -0.729149 0.684355 0
vn -0.758987 0.651106 0
vn 0.829728 -0.558167 0
vn 0.793008 -0.609211 0
vn 0.756993 -0.653422 0
vn 0.722287 -0.691593 0
# 76 normals
usemtl mat__ACI__7
f  1/1/1 2/1/1 3/1/1 5/1/1
f  4/1/1 3/1/1 2/1/1
f  1/1/1 5/1/1 6/1/1
f  7/1/1 8/1/1 6/1/1 5/1/1
f  9/1/1 10/1/1 11/1/1
f  11/1/1 10/1/1 8/1/1 7/1/1
f  12/1/1 13/1/1 14/1/1
f  14/1/1 13/1/1 9/1/1 11/1/1
f  15/1/1 16/1/1 17/1/1 19/1/1
f  17/1/1 16/1/1 12/1/1 14/1/1
f  18/1/1 15/1/1 19/1/1 21/1/1
f  20/1/1 18/1/1 21/1/1 22/1/1
f  23/1/1 24/1/1 20/1/1 22/1/1
f  23/1/1 25/1/1 24/1/1
f  24/1/1 25/1/1 26/1/1
f  27/1/2 25/1/2 26/1/2
f  26/1/1 27/1/1 28/1/1
f  30/1/1 24/1/1 29/1/1 31/1/1
f  29/1/1 24/1/1 26/1/1 28/1/1
f  31/1/1 32/1/1 33/1/1
f  31/1/1 33/1/1 34/1/1
f  31/1/1 34/1/1 35/1/1
f  31/1/1 35/1/1 30/1/1
f  36/1/1 37/1/1 38/1/1
f  36/1/1 38/1/1 39/1/1
f  36/1/1 39/1/1 32/1/1 31/1/1
f  40/1/1 41/1/1 37/1/1
f  37/1/1 36/1/1 40/1/1
f  42/1/1 41/1/1 43/1/1
f  41/1/1 40/1/1 43/1/1
f  42/1/1 43/1/1 44/1/1
f  45/1/1 46/1/1 47/1/1
f  48/1/1 49/1/1 45/1/1 47/1/1
f  50/1/1 42/1/1 44/1/1 49/1/1
f  49/1/1 48/1/1 50/1/1
f  42/1/1 51/1/1 52/1/1
f  52/1/1 41/1/1 42/1/1
f  10/1/1 53/1/1 8/1/1
f  53/1/1 54/1/1 8/1/1
f  55/1/2 56/1/2 57/1/2 60/1/2
f  56/1/2 55/1/2 58/1/2
f  59/1/2 60/1/2 57/1/2
f  59/1/2 61/1/2 62/1/2 60/1/2
f  63/1/2 64/1/2 65/1/2
f  61/1/2 64/1/2 63/1/2 62/1/2
f  66/1/2 67/1/2 68/1/2
f  65/1/2 67/1/2 66/1/2 63/1/2
f  69/1/2 70/1/2 71/1/2 72/1/2
f  68/1/2 70/1/2 69/1/2 66/1/2
f  72/1/2 71/1/2 73/1/2 74/1/2
f  74/1/2 73/1/2 75/1/2 76/1/2
f  75/1/2 77/1/2 78/1/2 76/1/2
f  77/1/2 79/1/2 78/1/2
f  80/1/2 79/1/2 77/1/2
f  80/1/1 79/1/1 81/1/1
f  82/1/2 81/1/2 80/1/2
f  84/1/2 77/1/2 83/1/2 87/1/2
f  80/1/2 77/1/2 84/1/2 82/1/2
f  85/1/2 86/1/2 87/1/2
f  88/1/2 85/1/2 87/1/2
f  89/1/2 88/1/2 87/1/2
f  83/1/2 89/1/2 87/1/2
f  90/1/2 91/1/2 92/1/2
f  93/1/2 90/1/2 92/1/2
f  86/1/2 93/1/2 92/1/2 87/1/2
f  91/1/2 94/1/2 95/1/2
f  95/1/2 92/1/2 91/1/2
f  96/1/2 94/1/2 97/1/2
f  96/1/2 95/1/2 94/1/2
f  98/1/2 96/1/2 97/1/2
f  99/1/2 100/1/2 101/1/2
f  101/1/2 102/1/2 103/1/2 99/1/2
f  98/1/2 97/1/2 104/1/2 102/1/2
f  104/1/2 103/1/2 102/1/2
f  105/1/2 97/1/2 106/1/2
f  97/1/2 94/1/2 106/1/2
f  61/1/2 107/1/2 64/1/2
f  61/1/2 108/1/2 107/1/2
f  97/1/3 105/1/3 51/1/3 42/1/3
f  105/1/4 106/1/4 52/1/4 51/1/4
f  106/1/5 94/1/5 41/1/5 52/1/5
f  94/1/6 91/1/7 37/1/8 41/1/6
f  91/1/7 90/1/9 38/1/10 37/1/8
f  90/1/9 93/1/11 39/1/12 38/1/10
f  93/1/11 86/1/13 32/1/14 39/1/12
f  86/1/13 85/1/15 33/1/16 32/1/14
f  85/1/15 88/1/17 34/1/18 33/1/16
f  88/1/17 89/1/19 35/1/20 34/1/18
f  89/1/19 83/1/21 30/1/22 35/1/20
f  83/1/21 77/1/23 24/1/23 30/1/22
f  77/1/24 75/1/25 20/1/26 24/1/24
f  75/1/25 73/1/27 18/1/28 20/1/26
f  73/1/27 71/1/29 15/1/30 18/1/28
f  71/1/29 70/1/31 16/1/32 15/1/30
f  70/1/31 68/1/33 12/1/34 16/1/32
f  68/1/33 67/1/35 13/1/36 12/1/34
f  67/1/35 65/1/37 9/1/38 13/1/36
f  65/1/37 64/1/39 10/1/39 9/1/38
f  64/1/3 107/1/3 53/1/3 10/1/3
f  107/1/4 108/1/4 54/1/4 53/1/4
f  108/1/5 61/1/5 8/1/5 54/1/5
f  61/1/40 59/1/40 6/1/40 8/1/40
f  59/1/41 57/1/41 1/1/41 6/1/41
f  57/1/42 56/1/42 2/1/42 1/1/42
f  56/1/43 58/1/43 4/1/43 2/1/43
f  58/1/5 55/1/5 3/1/5 4/1/5
f  55/1/44 60/1/44 5/1/44 3/1/44
f  60/1/45 62/1/45 7/1/45 5/1/45
f  62/1/46 63/1/46 11/1/46 7/1/46
f  63/1/47 66/1/48 14/1/49 11/1/47
f  66/1/48 69/1/50 17/1/51 14/1/49
f  69/1/50 72/1/52 19/1/53 17/1/51
f  72/1/52 74/1/54 21/1/55 19/1/53
f  74/1/54 76/1/56 22/1/57 21/1/55
f  76/1/56 78/1/58 23/1/59 22/1/57
f  78/1/58 79/1/60 25/1/61 23/1/59
f  79/1/60 80/1/62 26/1/62 25/1/61
f  80/1/63 81/1/63 27/1/63 26/1/63
f  81/1/64 82/1/64 28/1/64 27/1/64
f  82/1/65 84/1/65 29/1/65 28/1/65
f  84/1/66 87/1/66 31/1/66 29/1/66
f  87/1/67 92/1/67 36/1/67 31/1/67
f  92/1/68 95/1/68 40/1/68 36/1/68
f  95/1/69 96/1/69 43/1/69 40/1/69
f  96/1/70 98/1/70 44/1/70 43/1/70
f  98/1/71 102/1/71 49/1/71 44/1/71
f  102/1/72 101/1/72 45/1/72 49/1/72
f  101/1/3 100/1/3 46/1/3 45/1/3
f  100/1/73 99/1/73 47/1/73 46/1/73
f  99/1/74 103/1/74 48/1/74 47/1/74
f  103/1/75 104/1/75 50/1/75 48/1/75
f  104/1/76 97/1/76 42/1/76 50/1/76
