# 
# Wavefront OBJ file
# Converted by the DEEP Exploration 3.5.10.1242
# Right Hemisphere, LTD
# http://www.righthemisphere.com/
# 
mtllib arrow37.mtl
# object Mesh 
g Mesh_
v 2.98514 0.86186 11.153
v 0.030625 0.86186 4.95126
v -2.98514 0.86186 2.49891
v 2.98514 -0.86186 11.1044
v 2.98514 -0.86186 11.153
v 2.98514 -0.86186 -11.153
v 2.98514 0.86186 11.1044
v -2.98514 -0.86186 2.49891
v 0.030625 -0.86186 4.95126
v 0.030625 0.86186 -11.153
v 0.030625 -0.86186 -11.153
v 2.98514 0.86186 -11.153
# 12 verticies
vt 0 0
# 1 texture verticies
vn 0 1 0
vn 1 0 0
vn 0.630909 0 -0.775857
vn -0.823126 0 0.567859
vn -1 0 0
vn 0 -1 0
vn 0 0 -1
# 7 normals
usemtl Texture_0
f  1/1/1 2/1/1 3/1/1
f  1/1/2 5/1/2 4/1/2 7/1/2
f  7/1/2 4/1/2 6/1/2 12/1/2
f  2/1/3 9/1/3 8/1/3 3/1/3
f  3/1/4 8/1/4 5/1/4 1/1/4
f  9/1/5 2/1/5 10/1/5 11/1/5
f  8/1/6 9/1/6 5/1/6
f  12/1/1 10/1/1 2/1/1
f  1/1/1 7/1/1 2/1/1
f  12/1/1 2/1/1 7/1/1
f  11/1/7 10/1/7 12/1/7 6/1/7
f  9/1/6 11/1/6 6/1/6
f  9/1/6 4/1/6 5/1/6
f  4/1/6 9/1/6 6/1/6
