# 
# Wavefront OBJ file
# Converted by the DEEP Exploration 3.5.10.1242
# Right Hemisphere, LTD
# http://www.righthemisphere.com/
# 
mtllib arrow23.mtl
# object Mesh 
g Mesh_
v -4.74684 4.74684 -0.759492
v -4.74684 0.949385 -0.759492
v -9.49367 1.00136e-005 -0.759492
v -1.89874 -0.949365 -0.759492
v -1.89874 0.949385 -0.759492
v -4.74684 -0.949365 -0.759492
v -4.74684 -4.74684 -0.759492
v 1.89874 -0.949365 -0.759492
v -0.628046 0.949385 -0.759492
v 1.89874 0.949385 -0.759492
v -0.628046 -0.949365 -0.759492
v 5.69621 -0.949365 -0.759492
v 3.16943 0.949385 -0.759492
v 5.69621 0.949385 -0.759492
v 3.16943 -0.949365 -0.759492
v 9.49367 -0.949365 -0.759492
v 6.96691 0.949385 -0.759492
v 9.49367 0.949385 -0.759492
v 6.96691 -0.949365 -0.759492
v -9.49367 1.00136e-005 0.759492
v -4.74684 0.949385 0.759492
v -4.74684 4.74684 0.759492
v -1.89874 0.949385 0.759492
v -1.89874 -0.949365 0.759492
v -4.74684 -0.949365 0.759492
v -4.74684 -4.74684 0.759492
v 1.89874 0.949385 0.759492
v -0.628046 0.949385 0.759492
v 1.89874 -0.949365 0.759492
v -0.628046 -0.949365 0.759492
v 5.69621 0.949385 0.759492
v 3.16943 0.949385 0.759492
v 5.69621 -0.949365 0.759492
v 3.16943 -0.949365 0.759492
v 9.49367 0.949385 0.759492
v 6.96691 0.949385 0.759492
v 9.49367 -0.949365 0.759492
v 6.96691 -0.949365 0.759492
# 38 verticies
vt 0 0
# 1 texture verticies
vn 0 0 -1
vn 0 0 1
vn -0.707106 0.707107 0
vn 1 0 0
vn 0 1 0
vn 0 -1 0
vn -0.707107 -0.707106 0
vn -1 0 0
# 8 normals
usemtl mat__ACI__7
f  1/1/1 2/1/1 3/1/1
f  2/1/1 5/1/1 4/1/1 6/1/1
f  6/1/1 3/1/1 2/1/1
f  3/1/1 6/1/1 7/1/1
f  9/1/1 10/1/1 8/1/1 11/1/1
f  13/1/1 14/1/1 12/1/1 15/1/1
f  17/1/1 18/1/1 16/1/1 19/1/1
f  20/1/2 21/1/2 22/1/2
f  24/1/2 23/1/2 21/1/2 25/1/2
f  21/1/2 20/1/2 25/1/2
f  26/1/2 25/1/2 20/1/2
f  29/1/2 27/1/2 28/1/2 30/1/2
f  33/1/2 31/1/2 32/1/2 34/1/2
f  37/1/2 35/1/2 36/1/2 38/1/2
f  20/1/3 22/1/3 1/1/3 3/1/3
f  22/1/4 21/1/4 2/1/4 1/1/4
f  21/1/5 23/1/5 5/1/5 2/1/5
f  23/1/4 24/1/4 4/1/4 5/1/4
f  24/1/6 25/1/6 6/1/6 4/1/6
f  25/1/4 26/1/4 7/1/4 6/1/4
f  26/1/7 20/1/7 3/1/7 7/1/7
f  28/1/5 27/1/5 10/1/5 9/1/5
f  27/1/4 29/1/4 8/1/4 10/1/4
f  29/1/6 30/1/6 11/1/6 8/1/6
f  30/1/8 28/1/8 9/1/8 11/1/8
f  32/1/5 31/1/5 14/1/5 13/1/5
f  31/1/4 33/1/4 12/1/4 14/1/4
f  33/1/6 34/1/6 15/1/6 12/1/6
f  34/1/8 32/1/8 13/1/8 15/1/8
f  36/1/5 35/1/5 18/1/5 17/1/5
f  35/1/4 37/1/4 16/1/4 18/1/4
f  37/1/6 38/1/6 19/1/6 16/1/6
f  38/1/8 36/1/8 17/1/8 19/1/8
